<svg width="119" height="104" viewBox="0 0 119 104" fill="none" xmlns="http://www.w3.org/2000/svg">
<path d="M66.2417 4.17755C62.9679 -1.39252 55.0603 -1.39252 51.7865 4.17755L1.21417 90.2232C-2.1566 95.9583 1.89014 103.255 8.44174 103.255H109.586C116.138 103.255 120.185 95.9583 116.814 90.2232L66.2417 4.17755ZM59.0027 29.5014C62.9515 29.5014 66.0371 32.9109 65.6442 36.8401L63.0573 62.7087C62.849 64.7917 61.0961 66.378 59.0027 66.378C56.9093 66.378 55.1564 64.7917 54.9481 62.7087L52.3612 36.8401C51.9683 32.9109 55.0539 29.5014 59.0027 29.5014ZM59.0141 73.7534C63.0874 73.7534 66.3894 77.0554 66.3894 81.1287C66.3894 85.202 63.0874 88.5041 59.0141 88.5041C54.9408 88.5041 51.6387 85.202 51.6387 81.1287C51.6387 77.0554 54.9408 73.7534 59.0141 73.7534Z" fill="white"/>
</svg>
