<svg width="171" height="171" viewBox="0 0 171 171" fill="none" xmlns="http://www.w3.org/2000/svg">
<path d="M86 46L137.095 134.5H34.9045L86 46Z" fill="#FE2D01"/>
<path d="M149.981 133.286L93.0598 27.5804C89.0253 20.0858 78.2777 20.0858 74.2398 27.5804L17.3222 133.286C16.4462 134.913 16.007 136.74 16.0475 138.587C16.088 140.435 16.6068 142.24 17.5532 143.827C18.4997 145.414 19.8415 146.729 21.4476 147.642C23.0537 148.556 24.8693 149.038 26.7172 149.041H140.569C142.418 149.041 144.236 148.561 145.844 147.649C147.453 146.736 148.797 145.422 149.745 143.834C150.694 142.247 151.214 140.44 151.255 138.591C151.297 136.743 150.857 134.915 149.981 133.286V133.286ZM83.6515 132.675C82.3304 132.675 81.0389 132.284 79.9404 131.55C78.842 130.816 77.9858 129.772 77.4802 128.552C76.9747 127.331 76.8424 125.988 77.1001 124.692C77.3579 123.397 77.994 122.207 78.9282 121.272C79.8624 120.338 81.0526 119.702 82.3483 119.444C83.6441 119.187 84.9871 119.319 86.2077 119.824C87.4282 120.33 88.4715 121.186 89.2054 122.285C89.9394 123.383 90.3312 124.674 90.3312 125.996C90.3312 126.873 90.1584 127.741 89.8227 128.552C89.487 129.362 88.995 130.099 88.3747 130.719C87.7545 131.339 87.0181 131.831 86.2077 132.167C85.3973 132.503 84.5287 132.675 83.6515 132.675ZM90.9056 65.4943L88.9885 106.24C88.9885 107.658 88.4255 109.017 87.4234 110.019C86.4212 111.021 85.062 111.584 83.6448 111.584C82.2275 111.584 80.8683 111.021 79.8662 110.019C78.864 109.017 78.301 107.658 78.301 106.24L76.384 65.511C76.3409 64.5378 76.4942 63.5658 76.8348 62.653C77.1753 61.7403 77.6962 60.9054 78.3662 60.1983C79.0363 59.4911 79.8419 58.9261 80.735 58.5369C81.6281 58.1477 82.5905 57.9423 83.5646 57.9329H83.6348C84.6156 57.9324 85.5863 58.1306 86.4884 58.5156C87.3905 58.9006 88.2053 59.4643 88.8835 60.1729C89.5618 60.8814 90.0894 61.72 90.4347 62.638C90.7799 63.556 90.9356 64.5345 90.8922 65.5144L90.9056 65.4943Z" fill="#FCFCFC"/>
</svg>
