<svg width="428" height="169" viewBox="0 0 428 169" fill="none" xmlns="http://www.w3.org/2000/svg">
<g clip-path="url(#clip0_1121_3167)">
<rect width="428" height="169" fill="url(#paint0_linear_1121_3167)"/>
<path d="M341.983 109.967L341.639 124.592C341.625 125.17 341.478 125.736 341.207 126.247L340.699 127.207L328.846 145.385L321.08 156.864C320.795 157.285 320.551 157.733 320.351 158.201L320.13 158.716C319.287 160.69 319.414 162.944 320.475 164.81C321.032 165.79 321.822 166.618 322.775 167.22L323.632 167.762C324.955 168.599 326.481 169.06 328.046 169.097C329.914 169.141 331.747 168.578 333.268 167.492L333.38 167.412C334.122 166.882 334.78 166.242 335.332 165.516L346.291 151.069L356.734 137.805C357.017 137.445 357.241 137.041 357.396 136.61C357.842 135.371 357.69 133.996 356.986 132.884L356.407 131.97L347.116 115.932L343.365 109.605C343.122 109.194 342.559 109.116 342.213 109.446C342.07 109.582 341.987 109.77 341.983 109.967Z" stroke="white" stroke-opacity="0.4"/>
<path d="M375.339 60.6668L372.501 78.3638C372.337 79.3843 372.485 80.4304 372.926 81.3654C373.033 81.5933 373.157 81.8129 373.296 82.0227L377.339 88.0959C378.448 89.7631 379.956 91.1273 381.726 92.0648L383.096 92.7902C383.847 93.1882 384.681 93.4058 385.531 93.4257C387.454 93.4709 389.259 92.5038 390.287 90.878L390.813 90.0466C391.181 89.4643 391.462 88.8306 391.644 88.1663C392.087 86.5588 391.939 84.8462 391.229 83.3379L389.818 80.3428L377.953 61.6071L376.932 60.1768C376.442 59.4896 375.359 59.8226 375.339 60.6668Z" stroke="white" stroke-opacity="0.4"/>
<path d="M380.747 169.164L381.476 169.604C383.038 170.546 384.87 170.94 386.682 170.725C388.842 170.468 390.812 169.363 392.158 167.653L392.288 167.489C392.611 167.078 392.897 166.639 393.142 166.178L393.186 166.094C394.115 164.339 394.488 162.343 394.253 160.371L394.058 158.736C393.939 157.734 393.72 156.747 393.403 155.789L389.776 144.828L384.019 127.994C382.949 123.888 381.308 119.952 379.145 116.301L378.179 114.673L368.929 96.8779L367.174 93.5363C365.567 90.4753 364.766 87.055 364.847 83.5984C364.915 80.6753 365.225 77.7629 365.774 74.8909L368.959 58.2066L372.29 47.5053C372.604 46.4977 372.832 45.4655 372.973 44.4197L373.378 41.4194C373.668 39.27 373.245 37.0849 372.173 35.1995C371.591 34.176 370.831 33.2645 369.93 32.5077L368.941 31.6779C367.655 30.5985 366.129 29.8432 364.49 29.4753C363.248 29.1965 361.966 29.1457 360.706 29.3254L360.427 29.3653C358.39 29.6557 356.462 30.4629 354.826 31.7099L352.846 33.2188L345.654 40.0811L338.441 47.8219L333.576 52.9787C331.428 55.2553 329.699 57.8934 328.469 60.7713C327.189 65.4213 325.54 69.9615 323.537 74.3484L320.987 79.9316L320.133 82.3073C319.47 84.1498 319.482 86.1676 320.167 88.0022C320.558 89.0526 321.16 90.0125 321.934 90.8237L322.833 91.7668C323.719 92.6951 324.86 93.3405 326.112 93.6216C327.689 93.9758 329.342 93.7293 330.747 92.9303L331.104 92.7278C332.353 92.0173 333.375 90.9652 334.048 89.6948L335.776 86.4313L338.577 79.4658L340.449 73.4498C340.468 73.3888 340.493 73.3296 340.523 73.2731C341.063 72.2528 342.616 72.7512 342.461 73.8955L342.173 76.0346C341.506 79.5286 341.129 83.0717 341.045 86.6278L341.026 87.4335C340.919 92.0157 342.17 96.5272 344.622 100.4L352.726 113.197L359.473 123.851C361.741 127.433 363.439 131.344 364.508 135.446L367.815 144.313L376.461 164.263C377.345 166.303 378.843 168.016 380.747 169.164Z" stroke="white" stroke-opacity="0.4"/>
<circle cx="365.64" cy="12.4253" r="12.68" transform="rotate(1.34535 365.64 12.4253)" stroke="white" stroke-opacity="0.4"/>
<path d="M306.856 109.967L306.513 124.592C306.499 125.17 306.351 125.736 306.081 126.247L305.572 127.207L293.72 145.385L285.954 156.864C285.669 157.285 285.424 157.733 285.224 158.201L285.004 158.716C284.16 160.69 284.288 162.944 285.348 164.81C285.906 165.79 286.695 166.618 287.648 167.22L288.505 167.762C289.828 168.599 291.354 169.06 292.919 169.097C294.788 169.141 296.62 168.578 298.141 167.492L298.253 167.412C298.996 166.882 299.654 166.242 300.205 165.516L311.164 151.069L321.607 137.805C321.891 137.445 322.114 137.041 322.27 136.61C322.715 135.371 322.564 133.996 321.859 132.884L321.281 131.97L311.989 115.932L308.239 109.605C307.995 109.194 307.432 109.116 307.086 109.446C306.943 109.582 306.861 109.77 306.856 109.967Z" stroke="white" stroke-opacity="0.4"/>
<path d="M340.212 60.6668L337.374 78.3638C337.211 79.3843 337.359 80.4304 337.799 81.3654C337.906 81.5933 338.03 81.8129 338.17 82.0227L342.212 88.0959C343.322 89.7631 344.83 91.1273 346.6 92.0648L347.969 92.7902C348.721 93.1882 349.554 93.4058 350.404 93.4257C352.327 93.4709 354.133 92.5038 355.161 90.878L355.687 90.0466C356.055 89.4643 356.335 88.8306 356.518 88.1663C356.96 86.5588 356.813 84.8462 356.102 83.3379L354.692 80.3428L342.827 61.6071L341.806 60.1768C341.315 59.4896 340.232 59.8226 340.212 60.6668Z" stroke="white" stroke-opacity="0.4"/>
<path d="M345.621 169.164L346.35 169.604C347.912 170.546 349.744 170.94 351.555 170.725C353.716 170.468 355.686 169.363 357.032 167.653L357.162 167.489C357.485 167.078 357.771 166.639 358.015 166.178L358.06 166.094C358.989 164.339 359.361 162.343 359.127 160.371L358.932 158.736C358.813 157.734 358.593 156.747 358.276 155.789L354.65 144.828L348.893 127.994C347.823 123.888 346.182 119.952 344.018 116.301L343.053 114.673L333.803 96.8779L332.048 93.5363C330.44 90.4753 329.639 87.055 329.72 83.5984C329.789 80.6753 330.099 77.7629 330.647 74.8909L333.832 58.2066L337.164 47.5053C337.477 46.4977 337.706 45.4655 337.847 44.4197L338.252 41.4194C338.542 39.27 338.118 37.0849 337.047 35.1995C336.465 34.176 335.705 33.2645 334.803 32.5077L333.815 31.6779C332.528 30.5985 331.002 29.8432 329.364 29.4753C328.122 29.1965 326.84 29.1457 325.58 29.3254L325.3 29.3653C323.264 29.6557 321.336 30.4629 319.7 31.7099L317.72 33.2188L310.528 40.0811L303.314 47.8219L298.449 52.9787C296.302 55.2553 294.573 57.8934 293.342 60.7713C292.063 65.4213 290.414 69.9615 288.411 74.3484L285.861 79.9316L285.007 82.3073C284.344 84.1498 284.356 86.1676 285.04 88.0022C285.432 89.0526 286.033 90.0125 286.807 90.8237L287.707 91.7668C288.593 92.6951 289.733 93.3405 290.985 93.6216C292.563 93.9758 294.216 93.7293 295.621 92.9303L295.977 92.7278C297.227 92.0173 298.248 90.9652 298.921 89.6948L300.65 86.4313L303.45 79.4658L305.323 73.4498C305.342 73.3888 305.367 73.3296 305.396 73.2731C305.937 72.2528 307.489 72.7512 307.335 73.8955L307.046 76.0346C306.379 79.5286 306.002 83.0717 305.919 86.6278L305.9 87.4335C305.792 92.0157 307.043 96.5272 309.496 100.4L317.599 113.197L324.347 123.851C326.615 127.433 328.313 131.344 329.382 135.446L332.689 144.313L341.335 164.263C342.219 166.303 343.717 168.016 345.621 169.164Z" stroke="white" stroke-opacity="0.4"/>
<circle cx="330.514" cy="12.4253" r="12.68" transform="rotate(1.34535 330.514 12.4253)" stroke="white" stroke-opacity="0.4"/>
<path d="M379.807 109.967L379.464 124.592C379.45 125.17 379.303 125.736 379.032 126.247L378.524 127.207L366.671 145.385L358.905 156.864C358.62 157.285 358.376 157.733 358.175 158.201L357.955 158.716C357.112 160.69 357.239 162.944 358.3 164.81C358.857 165.79 359.647 166.618 360.6 167.22L361.456 167.762C362.78 168.599 364.305 169.06 365.871 169.097C367.739 169.141 369.572 168.578 371.093 167.492L371.205 167.412C371.947 166.882 372.605 166.242 373.157 165.516L384.116 151.069L394.559 137.805C394.842 137.445 395.066 137.041 395.221 136.61C395.667 135.371 395.515 133.996 394.811 132.884L394.232 131.97L384.941 115.932L381.19 109.605C380.947 109.194 380.383 109.116 380.038 109.446C379.895 109.582 379.812 109.77 379.807 109.967Z" stroke="white" stroke-opacity="0.4"/>
<path d="M413.163 60.6668L410.326 78.3638C410.162 79.3843 410.31 80.4304 410.75 81.3654C410.858 81.5933 410.982 81.8129 411.121 82.0227L415.163 88.0959C416.273 89.7631 417.781 91.1273 419.551 92.0648L420.92 92.7902C421.672 93.1882 422.505 93.4058 423.355 93.4257C425.278 93.4709 427.084 92.5038 428.112 90.878L428.638 90.0466C429.006 89.4643 429.286 88.8306 429.469 88.1663C429.911 86.5588 429.764 84.8462 429.053 83.3379L427.643 80.3428L415.778 61.6071L414.757 60.1768C414.266 59.4896 413.183 59.8226 413.163 60.6668Z" stroke="white" stroke-opacity="0.4"/>
<path d="M418.572 169.164L419.301 169.604C420.863 170.546 422.695 170.94 424.507 170.725C426.667 170.468 428.637 169.363 429.983 167.653L430.113 167.489C430.436 167.078 430.722 166.639 430.966 166.178L431.011 166.094C431.94 164.339 432.313 162.343 432.078 160.371L431.883 158.736C431.764 157.734 431.545 156.747 431.228 155.789L427.601 144.828L421.844 127.994C420.774 123.888 419.133 119.952 416.969 116.301L416.004 114.673L406.754 96.8779L404.999 93.5363C403.392 90.4753 402.59 87.055 402.672 83.5984C402.74 80.6753 403.05 77.7629 403.599 74.8909L406.784 58.2066L410.115 47.5053C410.428 46.4977 410.657 45.4655 410.798 44.4197L411.203 41.4194C411.493 39.27 411.07 37.0849 409.998 35.1995C409.416 34.176 408.656 33.2645 407.755 32.5077L406.766 31.6779C405.48 30.5985 403.954 29.8432 402.315 29.4753C401.073 29.1965 399.791 29.1457 398.531 29.3254L398.252 29.3653C396.215 29.6557 394.287 30.4629 392.651 31.7099L390.671 33.2188L383.479 40.0811L376.266 47.8219L371.401 52.9787C369.253 55.2553 367.524 57.8934 366.294 60.7713C365.014 65.4213 363.365 69.9615 361.362 74.3484L358.812 79.9316L357.958 82.3073C357.295 84.1498 357.307 86.1676 357.992 88.0022C358.383 89.0526 358.985 90.0125 359.758 90.8237L360.658 91.7668C361.544 92.6951 362.685 93.3405 363.937 93.6216C365.514 93.9758 367.167 93.7293 368.572 92.9303L368.929 92.7278C370.178 92.0173 371.2 90.9652 371.872 89.6948L373.601 86.4313L376.401 79.4658L378.274 73.4498C378.293 73.3888 378.318 73.3296 378.348 73.2731C378.888 72.2528 380.441 72.7512 380.286 73.8955L379.998 76.0346C379.331 79.5286 378.954 83.0717 378.87 86.6278L378.851 87.4335C378.743 92.0157 379.995 96.5272 382.447 100.4L390.551 113.197L397.298 123.851C399.566 127.433 401.264 131.344 402.333 135.446L405.64 144.313L414.286 164.263C415.17 166.303 416.668 168.016 418.572 169.164Z" stroke="white" stroke-opacity="0.4"/>
<circle cx="403.465" cy="12.4253" r="12.68" transform="rotate(1.34535 403.465 12.4253)" stroke="white" stroke-opacity="0.4"/>
</g>
<defs>
<linearGradient id="paint0_linear_1121_3167" x1="214" y1="2.56618e-06" x2="214" y2="898.5" gradientUnits="userSpaceOnUse">
<stop stop-color="#B164E8"/>
<stop offset="1" stop-color="#FE2D01"/>
</linearGradient>
<clipPath id="clip0_1121_3167">
<rect width="428" height="169" fill="white"/>
</clipPath>
</defs>
</svg>
