<svg width="428" height="169" viewBox="0 0 428 169" fill="none" xmlns="http://www.w3.org/2000/svg">
<g clip-path="url(#clip0_1294_3489)">
<rect width="428" height="169" fill="#5787F5"/>
<path d="M341.983 109.967L341.639 124.592C341.625 125.17 341.478 125.736 341.207 126.247L340.699 127.207L328.846 145.385L321.08 156.864C320.795 157.285 320.551 157.733 320.351 158.201L320.13 158.716C319.287 160.69 319.414 162.944 320.475 164.81C321.032 165.79 321.822 166.618 322.775 167.22L323.632 167.762C324.955 168.599 326.48 169.06 328.046 169.097C329.914 169.141 331.747 168.578 333.268 167.492L333.38 167.412C334.122 166.882 334.78 166.242 335.332 165.515L346.291 151.069L356.734 137.805C357.017 137.445 357.241 137.041 357.396 136.61C357.842 135.371 357.69 133.996 356.986 132.884L356.407 131.97L347.116 115.932L343.365 109.605C343.122 109.194 342.559 109.116 342.213 109.446C342.07 109.582 341.987 109.77 341.983 109.967Z" stroke="white" stroke-opacity="0.4"/>
<path d="M375.339 60.6669L372.501 78.3639C372.337 79.3844 372.485 80.4305 372.925 81.3655C373.033 81.5934 373.157 81.8131 373.296 82.0228L377.339 88.096C378.448 89.7633 379.956 91.1274 381.726 92.0649L383.096 92.7904C383.847 93.1883 384.68 93.4059 385.53 93.4258C387.453 93.471 389.259 92.5039 390.287 90.8781L390.813 90.0468C391.181 89.4644 391.461 88.8307 391.644 88.1664C392.086 86.5589 391.939 84.8463 391.229 83.338L389.818 80.3429L377.953 61.6072L376.932 60.177C376.442 59.4897 375.358 59.8227 375.339 60.6669Z" stroke="white" stroke-opacity="0.4"/>
<path d="M380.747 169.165L381.476 169.604C383.038 170.546 384.87 170.941 386.682 170.725C388.842 170.468 390.812 169.363 392.158 167.654L392.288 167.489C392.611 167.078 392.897 166.639 393.142 166.178L393.186 166.094C394.115 164.339 394.488 162.343 394.253 160.371L394.059 158.736C393.939 157.734 393.72 156.747 393.403 155.79L389.776 144.829L384.019 127.994C382.949 123.888 381.309 119.952 379.145 116.301L378.18 114.673L368.929 96.878L367.174 93.5364C365.567 90.4754 364.766 87.0551 364.847 83.5985C364.915 80.6754 365.225 77.763 365.774 74.891L368.959 58.2067L372.29 47.5054C372.604 46.4978 372.832 45.4656 372.973 44.4198L373.378 41.4195C373.668 39.2702 373.245 37.085 372.173 35.1996C371.591 34.1762 370.832 33.2646 369.93 32.5078L368.941 31.678C367.655 30.5986 366.129 29.8433 364.49 29.4754C363.249 29.1966 361.966 29.1458 360.706 29.3255L360.427 29.3654C358.39 29.6559 356.462 30.4631 354.826 31.71L352.846 33.2189L345.654 40.0813L338.441 47.822L333.576 52.9788C331.428 55.2554 329.699 57.8935 328.469 60.7714C327.19 65.4214 325.54 69.9616 323.537 74.3485L320.988 79.9317L320.133 82.3074C319.47 84.15 319.482 86.1677 320.167 88.0023C320.559 89.0527 321.16 90.0127 321.934 90.8238L322.833 91.7669C323.719 92.6952 324.86 93.3406 326.112 93.6217C327.689 93.9759 329.342 93.7294 330.748 92.9304L331.104 92.7279C332.353 92.0174 333.375 90.9653 334.048 89.6949L335.776 86.4314L338.577 79.4659L340.449 73.45C340.468 73.3889 340.493 73.3298 340.523 73.2733C341.063 72.2529 342.616 72.7513 342.461 73.8956L342.173 76.0347C341.506 79.5287 341.129 83.0718 341.045 86.6279L341.026 87.4336C340.919 92.0158 342.17 96.5274 344.622 100.4L352.726 113.197L359.473 123.852C361.741 127.433 363.44 131.344 364.508 135.446L367.815 144.313L376.461 164.263C377.345 166.303 378.843 168.016 380.747 169.165Z" stroke="white" stroke-opacity="0.4"/>
<circle cx="365.64" cy="12.4253" r="12.68" transform="rotate(1.34535 365.64 12.4253)" stroke="white" stroke-opacity="0.4"/>
<path d="M306.856 109.967L306.513 124.592C306.499 125.17 306.351 125.736 306.081 126.247L305.572 127.207L293.72 145.385L285.954 156.864C285.669 157.285 285.424 157.733 285.224 158.201L285.004 158.716C284.16 160.69 284.288 162.944 285.348 164.81C285.906 165.79 286.695 166.618 287.648 167.22L288.505 167.762C289.828 168.599 291.354 169.06 292.919 169.097C294.788 169.141 296.62 168.578 298.141 167.492L298.253 167.412C298.996 166.882 299.654 166.242 300.205 165.515L311.164 151.069L321.607 137.805C321.891 137.445 322.114 137.041 322.27 136.61C322.715 135.371 322.564 133.996 321.859 132.884L321.281 131.97L311.989 115.932L308.239 109.605C307.995 109.194 307.432 109.116 307.086 109.446C306.943 109.582 306.861 109.77 306.856 109.967Z" stroke="white" stroke-opacity="0.4"/>
<path d="M340.212 60.6669L337.374 78.3639C337.211 79.3844 337.359 80.4305 337.799 81.3655C337.906 81.5934 338.03 81.8131 338.17 82.0228L342.212 88.096C343.322 89.7633 344.83 91.1274 346.6 92.0649L347.969 92.7904C348.72 93.1883 349.554 93.4059 350.404 93.4258C352.327 93.471 354.133 92.5039 355.161 90.8781L355.687 90.0468C356.055 89.4644 356.335 88.8307 356.518 88.1664C356.96 86.5589 356.813 84.8463 356.102 83.338L354.692 80.3429L342.827 61.6072L341.806 60.177C341.315 59.4897 340.232 59.8227 340.212 60.6669Z" stroke="white" stroke-opacity="0.4"/>
<path d="M345.621 169.165L346.35 169.604C347.912 170.546 349.744 170.941 351.555 170.725C353.716 170.468 355.686 169.363 357.032 167.654L357.162 167.489C357.485 167.078 357.771 166.639 358.015 166.178L358.06 166.094C358.989 164.339 359.361 162.343 359.127 160.371L358.932 158.736C358.813 157.734 358.593 156.747 358.276 155.79L354.65 144.829L348.893 127.994C347.823 123.888 346.182 119.952 344.018 116.301L343.053 114.673L333.803 96.878L332.048 93.5364C330.44 90.4754 329.639 87.0551 329.72 83.5985C329.789 80.6754 330.099 77.763 330.647 74.891L333.832 58.2067L337.164 47.5054C337.477 46.4978 337.706 45.4656 337.847 44.4198L338.252 41.4195C338.542 39.2702 338.118 37.085 337.047 35.1996C336.465 34.1762 335.705 33.2646 334.803 32.5078L333.815 31.678C332.528 30.5986 331.002 29.8433 329.364 29.4754C328.122 29.1966 326.84 29.1458 325.58 29.3255L325.3 29.3654C323.264 29.6559 321.336 30.4631 319.7 31.71L317.72 33.2189L310.528 40.0813L303.314 47.822L298.449 52.9788C296.302 55.2554 294.573 57.8935 293.342 60.7714C292.063 65.4214 290.414 69.9616 288.411 74.3485L285.861 79.9317L285.007 82.3074C284.344 84.15 284.356 86.1677 285.04 88.0023C285.432 89.0527 286.033 90.0127 286.807 90.8238L287.707 91.7669C288.593 92.6952 289.733 93.3406 290.985 93.6217C292.563 93.9759 294.216 93.7294 295.621 92.9304L295.977 92.7279C297.227 92.0174 298.248 90.9653 298.921 89.6949L300.65 86.4314L303.45 79.4659L305.323 73.45C305.342 73.3889 305.367 73.3298 305.396 73.2733C305.937 72.2529 307.489 72.7513 307.335 73.8956L307.046 76.0347C306.379 79.5287 306.002 83.0718 305.919 86.6279L305.9 87.4336C305.792 92.0158 307.043 96.5274 309.496 100.4L317.599 113.197L324.347 123.852C326.615 127.433 328.313 131.344 329.382 135.446L332.689 144.313L341.335 164.263C342.219 166.303 343.717 168.016 345.621 169.165Z" stroke="white" stroke-opacity="0.4"/>
<circle cx="330.514" cy="12.4253" r="12.68" transform="rotate(1.34535 330.514 12.4253)" stroke="white" stroke-opacity="0.4"/>
<path d="M379.807 109.967L379.464 124.592C379.45 125.17 379.302 125.736 379.032 126.247L378.524 127.207L366.671 145.385L358.905 156.864C358.62 157.285 358.376 157.733 358.175 158.201L357.955 158.716C357.112 160.69 357.239 162.944 358.3 164.81C358.857 165.79 359.647 166.618 360.599 167.22L361.456 167.762C362.78 168.599 364.305 169.06 365.871 169.097C367.739 169.141 369.571 168.578 371.093 167.492L371.205 167.412C371.947 166.882 372.605 166.242 373.157 165.515L384.116 151.069L394.559 137.805C394.842 137.445 395.066 137.041 395.221 136.61C395.666 135.371 395.515 133.996 394.811 132.884L394.232 131.97L384.941 115.932L381.19 109.605C380.946 109.194 380.383 109.116 380.037 109.446C379.895 109.582 379.812 109.77 379.807 109.967Z" stroke="white" stroke-opacity="0.4"/>
<path d="M413.164 60.6669L410.326 78.3639C410.162 79.3844 410.31 80.4305 410.75 81.3655C410.858 81.5934 410.982 81.8131 411.121 82.0228L415.163 88.096C416.273 89.7633 417.781 91.1274 419.551 92.0649L420.921 92.7904C421.672 93.1883 422.505 93.4059 423.355 93.4258C425.278 93.471 427.084 92.5039 428.112 90.8781L428.638 90.0468C429.006 89.4644 429.286 88.8307 429.469 88.1664C429.911 86.5589 429.764 84.8463 429.054 83.338L427.643 80.3429L415.778 61.6072L414.757 60.177C414.266 59.4897 413.183 59.8227 413.164 60.6669Z" stroke="white" stroke-opacity="0.4"/>
<path d="M418.572 169.165L419.301 169.604C420.863 170.546 422.695 170.941 424.507 170.725C426.667 170.468 428.637 169.363 429.983 167.654L430.113 167.489C430.436 167.078 430.722 166.639 430.967 166.178L431.011 166.094C431.94 164.339 432.313 162.343 432.078 160.371L431.883 158.736C431.764 157.734 431.545 156.747 431.228 155.79L427.601 144.829L421.844 127.994C420.774 123.888 419.133 119.952 416.97 116.301L416.004 114.673L406.754 96.878L404.999 93.5364C403.392 90.4754 402.591 87.0551 402.672 83.5985C402.74 80.6754 403.05 77.763 403.599 74.891L406.784 58.2067L410.115 47.5054C410.429 46.4978 410.657 45.4656 410.798 44.4198L411.203 41.4195C411.493 39.2702 411.07 37.085 409.998 35.1996C409.416 34.1762 408.656 33.2646 407.755 32.5078L406.766 31.678C405.48 30.5986 403.954 29.8433 402.315 29.4754C401.073 29.1966 399.791 29.1458 398.531 29.3255L398.252 29.3654C396.215 29.6559 394.287 30.4631 392.651 31.71L390.671 33.2189L383.479 40.0813L376.266 47.822L371.401 52.9788C369.253 55.2554 367.524 57.8935 366.294 60.7714C365.014 65.4214 363.365 69.9616 361.362 74.3485L358.812 79.9317L357.958 82.3074C357.295 84.15 357.307 86.1677 357.992 88.0023C358.383 89.0527 358.985 90.0127 359.758 90.8238L360.658 91.7669C361.544 92.6952 362.685 93.3406 363.937 93.6217C365.514 93.9759 367.167 93.7294 368.572 92.9304L368.929 92.7279C370.178 92.0174 371.2 90.9653 371.872 89.6949L373.601 86.4314L376.402 79.4659L378.274 73.45C378.293 73.3889 378.318 73.3298 378.348 73.2733C378.888 72.2529 380.441 72.7513 380.286 73.8956L379.998 76.0347C379.331 79.5287 378.954 83.0718 378.87 86.6279L378.851 87.4336C378.744 92.0158 379.995 96.5274 382.447 100.4L390.551 113.197L397.298 123.852C399.566 127.433 401.264 131.344 402.333 135.446L405.64 144.313L414.286 164.263C415.17 166.303 416.668 168.016 418.572 169.165Z" stroke="white" stroke-opacity="0.4"/>
<circle cx="403.465" cy="12.4253" r="12.68" transform="rotate(1.34535 403.465 12.4253)" stroke="white" stroke-opacity="0.4"/>
</g>
<defs>
<clipPath id="clip0_1294_3489">
<rect width="428" height="169" fill="white"/>
</clipPath>
</defs>
</svg>
