<svg width="428" height="493" viewBox="0 0 428 493" fill="none" xmlns="http://www.w3.org/2000/svg">
<g clip-path="url(#clip0_1121_5961)">
<path d="M185 362.5V362.5C263.494 267.653 394.597 234.961 508.435 281.848L663.096 345.549C774.392 391.39 900.414 384.675 1006.21 327.267L1161.5 243" stroke="url(#paint0_linear_1121_5961)" stroke-width="250" stroke-linecap="round"/>
<g clip-path="url(#clip1_1121_5961)">
<path d="M308.895 367.076C308.548 367.274 308.147 367.357 307.75 367.311C307.729 367.309 307.707 367.306 307.686 367.302L298.585 365.785L293.858 368.497C293.427 368.745 292.915 368.811 292.435 368.681C291.955 368.551 291.546 368.235 291.298 367.804L286.944 360.214C286.697 359.783 286.631 359.271 286.761 358.791C286.891 358.311 287.206 357.902 287.637 357.655L292.364 354.943L295.647 346.321C295.654 346.301 295.662 346.281 295.672 346.261C295.812 345.944 296.037 345.672 296.322 345.475C296.608 345.278 296.942 345.164 297.288 345.146C297.634 345.128 297.979 345.206 298.283 345.371C298.588 345.537 298.84 345.784 299.013 346.084L309.588 364.516C309.835 364.947 309.901 365.459 309.771 365.939C309.641 366.419 309.326 366.828 308.895 367.076Z" fill="#FCFCFC"/>
<path d="M311.748 358.233C311.563 358.339 311.353 358.396 311.14 358.399C310.927 358.401 310.716 358.349 310.529 358.247C310.342 358.145 310.183 357.997 310.069 357.817C309.955 357.637 309.889 357.43 309.878 357.217C309.787 355.57 309.369 354.086 308.638 352.812C307.884 351.498 306.847 350.422 305.467 349.521C305.196 349.337 305.008 349.054 304.943 348.733C304.879 348.412 304.943 348.078 305.122 347.804C305.301 347.53 305.58 347.337 305.9 347.266C306.22 347.196 306.555 347.254 306.833 347.428C308.55 348.549 309.851 349.904 310.806 351.568C311.733 353.185 312.258 355.041 312.374 357.08C312.387 357.312 312.335 357.542 312.224 357.745C312.114 357.949 311.949 358.118 311.748 358.233Z" fill="#FCFCFC"/>
<path d="M316.866 359.62C316.676 359.729 316.46 359.786 316.241 359.786C316.021 359.785 315.806 359.727 315.616 359.616C315.427 359.506 315.269 359.348 315.16 359.158C315.051 358.967 314.994 358.752 314.994 358.532C314.996 355.567 314.666 353.272 312.974 350.324C311.257 347.331 309.451 345.9 306.912 344.44C306.63 344.272 306.424 344 306.341 343.682C306.257 343.364 306.302 343.026 306.466 342.741C306.63 342.456 306.899 342.247 307.216 342.16C307.533 342.072 307.872 342.113 308.159 342.273C310.995 343.903 313.152 345.611 315.143 349.08C317.103 352.497 317.496 355.231 317.495 358.538C317.495 358.758 317.436 358.973 317.326 359.163C317.215 359.353 317.057 359.51 316.866 359.62Z" fill="#FCFCFC"/>
<path d="M321.985 361.006C321.79 361.118 321.568 361.175 321.343 361.171C321.118 361.167 320.898 361.103 320.707 360.985C320.515 360.866 320.359 360.698 320.255 360.499C320.151 360.299 320.103 360.075 320.116 359.85C320.337 355.959 319.945 352.427 317.311 347.836C314.726 343.329 311.856 341.182 308.343 339.345C308.197 339.269 308.068 339.165 307.963 339.039C307.857 338.913 307.778 338.767 307.729 338.611C307.68 338.454 307.662 338.289 307.677 338.125C307.691 337.962 307.738 337.803 307.814 337.657C307.89 337.511 307.995 337.382 308.121 337.277C308.247 337.172 308.392 337.092 308.549 337.043C308.706 336.994 308.871 336.976 309.034 336.991C309.198 337.006 309.357 337.053 309.503 337.129C313.403 339.169 316.592 341.559 319.479 346.591C321.997 350.979 322.904 354.861 322.611 359.993C322.599 360.201 322.536 360.402 322.426 360.579C322.317 360.756 322.166 360.903 321.985 361.006Z" fill="#FCFCFC"/>
</g>
<g filter="url(#filter0_dd_1121_5961)">
<rect x="0.14502" y="236.664" width="168.462" height="219" rx="10" transform="rotate(-11.32 0.14502 236.664)" fill="#FCFCFC"/>
<path d="M102.887 312.344C101.466 310.758 98.9044 311.271 98.2037 313.282L87.3797 344.344C86.6583 346.415 88.441 348.508 90.5637 348.083L123.335 341.523C125.457 341.098 126.297 338.48 124.834 336.847L102.887 312.344ZM102.179 320.99C103.458 320.734 104.678 321.635 104.805 322.929L105.639 331.449C105.706 332.135 105.24 332.761 104.562 332.897C103.884 333.033 103.213 332.634 103.011 331.975L100.501 323.791C100.12 322.548 100.899 321.247 102.179 320.99ZM105.042 335.278C106.362 335.013 107.645 335.865 107.909 337.181C108.172 338.496 107.316 339.776 105.996 340.04C104.676 340.305 103.393 339.453 103.13 338.137C102.866 336.822 103.723 335.542 105.042 335.278Z" fill="#FE2D01"/>
<path d="M49.3457 280.609L51.3681 271.637L53.2507 271.26L58.5825 278.76L56.5822 279.16L52.1143 272.491L52.8673 272.341L51.299 280.218L49.3457 280.609ZM50.828 278.476L51.0442 276.928L55.2802 276.08L56.0876 277.423L50.828 278.476ZM63.4604 277.881C62.927 277.988 62.4367 277.964 61.9895 277.808C61.5424 277.653 61.1571 277.359 60.8339 276.926C60.5169 276.484 60.2846 275.894 60.1369 275.156C59.9878 274.411 59.9712 273.778 60.0872 273.257C60.2032 272.736 60.4377 272.318 60.7906 272.003C61.1436 271.687 61.5985 271.474 62.1555 271.362C62.7517 271.243 63.3126 271.274 63.8382 271.454C64.3701 271.625 64.822 271.926 65.1939 272.357C65.5737 272.787 65.8295 273.332 65.9614 273.99C66.0949 274.657 66.0691 275.262 65.8841 275.805C65.7069 276.346 65.4057 276.798 64.9806 277.161C64.5633 277.522 64.0566 277.762 63.4604 277.881ZM60.1568 280.819L58.4326 272.206L60.1858 271.855L60.4449 273.149L60.7865 275.039L61.2786 276.886L61.9924 280.451L60.1568 280.819ZM62.8412 276.439C63.1472 276.377 63.4037 276.253 63.6107 276.064C63.8256 275.874 63.9778 275.636 64.0672 275.349C64.1628 275.052 64.1745 274.723 64.1023 274.363C64.0285 273.994 63.8911 273.695 63.6903 273.466C63.4973 273.235 63.265 273.074 62.9936 272.981C62.73 272.887 62.4452 272.871 62.1393 272.932C61.8334 272.993 61.5729 273.119 61.358 273.309C61.1431 273.499 60.991 273.737 60.9016 274.024C60.8122 274.311 60.8044 274.639 60.8782 275.008C60.9505 275.369 61.0839 275.668 61.2785 275.907C61.4715 276.138 61.7037 276.299 61.9752 276.392C62.2466 276.484 62.5353 276.5 62.8412 276.439ZM71.9766 276.176C71.4432 276.283 70.9529 276.259 70.5057 276.104C70.0586 275.948 69.6733 275.654 69.3501 275.221C69.0331 274.779 68.8008 274.189 68.6531 273.452C68.504 272.706 68.4874 272.073 68.6034 271.552C68.7194 271.032 68.9539 270.613 69.3068 270.298C69.6598 269.983 70.1147 269.769 70.6717 269.658C71.2679 269.538 71.8288 269.569 72.3544 269.749C72.8863 269.92 73.3382 270.221 73.7101 270.653C74.0899 271.082 74.3457 271.627 74.4776 272.286C74.6111 272.952 74.5853 273.557 74.4002 274.1C74.2231 274.641 73.9219 275.093 73.4968 275.456C73.0795 275.817 72.5728 276.057 71.9766 276.176ZM68.673 279.114L66.9488 270.501L68.702 270.15L68.9611 271.444L69.3027 273.334L69.7948 275.181L70.5086 278.746L68.673 279.114ZM71.3574 274.734C71.6634 274.672 71.9198 274.548 72.1269 274.359C72.3418 274.17 72.494 273.931 72.5833 273.644C72.679 273.347 72.6907 273.019 72.6185 272.658C72.5447 272.289 72.4073 271.99 72.2065 271.761C72.0135 271.531 71.7812 271.369 71.5098 271.277C71.2462 271.182 70.9614 271.166 70.6555 271.227C70.3496 271.289 70.0891 271.414 69.8742 271.604C69.6593 271.794 69.5072 272.032 69.4178 272.319C69.3284 272.607 69.3206 272.935 69.3944 273.303C69.4667 273.664 69.6001 273.964 69.7947 274.202C69.9877 274.433 70.2199 274.594 70.4914 274.687C70.7628 274.779 71.0515 274.795 71.3574 274.734ZM76.7322 275.126L75.465 268.796L77.2182 268.445L77.5762 270.233L77.2255 269.765C77.3242 269.28 77.5587 268.883 77.9289 268.572C78.2976 268.253 78.78 268.034 79.3762 267.915L79.7153 269.609C79.6353 269.617 79.5639 269.628 79.5012 269.64C79.4369 269.645 79.3694 269.654 79.2988 269.668C78.7968 269.769 78.4179 269.996 78.1622 270.349C77.9128 270.692 77.8486 271.166 77.9695 271.77L78.5678 274.759L76.7322 275.126ZM85.131 273.543C84.4564 273.678 83.828 273.657 83.2459 273.48C82.6717 273.301 82.1829 272.999 81.7796 272.574C81.3826 272.139 81.1213 271.608 80.9956 270.981C80.8685 270.345 80.9052 269.755 81.1059 269.209C81.3129 268.653 81.6478 268.186 82.1106 267.808C82.5796 267.421 83.1515 267.159 83.8261 267.024C84.4929 266.891 85.1173 266.913 85.6994 267.09C86.2799 267.259 86.7679 267.557 87.1634 267.984C87.5588 268.411 87.8209 268.946 87.9497 269.589C88.0753 270.216 88.0385 270.807 87.8394 271.361C87.6387 271.907 87.3038 272.374 86.8347 272.761C86.3657 273.149 85.7978 273.409 85.131 273.543ZM84.8295 272.037C85.1354 271.976 85.3959 271.85 85.6108 271.66C85.8257 271.47 85.9778 271.232 86.0672 270.945C86.155 270.65 86.1628 270.322 86.0906 269.961C86.0168 269.592 85.8834 269.293 85.6903 269.062C85.4973 268.831 85.2651 268.67 84.9936 268.577C84.7222 268.485 84.4335 268.469 84.1276 268.53C83.8217 268.592 83.5612 268.717 83.3463 268.907C83.1314 269.097 82.9753 269.336 82.8781 269.625C82.7887 269.912 82.781 270.24 82.8548 270.609C82.927 270.97 83.0604 271.269 83.255 271.508C83.4559 271.737 83.692 271.897 83.9635 271.99C84.2349 272.082 84.5236 272.098 84.8295 272.037ZM93.982 271.673L93.7347 270.438L93.5628 270.191L93.12 267.979C93.0415 267.586 92.8587 267.305 92.5715 267.134C92.2922 266.961 91.9055 266.924 91.4113 267.023C91.074 267.091 90.7516 267.213 90.4441 267.388C90.1429 267.555 89.8966 267.751 89.7052 267.977L88.7896 266.826C89.086 266.514 89.4641 266.242 89.9238 266.012C90.3834 265.781 90.8643 265.615 91.3663 265.515C92.3312 265.322 93.1258 265.399 93.7503 265.747C94.3748 266.096 94.7836 266.752 94.9768 267.717L95.6999 271.329L93.982 271.673ZM92.0711 272.154C91.5769 272.253 91.1369 272.255 90.7509 272.161C90.3633 272.059 90.0464 271.882 89.8 271.629C89.5537 271.377 89.3944 271.07 89.3221 270.709C89.2467 270.333 89.271 269.985 89.3949 269.667C89.5266 269.347 89.7768 269.068 90.1455 268.831C90.5126 268.586 91.0177 268.399 91.661 268.271L93.3436 267.934L93.5579 269.005L92.0753 269.301C91.6439 269.388 91.3599 269.518 91.2235 269.692C91.0949 269.865 91.0517 270.057 91.0941 270.269C91.1413 270.504 91.2692 270.674 91.4778 270.779C91.6928 270.875 91.9611 270.891 92.2827 270.826C92.5886 270.765 92.8491 270.64 93.064 270.45C93.2773 270.252 93.4106 270.001 93.4639 269.696L93.9159 270.487C93.8642 270.922 93.6831 271.28 93.3725 271.563C93.0619 271.845 92.6281 272.042 92.0711 272.154ZM100.878 270.391C100.195 270.527 99.5597 270.512 98.9713 270.344C98.3813 270.168 97.8839 269.864 97.4791 269.431C97.0821 268.997 96.8207 268.466 96.6951 267.838C96.5679 267.203 96.6047 266.612 96.8054 266.066C97.0124 265.511 97.3551 265.042 97.8336 264.661C98.3105 264.272 98.8902 264.009 99.5726 263.872C100.239 263.739 100.848 263.764 101.399 263.947C101.948 264.123 102.392 264.446 102.731 264.916L101.46 265.966C101.236 265.701 100.984 265.523 100.705 265.432C100.433 265.34 100.153 265.322 99.8624 265.381C99.5486 265.443 99.2803 265.571 99.0576 265.762C98.8348 265.953 98.6748 266.193 98.5776 266.482C98.4882 266.769 98.4804 267.097 98.5542 267.466C98.628 267.835 98.7614 268.134 98.9545 268.365C99.1553 268.594 99.3954 268.754 99.6747 268.845C99.954 268.936 100.251 268.95 100.564 268.887C100.855 268.829 101.108 268.709 101.324 268.527C101.547 268.335 101.71 268.07 101.814 267.731L103.393 268.223C103.26 268.78 102.974 269.249 102.537 269.63C102.097 270.004 101.544 270.257 100.878 270.391ZM107.671 262.251C108.173 262.151 108.64 262.163 109.073 262.288C109.513 262.404 109.888 262.648 110.198 263.018C110.507 263.38 110.726 263.883 110.855 264.526L111.581 268.15L109.745 268.518L109.076 265.176C108.974 264.666 108.785 264.312 108.509 264.115C108.24 263.916 107.902 263.857 107.494 263.938C107.204 263.997 106.954 264.112 106.744 264.285C106.54 264.448 106.396 264.668 106.313 264.946C106.238 265.222 106.24 265.556 106.318 265.948L106.945 269.078L105.109 269.446L103.361 260.715L105.197 260.348L106.028 264.501L105.511 264.054C105.653 263.585 105.914 263.194 106.292 262.882C106.67 262.57 107.129 262.359 107.671 262.251ZM113.637 267.739L112.37 261.408L114.205 261.041L115.472 267.371L113.637 267.739ZM113.111 260.342C112.773 260.41 112.479 260.367 112.228 260.213C111.977 260.059 111.822 259.837 111.764 259.547C111.706 259.257 111.763 258.992 111.936 258.754C112.109 258.515 112.363 258.362 112.701 258.295C113.038 258.227 113.331 258.266 113.581 258.412C113.829 258.55 113.982 258.764 114.04 259.055C114.101 259.361 114.046 259.637 113.875 259.883C113.711 260.12 113.456 260.273 113.111 260.342ZM120.13 259.757C120.632 259.656 121.099 259.669 121.532 259.794C121.972 259.91 122.347 260.153 122.657 260.524C122.967 260.886 123.185 261.389 123.314 262.032L124.04 265.656L122.204 266.024L121.535 262.682C121.433 262.172 121.244 261.818 120.968 261.621C120.7 261.421 120.361 261.363 119.953 261.444C119.663 261.502 119.413 261.618 119.203 261.79C118.999 261.954 118.855 262.174 118.772 262.452C118.697 262.728 118.699 263.062 118.777 263.454L119.404 266.584L117.568 266.952L116.301 260.621L118.054 260.27L118.405 262.024L117.97 261.56C118.112 261.091 118.373 260.7 118.751 260.388C119.129 260.076 119.588 259.865 120.13 259.757ZM129.595 267.016C128.998 267.136 128.407 267.177 127.82 267.139C127.243 267.108 126.741 266.984 126.314 266.767L126.78 265.304C127.09 265.47 127.462 265.575 127.895 265.619C128.338 265.669 128.759 265.654 129.159 265.574C129.81 265.443 130.252 265.204 130.484 264.856C130.724 264.506 130.786 264.045 130.672 263.472L130.481 262.519L130.281 260.907L129.937 259.311L129.664 257.946L131.405 257.598L132.46 262.869C132.696 264.046 132.563 264.974 132.063 265.653C131.563 266.333 130.74 266.787 129.595 267.016ZM128.775 264.39C128.187 264.508 127.628 264.489 127.099 264.334C126.577 264.169 126.125 263.888 125.744 263.492C125.369 263.085 125.12 262.576 124.997 261.964C124.873 261.345 124.907 260.779 125.098 260.268C125.296 259.747 125.605 259.314 126.025 258.968C126.454 258.622 126.962 258.389 127.55 258.271C128.084 258.165 128.576 258.18 129.028 258.318C129.478 258.448 129.863 258.718 130.181 259.128C130.498 259.529 130.728 260.083 130.869 260.789C131.009 261.487 131.01 262.086 130.874 262.587C130.736 263.08 130.485 263.477 130.121 263.778C129.757 264.079 129.308 264.283 128.775 264.39ZM128.838 262.811C129.16 262.747 129.434 262.626 129.66 262.451C129.884 262.267 130.043 262.044 130.137 261.78C130.231 261.516 130.248 261.232 130.187 260.926C130.124 260.612 129.999 260.355 129.812 260.156C129.624 259.949 129.392 259.808 129.116 259.733C128.838 259.65 128.538 259.64 128.217 259.705C127.895 259.769 127.622 259.893 127.398 260.077C127.172 260.252 127.008 260.473 126.906 260.738C126.81 260.994 126.794 261.278 126.857 261.592C126.918 261.898 127.043 262.155 127.231 262.362C127.427 262.567 127.664 262.712 127.942 262.795C128.218 262.87 128.517 262.875 128.838 262.811ZM58.0043 295.193L56.3555 286.956L58.2617 286.575L59.9105 294.811L58.0043 295.193ZM64.6896 287.173C65.1916 287.072 65.6592 287.084 66.0922 287.21C66.5315 287.326 66.9065 287.569 67.2173 287.939C67.5264 288.302 67.7454 288.804 67.8741 289.448L68.5996 293.072L66.764 293.439L66.0951 290.098C65.993 289.588 65.8039 289.234 65.5277 289.036C65.2594 288.837 64.9213 288.778 64.5134 288.86C64.2231 288.918 63.9729 289.033 63.7627 289.206C63.5588 289.369 63.4153 289.59 63.3321 289.867C63.2569 290.144 63.2585 290.478 63.337 290.87L63.9636 294L62.128 294.367L60.8608 288.037L62.614 287.686L62.9649 289.439L62.5295 288.976C62.6722 288.506 62.9325 288.116 63.3106 287.803C63.6887 287.491 64.1483 287.281 64.6896 287.173ZM73.2632 292.236C72.518 292.385 71.8998 292.313 71.4087 292.02C70.916 291.719 70.5942 291.192 70.4435 290.439L69.3317 284.885L71.1673 284.517L72.2744 290.048C72.3278 290.314 72.44 290.508 72.611 290.629C72.7805 290.742 72.9868 290.774 73.23 290.725C73.5202 290.667 73.7516 290.539 73.9241 290.342L74.6774 291.537C74.5159 291.708 74.3088 291.855 74.0562 291.979C73.8099 292.094 73.5456 292.18 73.2632 292.236ZM68.9463 288.034L68.6637 286.622L73.0526 285.743L73.3352 287.155L68.9463 288.034ZM79.1265 291.062C78.4048 291.207 77.7411 291.193 77.1355 291.02C76.5377 290.846 76.0411 290.546 75.6456 290.119C75.2486 289.685 74.9873 289.154 74.8617 288.526C74.7345 287.891 74.7673 287.301 74.9602 286.756C75.1594 286.203 75.4864 285.737 75.9413 285.361C76.3947 284.976 76.943 284.72 77.5862 284.591C78.2059 284.467 78.7896 284.489 79.3372 284.656C79.891 284.815 80.3625 285.112 80.7517 285.548C81.1393 285.976 81.4014 286.532 81.538 287.214C81.5522 287.285 81.5647 287.368 81.5757 287.464C81.5852 287.551 81.5938 287.635 81.6017 287.715L76.4597 288.745L76.2453 287.674L80.4224 286.838L79.7801 287.297C79.7141 286.967 79.5901 286.694 79.4081 286.478C79.226 286.261 79.004 286.11 78.742 286.024C78.4784 285.93 78.1897 285.914 77.8759 285.977C77.5622 286.04 77.2978 286.166 77.0829 286.356C76.8743 286.536 76.7284 286.766 76.6453 287.043C76.5606 287.313 76.552 287.617 76.6196 287.954L76.6761 288.236C76.7452 288.582 76.8809 288.873 77.0834 289.109C77.2921 289.337 77.5479 289.494 77.8507 289.58C78.1598 289.657 78.5026 289.658 78.8791 289.582C79.2164 289.515 79.5004 289.405 79.731 289.253C79.9694 289.099 80.1741 288.899 80.3451 288.652L81.5337 289.516C81.3094 289.903 80.9957 290.231 80.5925 290.5C80.1878 290.76 79.6991 290.948 79.1265 291.062ZM83.7812 290.033L82.514 283.702L84.2672 283.351L84.6252 285.14L84.2745 284.672C84.3732 284.187 84.6077 283.789 84.9779 283.478C85.3466 283.16 85.829 282.941 86.4252 282.821L86.7644 284.516C86.6843 284.524 86.613 284.534 86.5502 284.546C86.4859 284.551 86.4184 284.561 86.3478 284.575C85.8458 284.675 85.4669 284.902 85.2112 285.255C84.9618 285.599 84.8976 286.073 85.0185 286.677L85.6168 289.665L83.7812 290.033ZM91.3895 288.608C90.8482 288.716 90.314 288.758 89.7868 288.733C89.2659 288.698 88.8407 288.612 88.5112 288.474L88.8593 287.034C89.1856 287.156 89.5567 287.237 89.9725 287.276C90.3945 287.306 90.7977 287.282 91.1821 287.205C91.6057 287.12 91.8936 287.01 92.0457 286.873C92.2058 286.735 92.2677 286.576 92.2316 286.395C92.2017 286.246 92.1092 286.15 91.9538 286.108C91.8048 286.056 91.6126 286.034 91.3772 286.04C91.1419 286.046 90.883 286.057 90.6006 286.073C90.3261 286.087 90.0452 286.09 89.7581 286.083C89.4694 286.067 89.198 286.015 88.9438 285.927C88.6896 285.84 88.4692 285.696 88.2824 285.497C88.1035 285.296 87.978 285.015 87.9057 284.654C87.8257 284.254 87.8687 283.879 88.035 283.527C88.2091 283.174 88.4985 282.867 88.9032 282.607C89.3064 282.338 89.8139 282.143 90.4258 282.021C90.8572 281.934 91.3059 281.893 91.7719 281.898C92.2379 281.903 92.6379 281.965 92.9721 282.086L92.6217 283.515C92.2797 283.395 91.9455 283.336 91.6192 283.336C91.2991 283.327 90.9939 283.351 90.7037 283.409C90.2958 283.491 90.0087 283.605 89.8424 283.753C89.6761 283.9 89.6103 284.06 89.6448 284.233C89.6762 284.39 89.7665 284.494 89.9155 284.546C90.0724 284.596 90.2693 284.622 90.5062 284.623C90.7431 284.625 90.9989 284.619 91.2734 284.604C91.5543 284.581 91.839 284.577 92.1277 284.593C92.4164 284.608 92.6839 284.661 92.9303 284.75C93.1829 284.83 93.4025 284.97 93.5893 285.169C93.7744 285.36 93.9031 285.636 93.9754 285.997C94.0539 286.389 94.0061 286.762 93.832 287.115C93.6564 287.46 93.3622 287.764 92.9497 288.026C92.5449 288.287 92.0249 288.48 91.3895 288.608ZM99.0446 287.075C98.3229 287.22 97.6592 287.206 97.0536 287.033C96.4558 286.859 95.9592 286.559 95.5637 286.132C95.1667 285.698 94.9054 285.166 94.7798 284.539C94.6526 283.904 94.6854 283.314 94.8783 282.769C95.0775 282.215 95.4045 281.75 95.8594 281.373C96.3128 280.989 96.8611 280.732 97.5043 280.604C98.124 280.48 98.7077 280.501 99.2553 280.669C99.8091 280.828 100.281 281.125 100.67 281.561C101.057 281.989 101.32 282.544 101.456 283.227C101.47 283.298 101.483 283.381 101.494 283.476C101.503 283.564 101.512 283.648 101.52 283.728L96.3778 284.758L96.1634 283.687L100.341 282.851L99.6982 283.31C99.6322 282.98 99.5082 282.707 99.3262 282.491C99.1442 282.274 98.9221 282.123 98.6601 282.037C98.3965 281.943 98.1078 281.927 97.794 281.99C97.4803 282.052 97.2159 282.179 97.001 282.369C96.7924 282.549 96.6465 282.778 96.5634 283.056C96.4787 283.326 96.4701 283.629 96.5377 283.967L96.5942 284.249C96.6633 284.594 96.7991 284.885 97.0015 285.122C97.2102 285.35 97.466 285.506 97.7688 285.593C98.0779 285.67 98.4207 285.67 98.7972 285.595C99.1345 285.527 99.4185 285.418 99.6491 285.265C99.8875 285.111 100.092 284.911 100.263 284.665L101.452 285.529C101.228 285.916 100.914 286.244 100.511 286.512C100.106 286.773 99.6172 286.961 99.0446 287.075ZM106.777 285.527C106.095 285.664 105.46 285.648 104.871 285.48C104.281 285.305 103.784 285.001 103.379 284.568C102.982 284.133 102.721 283.602 102.595 282.974C102.468 282.339 102.505 281.748 102.705 281.202C102.912 280.647 103.255 280.179 103.734 279.797C104.21 279.408 104.79 279.145 105.473 279.008C106.139 278.875 106.748 278.9 107.299 279.083C107.848 279.259 108.292 279.582 108.631 280.053L107.36 281.103C107.136 280.838 106.884 280.66 106.605 280.569C106.333 280.476 106.053 280.459 105.762 280.517C105.449 280.58 105.18 280.707 104.957 280.898C104.735 281.09 104.575 281.33 104.478 281.619C104.388 281.906 104.38 282.234 104.454 282.602C104.528 282.971 104.661 283.271 104.854 283.501C105.055 283.73 105.295 283.89 105.575 283.981C105.854 284.072 106.15 284.086 106.464 284.023C106.754 283.965 107.008 283.845 107.224 283.663C107.447 283.472 107.61 283.207 107.714 282.868L109.293 283.359C109.16 283.916 108.874 284.385 108.436 284.767C107.997 285.14 107.444 285.394 106.777 285.527ZM113.743 284.133C112.998 284.282 112.379 284.21 111.888 283.917C111.396 283.615 111.074 283.088 110.923 282.335L109.811 276.781L111.647 276.414L112.754 281.944C112.807 282.211 112.92 282.405 113.091 282.526C113.26 282.638 113.466 282.671 113.71 282.622C114 282.564 114.231 282.436 114.404 282.238L115.157 283.434C114.996 283.605 114.789 283.752 114.536 283.876C114.29 283.991 114.025 284.076 113.743 284.133ZM109.426 279.93L109.143 278.518L113.532 277.64L113.815 279.052L109.426 279.93ZM116.641 283.455L115.374 277.124L117.209 276.757L118.477 283.087L116.641 283.455ZM116.115 276.058C115.778 276.126 115.483 276.083 115.232 275.929C114.981 275.775 114.827 275.553 114.769 275.263C114.711 274.973 114.768 274.708 114.94 274.47C115.113 274.231 115.368 274.078 115.705 274.011C116.042 273.943 116.336 273.982 116.585 274.128C116.833 274.266 116.986 274.48 117.044 274.771C117.105 275.077 117.051 275.353 116.88 275.599C116.715 275.836 116.46 275.989 116.115 276.058ZM123.603 282.159C122.929 282.294 122.3 282.273 121.718 282.096C121.144 281.917 120.655 281.615 120.252 281.19C119.855 280.755 119.594 280.224 119.468 279.597C119.341 278.961 119.378 278.371 119.578 277.825C119.785 277.269 120.12 276.802 120.583 276.424C121.052 276.037 121.624 275.775 122.299 275.64C122.965 275.507 123.59 275.529 124.172 275.706C124.752 275.875 125.24 276.173 125.636 276.6C126.031 277.026 126.293 277.561 126.422 278.205C126.548 278.832 126.511 279.423 126.312 279.977C126.111 280.523 125.776 280.99 125.307 281.377C124.838 281.765 124.27 282.025 123.603 282.159ZM123.302 280.653C123.608 280.592 123.868 280.466 124.083 280.276C124.298 280.086 124.45 279.848 124.54 279.561C124.627 279.266 124.635 278.938 124.563 278.577C124.489 278.208 124.356 277.909 124.163 277.678C123.97 277.447 123.738 277.286 123.466 277.193C123.195 277.101 122.906 277.085 122.6 277.146C122.294 277.208 122.034 277.333 121.819 277.523C121.604 277.713 121.448 277.952 121.351 278.241C121.261 278.528 121.253 278.856 121.327 279.225C121.399 279.585 121.533 279.885 121.727 280.124C121.928 280.353 122.164 280.513 122.436 280.606C122.707 280.698 122.996 280.714 123.302 280.653ZM131.236 273.851C131.739 273.75 132.206 273.763 132.639 273.888C133.078 274.004 133.453 274.248 133.764 274.618C134.073 274.98 134.292 275.483 134.421 276.126L135.147 279.75L133.311 280.118L132.642 276.776C132.54 276.266 132.351 275.912 132.075 275.715C131.806 275.516 131.468 275.457 131.06 275.538C130.77 275.596 130.52 275.712 130.31 275.884C130.106 276.048 129.962 276.268 129.879 276.546C129.804 276.822 129.805 277.156 129.884 277.548L130.51 280.678L128.675 281.046L127.408 274.715L129.161 274.364L129.512 276.118L129.076 275.654C129.219 275.185 129.479 274.794 129.858 274.482C130.236 274.17 130.695 273.959 131.236 273.851Z" fill="black"/>
<path d="M84.8146 372.509L83.1658 364.272L85.072 363.891L86.4099 370.574L90.5399 369.747L90.8508 371.3L84.8146 372.509ZM95.1868 370.53C94.5122 370.665 93.8838 370.644 93.3017 370.467C92.7275 370.288 92.2387 369.987 91.8354 369.561C91.4384 369.127 91.1771 368.596 91.0514 367.968C90.9242 367.333 90.961 366.742 91.1617 366.196C91.3687 365.641 91.7036 365.174 92.1664 364.796C92.6354 364.408 93.2073 364.147 93.8819 364.012C94.5486 363.878 95.1731 363.9 95.7552 364.077C96.3357 364.247 96.8237 364.545 97.2191 364.971C97.6146 365.398 97.8767 365.933 98.0055 366.576C98.1311 367.204 98.0943 367.794 97.8952 368.348C97.6944 368.894 97.3596 369.361 96.8905 369.749C96.4215 370.136 95.8536 370.397 95.1868 370.53ZM94.8853 369.024C95.1912 368.963 95.4516 368.837 95.6666 368.648C95.8815 368.458 96.0336 368.219 96.123 367.932C96.2108 367.637 96.2186 367.309 96.1463 366.948C96.0725 366.58 95.9391 366.28 95.7461 366.049C95.5531 365.819 95.3209 365.657 95.0494 365.565C94.778 365.472 94.4893 365.457 94.1834 365.518C93.8774 365.579 93.617 365.705 93.4021 365.895C93.1872 366.084 93.0311 366.324 92.9339 366.612C92.8445 366.9 92.8367 367.227 92.9105 367.596C92.9828 367.957 93.1162 368.257 93.3108 368.495C93.5116 368.724 93.7478 368.885 94.0192 368.977C94.2907 369.07 94.5794 369.086 94.8853 369.024ZM103.289 368.908C102.615 369.043 101.986 369.022 101.404 368.845C100.83 368.666 100.341 368.365 99.9379 367.939C99.5409 367.505 99.2796 366.974 99.154 366.346C99.0268 365.711 99.0635 365.12 99.2643 364.574C99.4713 364.019 99.8061 363.552 100.269 363.174C100.738 362.786 101.31 362.525 101.984 362.39C102.651 362.256 103.276 362.278 103.858 362.455C104.438 362.625 104.926 362.923 105.322 363.349C105.717 363.776 105.979 364.311 106.108 364.954C106.234 365.582 106.197 366.172 105.998 366.726C105.797 367.272 105.462 367.739 104.993 368.127C104.524 368.514 103.956 368.775 103.289 368.908ZM102.988 367.402C103.294 367.341 103.554 367.216 103.769 367.026C103.984 366.836 104.136 366.597 104.226 366.31C104.313 366.015 104.321 365.687 104.249 365.326C104.175 364.958 104.042 364.658 103.849 364.427C103.656 364.197 103.423 364.035 103.152 363.943C102.881 363.85 102.592 363.835 102.286 363.896C101.98 363.957 101.72 364.083 101.505 364.273C101.29 364.462 101.134 364.702 101.036 364.99C100.947 365.278 100.939 365.605 101.013 365.974C101.085 366.335 101.219 366.635 101.413 366.873C101.614 367.102 101.85 367.263 102.122 367.355C102.393 367.448 102.682 367.464 102.988 367.402ZM109.62 366.197L109.219 363.952L111.612 360.56L113.8 360.122L111.542 363.573L110.744 364.54L109.62 366.197ZM108.361 367.795L106.613 359.065L108.449 358.697L110.196 367.428L108.361 367.795ZM113.079 366.851L110.405 364.62L111.273 362.966L115.303 366.406L113.079 366.851ZM124.062 364.799C122.894 365.033 121.915 364.89 121.125 364.371C120.336 363.852 119.82 362.988 119.579 361.78L118.655 357.168L120.561 356.786L121.471 361.328C121.628 362.113 121.902 362.645 122.292 362.926C122.683 363.207 123.169 363.289 123.749 363.173C124.33 363.057 124.746 362.794 124.999 362.384C125.251 361.975 125.299 361.378 125.142 360.593L124.233 356.051L126.115 355.675L127.039 360.287C127.28 361.495 127.137 362.491 126.608 363.274C126.08 364.057 125.231 364.565 124.062 364.799ZM133.671 362.827C133.138 362.933 132.647 362.909 132.2 362.754C131.753 362.599 131.368 362.304 131.045 361.871C130.728 361.429 130.495 360.839 130.348 360.102C130.199 359.357 130.182 358.724 130.298 358.203C130.414 357.682 130.648 357.264 131.001 356.948C131.354 356.633 131.809 356.419 132.366 356.308C132.962 356.188 133.523 356.219 134.049 356.399C134.581 356.57 135.033 356.871 135.405 357.303C135.784 357.733 136.04 358.277 136.172 358.936C136.306 359.603 136.28 360.208 136.095 360.75C135.918 361.292 135.616 361.744 135.191 362.106C134.774 362.467 134.267 362.707 133.671 362.827ZM130.368 365.764L128.643 357.151L130.397 356.8L130.656 358.094L130.997 359.984L131.489 361.831L132.203 365.397L130.368 365.764ZM133.052 361.384C133.358 361.323 133.614 361.198 133.821 361.01C134.036 360.82 134.189 360.581 134.278 360.294C134.374 359.998 134.385 359.669 134.313 359.308C134.239 358.939 134.102 358.641 133.901 358.411C133.708 358.181 133.476 358.019 133.204 357.927C132.941 357.833 132.656 357.816 132.35 357.878C132.044 357.939 131.784 358.064 131.569 358.254C131.354 358.444 131.202 358.683 131.112 358.97C131.023 359.257 131.015 359.585 131.089 359.953C131.161 360.314 131.295 360.614 131.489 360.852C131.682 361.083 131.914 361.245 132.186 361.337C132.457 361.43 132.746 361.445 133.052 361.384ZM137.984 358.891L136.543 353.587L138.731 353.149L139.443 358.599L137.984 358.891ZM139.305 361.699C138.975 361.765 138.683 361.713 138.429 361.544C138.175 361.374 138.019 361.144 137.961 360.854C137.901 360.556 137.957 360.288 138.13 360.049C138.301 359.803 138.551 359.647 138.881 359.581C139.218 359.513 139.509 359.561 139.754 359.724C140.005 359.878 140.16 360.104 140.22 360.402C140.278 360.692 140.222 360.964 140.053 361.219C139.891 361.471 139.642 361.631 139.305 361.699Z" fill="black"/>
<path d="M1.69504 244.407C0.838986 240.13 3.61169 235.97 7.88804 235.114L157.586 205.147C161.863 204.291 166.023 207.063 166.879 211.34V211.34L1.69504 244.407V244.407Z" fill="#FE2D01"/>
<rect x="71.3076" y="393.685" width="90.0216" height="23.1635" rx="11.5817" transform="rotate(-11.32 71.3076 393.685)" fill="#FE2D01"/>
<path d="M89.4151 404.931L88.3159 399.44L89.1004 399.283L90.1996 404.774L89.4151 404.931ZM96.6172 403.49L96.4414 402.611L96.3692 402.454L96.0692 400.956C96.0054 400.637 95.862 400.41 95.6392 400.275C95.4206 400.134 95.1256 400.1 94.7543 400.175C94.5086 400.224 94.2764 400.314 94.0578 400.445C93.8382 400.57 93.6609 400.717 93.526 400.886L93.0992 400.384C93.279 400.168 93.5091 399.986 93.7894 399.838C94.0739 399.683 94.3808 399.572 94.7103 399.506C95.2803 399.392 95.7473 399.443 96.1114 399.658C96.4754 399.874 96.7145 400.266 96.8286 400.836L97.3311 403.347L96.6172 403.49ZM95.2617 403.81C94.9532 403.872 94.6708 403.874 94.4145 403.816C94.1635 403.758 93.9569 403.65 93.7947 403.492C93.6315 403.328 93.5264 403.129 93.4793 402.894C93.4343 402.669 93.4457 402.455 93.5137 402.251C93.5869 402.046 93.7327 401.864 93.9513 401.706C94.1751 401.547 94.4936 401.426 94.9067 401.344L96.2246 401.08L96.3329 401.621L95.0465 401.879C94.6699 401.954 94.4289 402.067 94.3232 402.219C94.2176 402.371 94.1826 402.536 94.2182 402.713C94.259 402.917 94.3731 403.066 94.5603 403.159C94.7465 403.247 94.9834 403.262 95.2711 403.204C95.5535 403.148 95.7867 403.036 95.9707 402.868C96.16 402.7 96.2777 402.486 96.3236 402.227L96.5763 402.715C96.5262 402.98 96.3902 403.211 96.1685 403.408C95.9458 403.6 95.6435 403.733 95.2617 403.81ZM100.644 402.732C100.221 402.817 99.8231 402.802 99.4518 402.686C99.0857 402.568 98.7766 402.369 98.5245 402.088C98.2723 401.807 98.1049 401.459 98.0222 401.046C97.9395 400.633 97.9604 400.248 98.0848 399.892C98.2092 399.535 98.4183 399.235 98.7122 398.991C99.0103 398.741 99.3711 398.573 99.7947 398.489C100.171 398.413 100.521 398.422 100.844 398.515C101.172 398.602 101.446 398.775 101.667 399.036L101.168 399.519C100.991 399.342 100.794 399.227 100.576 399.173C100.363 399.112 100.144 399.104 99.9187 399.149C99.6468 399.204 99.4157 399.312 99.2253 399.476C99.035 399.639 98.8991 399.843 98.8175 400.088C98.7349 400.327 98.7235 400.596 98.7831 400.894C98.8428 401.192 98.9574 401.438 99.1269 401.633C99.2963 401.827 99.5003 401.963 99.7388 402.041C99.9773 402.118 100.233 402.129 100.504 402.075C100.729 402.03 100.929 401.941 101.104 401.808C101.283 401.669 101.42 401.484 101.515 401.253L102.16 401.499C102.055 401.819 101.869 402.087 101.603 402.304C101.34 402.514 101.021 402.657 100.644 402.732ZM103.759 401.016L103.582 400.048L105.536 397.38L106.446 397.198L104.972 399.369L104.633 399.796L103.759 401.016ZM103.349 402.142L102.183 396.322L102.936 396.171L104.102 401.991L103.349 402.142ZM106.526 401.506L104.489 399.809L104.854 399.108L107.451 401.321L106.526 401.506ZM109.607 396.524C109.947 396.456 110.258 396.462 110.54 396.542C110.828 396.62 111.072 396.778 111.271 397.015C111.471 397.253 111.612 397.575 111.694 397.983L112.173 400.376L111.419 400.526L110.958 398.22C110.877 397.818 110.717 397.534 110.478 397.37C110.243 397.205 109.948 397.158 109.593 397.229C109.326 397.282 109.104 397.381 108.926 397.526C108.748 397.67 108.625 397.855 108.556 398.081C108.492 398.306 108.49 398.57 108.551 398.873L108.98 401.015L108.227 401.166L107.395 397.008L108.116 396.864L108.341 397.985L108.163 397.711C108.245 397.412 108.412 397.158 108.664 396.95C108.916 396.742 109.23 396.6 109.607 396.524ZM115.454 399.768C115.036 399.851 114.646 399.834 114.285 399.716C113.925 399.598 113.618 399.398 113.366 399.117C113.113 398.83 112.945 398.483 112.864 398.075C112.781 397.662 112.802 397.277 112.926 396.921C113.051 396.564 113.257 396.264 113.546 396.021C113.833 395.773 114.186 395.608 114.605 395.524C115.018 395.441 115.405 395.459 115.766 395.577C116.131 395.689 116.437 395.886 116.684 396.168C116.935 396.444 117.102 396.792 117.186 397.21C117.269 397.623 117.248 398.008 117.123 398.365C117.004 398.72 116.798 399.023 116.505 399.272C116.218 399.52 115.867 399.685 115.454 399.768ZM115.322 399.109C115.589 399.055 115.815 398.948 116 398.785C116.19 398.622 116.324 398.419 116.4 398.175C116.475 397.926 116.484 397.655 116.425 397.362C116.365 397.064 116.254 396.82 116.091 396.63C115.927 396.434 115.725 396.298 115.487 396.22C115.253 396.142 115.003 396.129 114.737 396.183C114.47 396.236 114.244 396.344 114.059 396.506C113.874 396.668 113.741 396.872 113.659 397.116C113.576 397.356 113.565 397.625 113.625 397.923C113.683 398.216 113.798 398.462 113.968 398.662C114.138 398.856 114.339 398.993 114.572 399.071C114.806 399.15 115.056 399.162 115.322 399.109ZM119.505 398.908L117.128 395.06L117.842 394.917L119.968 398.407L119.631 398.475L120.305 394.424L120.94 394.296L123.09 397.782L122.761 397.848L123.411 393.802L124.086 393.667L123.365 398.135L122.643 398.28L120.645 395.106L120.865 395.062L120.227 398.763L119.505 398.908ZM125.78 397.652L124.615 391.831L125.368 391.68L126.533 397.501L125.78 397.652ZM129.93 396.87C129.485 396.959 129.075 396.946 128.698 396.831C128.327 396.715 128.015 396.516 127.763 396.235C127.516 395.953 127.351 395.605 127.269 395.192C127.186 394.779 127.201 394.395 127.315 394.04C127.435 393.684 127.633 393.386 127.911 393.146C128.194 392.899 128.534 392.736 128.931 392.656C129.334 392.575 129.707 392.593 130.051 392.709C130.396 392.825 130.686 393.028 130.924 393.318C131.165 393.601 131.329 393.957 131.415 394.386C131.421 394.417 131.426 394.455 131.429 394.497C131.438 394.539 131.443 394.579 131.445 394.617L127.907 395.325L127.799 394.784L130.944 394.154L130.676 394.403C130.628 394.136 130.525 393.909 130.369 393.723C130.212 393.536 130.02 393.406 129.793 393.332C129.57 393.252 129.325 393.238 129.058 393.291C128.797 393.344 128.576 393.45 128.396 393.612C128.215 393.767 128.089 393.964 128.017 394.202C127.944 394.434 127.934 394.686 127.989 394.958L128.014 395.083C128.069 395.36 128.182 395.596 128.351 395.791C128.525 395.979 128.739 396.11 128.993 396.184C129.247 396.259 129.523 396.266 129.821 396.206C130.067 396.157 130.281 396.071 130.463 395.947C130.65 395.823 130.803 395.662 130.921 395.464L131.434 395.867C131.29 396.124 131.088 396.339 130.829 396.51C130.575 396.681 130.275 396.801 129.93 396.87ZM134.698 395.915C134.295 395.996 133.916 395.979 133.562 395.865C133.212 395.75 132.914 395.552 132.667 395.269C132.42 394.987 132.255 394.634 132.17 394.211C132.085 393.787 132.103 393.4 132.223 393.049C132.342 392.694 132.541 392.396 132.819 392.155C133.102 391.913 133.445 391.752 133.848 391.672C134.198 391.602 134.531 391.617 134.844 391.717C135.158 391.817 135.43 392.008 135.66 392.288C135.896 392.567 136.06 392.942 136.155 393.413C136.249 393.883 136.244 394.292 136.139 394.64C136.04 394.986 135.865 395.268 135.615 395.487C135.364 395.7 135.058 395.843 134.698 395.915ZM134.628 395.244C134.89 395.192 135.113 395.084 135.298 394.922C135.489 394.759 135.622 394.556 135.698 394.312C135.779 394.062 135.79 393.79 135.731 393.498C135.671 393.2 135.557 392.956 135.389 392.767C135.225 392.571 135.023 392.435 134.785 392.357C134.552 392.279 134.304 392.266 134.043 392.318C133.776 392.371 133.55 392.479 133.365 392.641C133.18 392.804 133.047 393.007 132.965 393.252C132.882 393.491 132.871 393.76 132.931 394.058C132.989 394.351 133.104 394.597 133.274 394.797C133.444 394.992 133.645 395.128 133.878 395.206C134.112 395.285 134.362 395.297 134.628 395.244ZM136.171 395.572L135.946 394.45L135.8 393.476L135.529 392.526L134.974 389.757L135.727 389.607L136.892 395.427L136.171 395.572ZM140.549 396.327C140.168 396.403 139.785 396.423 139.402 396.385C139.026 396.352 138.705 396.258 138.441 396.104L138.685 395.452C138.912 395.58 139.176 395.663 139.478 395.701C139.78 395.744 140.085 395.734 140.394 395.673C140.885 395.574 141.223 395.387 141.407 395.111C141.591 394.835 141.636 394.461 141.542 393.991L141.366 393.112L141.28 392.273L141.074 391.449L140.846 390.312L141.56 390.169L142.279 393.761C142.426 394.494 142.351 395.069 142.054 395.487C141.757 395.906 141.255 396.186 140.549 396.327ZM140.107 394.604C139.704 394.685 139.326 394.673 138.974 394.57C138.625 394.46 138.327 394.272 138.078 394.007C137.834 393.74 137.672 393.408 137.593 393.011C137.512 392.608 137.534 392.239 137.657 391.905C137.785 391.564 137.988 391.278 138.269 391.048C138.554 390.817 138.898 390.661 139.301 390.58C139.657 390.509 139.996 390.517 140.318 390.605C140.639 390.688 140.915 390.861 141.148 391.124C141.385 391.387 141.549 391.745 141.641 392.2C141.731 392.65 141.717 393.042 141.598 393.376C141.486 393.708 141.298 393.98 141.035 394.19C140.772 394.395 140.462 394.533 140.107 394.604ZM140.061 393.928C140.338 393.873 140.572 393.766 140.764 393.608C140.955 393.45 141.091 393.257 141.17 393.029C141.255 392.8 141.27 392.552 141.217 392.285C141.164 392.018 141.054 391.796 140.887 391.617C140.726 391.437 140.528 391.314 140.291 391.247C140.054 391.175 139.796 391.166 139.519 391.222C139.242 391.277 139.005 391.384 138.809 391.544C138.616 391.696 138.478 391.887 138.393 392.116C138.313 392.344 138.3 392.592 138.354 392.858C138.407 393.125 138.514 393.348 138.676 393.528C138.842 393.707 139.044 393.833 139.281 393.905C139.524 393.976 139.784 393.984 140.061 393.928ZM145.79 393.695C145.346 393.784 144.935 393.771 144.558 393.656C144.187 393.54 143.875 393.341 143.623 393.06C143.376 392.778 143.212 392.43 143.129 392.017C143.046 391.604 143.062 391.22 143.176 390.865C143.295 390.509 143.494 390.211 143.772 389.971C144.054 389.724 144.394 389.561 144.792 389.481C145.194 389.4 145.568 389.418 145.912 389.534C146.256 389.65 146.547 389.853 146.784 390.143C147.026 390.426 147.19 390.782 147.275 391.211C147.282 391.242 147.286 391.28 147.29 391.322C147.298 391.364 147.303 391.404 147.305 391.442L143.767 392.15L143.659 391.609L146.805 390.979L146.536 391.228C146.488 390.961 146.386 390.734 146.229 390.548C146.072 390.361 145.88 390.231 145.653 390.157C145.43 390.077 145.185 390.063 144.919 390.116C144.657 390.169 144.437 390.275 144.257 390.437C144.076 390.592 143.949 390.789 143.877 391.027C143.804 391.259 143.795 391.511 143.849 391.783L143.874 391.908C143.93 392.185 144.042 392.421 144.212 392.616C144.385 392.804 144.599 392.935 144.853 393.01C145.107 393.084 145.384 393.091 145.682 393.031C145.928 392.982 146.141 392.896 146.323 392.772C146.511 392.648 146.663 392.487 146.781 392.289L147.295 392.692C147.15 392.949 146.948 393.164 146.689 393.336C146.435 393.506 146.135 393.626 145.79 393.695Z" fill="#FCFCFC"/>
</g>
<g filter="url(#filter1_d_1121_5961)">
<rect x="264.045" y="44.6815" width="108.12" height="233.92" rx="10" transform="rotate(9.5 264.045 44.6815)" fill="#FE5734"/>
</g>
<path d="M266.619 114.058L270.851 107.669L272.429 107.933L274.361 115.353L272.684 115.073L271.179 108.555L271.811 108.661L268.256 114.332L266.619 114.058ZM268.405 112.836L269.032 111.694L272.582 112.288L272.813 113.573L268.405 112.836ZM275.077 115.473L276.233 108.569L279.221 109.069C279.839 109.173 280.355 109.364 280.768 109.642C281.182 109.914 281.479 110.258 281.66 110.674C281.84 111.089 281.887 111.557 281.8 112.076C281.714 112.589 281.518 113.013 281.212 113.347C280.906 113.681 280.513 113.912 280.031 114.041C279.551 114.164 279.002 114.173 278.384 114.07L276.283 113.718L277.114 113.117L276.675 115.741L275.077 115.473ZM277.084 113.295L276.501 112.416L278.513 112.753C279.006 112.836 279.392 112.792 279.671 112.622C279.949 112.453 280.12 112.18 280.183 111.806C280.246 111.424 280.174 111.108 279.966 110.857C279.758 110.606 279.407 110.439 278.914 110.356L276.902 110.02L277.74 109.379L277.084 113.295ZM282.205 116.666L283.36 109.762L286.348 110.262C286.966 110.365 287.482 110.556 287.895 110.835C288.309 111.107 288.606 111.451 288.787 111.866C288.968 112.282 289.014 112.749 288.927 113.269C288.842 113.782 288.646 114.205 288.34 114.539C288.034 114.873 287.64 115.105 287.159 115.234C286.679 115.356 286.13 115.366 285.512 115.262L283.411 114.911L284.241 114.31L283.802 116.933L282.205 116.666ZM284.212 114.487L283.629 113.609L285.641 113.946C286.134 114.028 286.52 113.985 286.798 113.815C287.077 113.645 287.247 113.373 287.31 112.998C287.374 112.617 287.302 112.301 287.094 112.05C286.886 111.798 286.535 111.632 286.042 111.549L284.03 111.212L284.867 110.572L284.212 114.487ZM289.332 117.859L290.487 110.955L293.476 111.455C294.094 111.558 294.609 111.749 295.022 112.028C295.437 112.3 295.734 112.644 295.914 113.059C296.095 113.475 296.142 113.942 296.055 114.462C295.969 114.975 295.773 115.398 295.467 115.732C295.162 116.06 294.77 116.285 294.29 116.407C293.81 116.529 293.26 116.539 292.642 116.435L290.542 116.084L291.369 115.502L290.93 118.126L289.332 117.859ZM293.721 118.593L292.414 115.799L294.121 116.085L295.447 118.882L293.721 118.593ZM291.339 115.68L290.754 114.812L292.767 115.148C293.26 115.231 293.645 115.187 293.924 115.018C294.204 114.841 294.375 114.566 294.437 114.191C294.501 113.81 294.429 113.493 294.221 113.242C294.013 112.991 293.662 112.824 293.169 112.742L291.157 112.405L291.994 111.764L291.339 115.68ZM299.918 119.752C299.373 119.66 298.881 119.487 298.444 119.231C298.013 118.977 297.654 118.66 297.366 118.28C297.085 117.902 296.885 117.48 296.767 117.014C296.655 116.549 296.643 116.061 296.728 115.548C296.814 115.035 296.986 114.577 297.242 114.174C297.506 113.772 297.835 113.438 298.231 113.173C298.627 112.908 299.07 112.725 299.56 112.625C300.05 112.524 300.564 112.519 301.103 112.609C301.649 112.701 302.134 112.873 302.558 113.127C302.989 113.381 303.345 113.698 303.626 114.076C303.914 114.455 304.117 114.878 304.235 115.344C304.354 115.803 304.37 116.293 304.283 116.812C304.198 117.325 304.022 117.786 303.758 118.194C303.495 118.596 303.165 118.93 302.769 119.195C302.381 119.454 301.942 119.634 301.452 119.735C300.969 119.836 300.457 119.842 299.918 119.752ZM300.136 118.389C300.445 118.441 300.737 118.436 301.011 118.373C301.291 118.312 301.547 118.199 301.777 118.035C302.007 117.871 302.198 117.663 302.348 117.411C302.505 117.16 302.611 116.87 302.666 116.541C302.721 116.213 302.715 115.904 302.648 115.616C302.588 115.329 302.476 115.07 302.312 114.84C302.154 114.61 301.953 114.421 301.707 114.272C301.462 114.123 301.185 114.022 300.876 113.971C300.567 113.919 300.272 113.924 299.991 113.985C299.717 114.047 299.465 114.16 299.235 114.325C299.004 114.489 298.811 114.696 298.654 114.947C298.504 115.199 298.401 115.49 298.346 115.818C298.292 116.141 298.295 116.449 298.354 116.742C298.42 117.031 298.532 117.289 298.69 117.518C298.854 117.749 299.059 117.938 299.305 118.088C299.55 118.237 299.827 118.337 300.136 118.389ZM303.903 120.297L308.135 113.908L309.713 114.172L311.645 121.593L309.968 121.312L308.464 114.794L309.095 114.9L305.54 120.571L303.903 120.297ZM305.689 119.075L306.316 117.933L309.867 118.527L310.098 119.813L305.689 119.075ZM315.549 122.368C315.017 122.278 314.535 122.11 314.103 121.862C313.679 121.608 313.326 121.293 313.045 120.914C312.763 120.536 312.564 120.114 312.446 119.648C312.334 119.183 312.322 118.691 312.409 118.172C312.496 117.652 312.668 117.191 312.924 116.788C313.188 116.386 313.514 116.052 313.903 115.786C314.299 115.521 314.738 115.341 315.22 115.246C315.704 115.144 316.215 115.138 316.754 115.229C317.353 115.329 317.874 115.524 318.319 115.815C318.771 116.1 319.128 116.471 319.39 116.927L318.206 117.702C318.014 117.393 317.785 117.148 317.518 116.968C317.251 116.782 316.947 116.66 316.605 116.603C316.283 116.549 315.978 116.552 315.691 116.612C315.404 116.672 315.145 116.784 314.915 116.949C314.685 117.113 314.491 117.32 314.334 117.571C314.184 117.823 314.081 118.114 314.026 118.442C313.971 118.771 313.974 119.079 314.034 119.366C314.101 119.655 314.216 119.914 314.38 120.144C314.545 120.374 314.753 120.565 315.005 120.715C315.257 120.865 315.544 120.967 315.866 121.021C316.208 121.079 316.534 121.066 316.846 120.983C317.158 120.893 317.456 120.73 317.739 120.493L318.606 121.612C318.21 121.958 317.751 122.195 317.23 122.324C316.714 122.454 316.154 122.469 315.549 122.368ZM325.388 116.795L326.986 117.062L325.831 123.966L324.233 123.699L325.388 116.795ZM321.096 123.174L319.499 122.907L320.654 116.003L322.252 116.27L321.096 123.174ZM324.825 120.888L321.452 120.324L321.678 118.972L325.051 119.537L324.825 120.888ZM327.464 124.24L328.619 117.336L330.217 117.603L329.062 124.507L327.464 124.24ZM330.7 124.781L331.856 117.877L333.177 118.098L336.419 123.751L335.778 123.644L336.609 118.673L338.188 118.937L337.032 125.841L335.72 125.621L332.469 119.967L333.11 120.074L332.278 125.045L330.7 124.781ZM341.979 126.79C341.434 126.699 340.945 126.529 340.513 126.281C340.089 126.028 339.733 125.712 339.445 125.332C339.164 124.954 338.964 124.532 338.846 124.066C338.735 123.601 338.722 123.109 338.809 122.59C338.896 122.07 339.068 121.609 339.325 121.206C339.588 120.804 339.918 120.47 340.314 120.205C340.709 119.94 341.152 119.761 341.641 119.667C342.131 119.566 342.652 119.562 343.204 119.655C343.815 119.757 344.347 119.951 344.8 120.236C345.259 120.522 345.624 120.888 345.894 121.332L344.71 122.107C344.504 121.802 344.264 121.562 343.989 121.388C343.715 121.207 343.404 121.087 343.055 121.029C342.72 120.973 342.405 120.974 342.111 121.033C341.818 121.092 341.552 121.203 341.316 121.366C341.085 121.531 340.892 121.738 340.735 121.989C340.585 122.241 340.482 122.532 340.427 122.86C340.373 123.182 340.376 123.487 340.436 123.774C340.503 124.063 340.618 124.325 340.781 124.562C340.952 124.793 341.163 124.984 341.415 125.135C341.674 125.286 341.967 125.389 342.296 125.444C342.612 125.497 342.926 125.499 343.238 125.45C343.558 125.395 343.88 125.27 344.203 125.074L344.918 126.38C344.495 126.6 344.022 126.744 343.497 126.811C342.978 126.88 342.473 126.873 341.979 126.79ZM343.493 125.928L343.927 123.334L345.386 123.579L344.918 126.38L343.493 125.928Z" fill="#F9FAFB"/>
<path d="M265.818 130.216L266.973 123.312L268.571 123.58L267.415 130.484L265.818 130.216ZM269.054 130.758L270.209 123.854L271.531 124.075L274.772 129.727L274.131 129.62L274.963 124.649L276.541 124.913L275.386 131.817L274.074 131.598L270.823 125.944L271.464 126.051L270.632 131.022L269.054 130.758ZM278.449 132.33L279.387 126.728L277.177 126.358L277.395 125.056L283.412 126.063L283.194 127.365L280.985 126.995L280.047 132.597L278.449 132.33ZM285.276 129.234L288.599 129.79L288.391 131.033L285.068 130.477L285.276 129.234ZM284.919 132.095L288.676 132.723L288.462 134.006L283.116 133.111L284.271 126.207L289.489 127.08L289.274 128.362L285.645 127.755L284.919 132.095ZM289.733 134.218L290.888 127.314L293.877 127.814C294.495 127.918 295.01 128.109 295.423 128.388C295.838 128.66 296.135 129.003 296.315 129.419C296.496 129.834 296.543 130.302 296.456 130.821C296.37 131.334 296.174 131.758 295.868 132.092C295.563 132.419 295.171 132.644 294.691 132.767C294.21 132.889 293.661 132.899 293.043 132.795L290.943 132.444L291.77 131.862L291.331 134.486L289.733 134.218ZM294.122 134.953L292.815 132.159L294.521 132.444L295.848 135.242L294.122 134.953ZM291.74 132.04L291.155 131.171L293.167 131.508C293.661 131.59 294.046 131.547 294.325 131.377C294.605 131.201 294.776 130.925 294.838 130.551C294.902 130.169 294.83 129.853 294.622 129.602C294.414 129.351 294.063 129.184 293.57 129.101L291.558 128.765L292.395 128.124L291.74 132.04ZM299.234 135.93C298.682 135.838 298.165 135.677 297.683 135.447C297.202 135.211 296.827 134.949 296.557 134.661L297.301 133.548C297.562 133.808 297.881 134.041 298.259 134.246C298.645 134.446 299.045 134.58 299.459 134.649C299.774 134.702 300.032 134.715 300.233 134.688C300.441 134.655 300.601 134.59 300.712 134.494C300.822 134.398 300.89 134.277 300.914 134.133C300.945 133.948 300.897 133.792 300.77 133.662C300.644 133.526 300.468 133.406 300.242 133.3C300.018 133.188 299.766 133.079 299.486 132.971C299.214 132.858 298.942 132.731 298.668 132.591C298.4 132.451 298.16 132.289 297.948 132.105C297.735 131.921 297.573 131.698 297.462 131.436C297.357 131.175 297.335 130.86 297.397 130.492C297.463 130.098 297.628 129.757 297.892 129.47C298.164 129.177 298.53 128.972 298.989 128.852C299.456 128.728 300.015 128.72 300.666 128.829C301.1 128.901 301.519 129.026 301.922 129.201C302.326 129.37 302.672 129.584 302.96 129.841L302.264 130.972C301.973 130.734 301.673 130.545 301.365 130.406C301.059 130.26 300.751 130.161 300.442 130.109C300.133 130.058 299.873 130.051 299.664 130.091C299.455 130.13 299.297 130.202 299.192 130.306C299.088 130.403 299.023 130.528 298.998 130.679C298.968 130.856 299.016 131.013 299.142 131.149C299.269 131.279 299.446 131.396 299.671 131.501C299.897 131.607 300.146 131.716 300.417 131.829C300.696 131.943 300.969 132.067 301.238 132.199C301.513 132.333 301.756 132.492 301.969 132.677C302.181 132.861 302.34 133.083 302.445 133.344C302.557 133.606 302.582 133.918 302.522 134.28C302.457 134.668 302.289 135.005 302.018 135.291C301.747 135.576 301.378 135.782 300.911 135.906C300.451 136.032 299.892 136.04 299.234 135.93ZM305.435 132.608L308.758 133.164L308.55 134.407L305.227 133.85L305.435 132.608ZM305.078 135.468L308.835 136.097L308.621 137.379L303.275 136.484L304.431 129.58L309.648 130.454L309.433 131.736L305.804 131.128L305.078 135.468ZM313.176 138.263C312.644 138.174 312.162 138.005 311.73 137.757C311.306 137.504 310.953 137.188 310.672 136.81C310.391 136.431 310.191 136.009 310.073 135.543C309.961 135.079 309.949 134.587 310.036 134.067C310.123 133.548 310.295 133.086 310.551 132.683C310.815 132.281 311.141 131.947 311.53 131.681C311.926 131.416 312.365 131.236 312.847 131.141C313.331 131.039 313.842 131.034 314.381 131.124C314.98 131.224 315.501 131.42 315.946 131.71C316.398 131.996 316.755 132.366 317.017 132.822L315.833 133.597C315.641 133.288 315.412 133.044 315.145 132.864C314.878 132.677 314.574 132.555 314.232 132.498C313.91 132.444 313.605 132.447 313.318 132.508C313.031 132.568 312.772 132.68 312.542 132.844C312.312 133.008 312.118 133.216 311.961 133.467C311.811 133.719 311.708 134.009 311.653 134.338C311.598 134.667 311.601 134.975 311.661 135.262C311.728 135.55 311.843 135.809 312.007 136.04C312.172 136.27 312.38 136.46 312.632 136.61C312.884 136.761 313.171 136.863 313.493 136.917C313.835 136.974 314.161 136.961 314.473 136.878C314.785 136.788 315.083 136.625 315.366 136.389L316.233 137.507C315.837 137.853 315.378 138.091 314.857 138.22C314.341 138.35 313.781 138.364 313.176 138.263ZM318.488 139.03L319.426 133.428L317.216 133.058L317.434 131.757L323.451 132.763L323.233 134.065L321.024 133.696L320.086 139.298L318.488 139.03ZM323.155 139.811L324.31 132.907L325.908 133.175L324.753 140.079L323.155 139.811ZM329.725 141.032C329.179 140.941 328.688 140.767 328.251 140.512C327.82 140.257 327.461 139.94 327.173 139.561C326.891 139.183 326.692 138.76 326.573 138.295C326.462 137.83 326.449 137.341 326.535 136.828C326.621 136.315 326.792 135.857 327.049 135.454C327.312 135.052 327.642 134.719 328.037 134.454C328.433 134.189 328.876 134.006 329.366 133.905C329.856 133.805 330.371 133.8 330.91 133.89C331.456 133.981 331.941 134.154 332.364 134.407C332.795 134.662 333.151 134.978 333.432 135.356C333.72 135.736 333.923 136.158 334.042 136.624C334.161 137.084 334.177 137.573 334.09 138.092C334.004 138.605 333.829 139.066 333.565 139.475C333.301 139.877 332.972 140.21 332.576 140.475C332.188 140.735 331.749 140.915 331.259 141.015C330.775 141.117 330.264 141.123 329.725 141.032ZM329.943 139.67C330.252 139.721 330.543 139.716 330.817 139.654C331.098 139.593 331.353 139.48 331.584 139.316C331.814 139.151 332.004 138.943 332.155 138.691C332.311 138.44 332.417 138.15 332.472 137.822C332.527 137.493 332.522 137.184 332.455 136.896C332.395 136.609 332.283 136.35 332.118 136.12C331.961 135.891 331.759 135.702 331.514 135.552C331.268 135.403 330.991 135.303 330.682 135.251C330.373 135.199 330.078 135.204 329.798 135.265C329.524 135.328 329.271 135.441 329.041 135.605C328.811 135.769 328.617 135.977 328.46 136.228C328.31 136.48 328.207 136.77 328.152 137.099C328.099 137.421 328.101 137.729 328.16 138.023C328.227 138.311 328.339 138.57 328.497 138.799C328.661 139.029 328.866 139.219 329.111 139.368C329.356 139.517 329.634 139.618 329.943 139.67ZM334.713 141.745L335.868 134.841L337.19 135.063L340.432 140.715L339.79 140.608L340.622 135.637L342.2 135.901L341.045 142.805L339.733 142.585L336.482 136.931L337.123 137.039L336.291 142.009L334.713 141.745Z" fill="#F9FAFB"/>
<path d="M269.019 198.024L270.174 191.12L271.772 191.388L270.834 196.99L274.296 197.569L274.078 198.871L269.019 198.024ZM278.189 199.681C277.643 199.589 277.152 199.416 276.715 199.16C276.284 198.906 275.925 198.589 275.637 198.209C275.355 197.831 275.156 197.409 275.038 196.943C274.926 196.478 274.913 195.989 274.999 195.476C275.085 194.964 275.256 194.506 275.513 194.102C275.776 193.7 276.106 193.367 276.502 193.102C276.897 192.837 277.34 192.654 277.83 192.554C278.32 192.453 278.835 192.448 279.374 192.538C279.92 192.63 280.405 192.802 280.829 193.055C281.259 193.31 281.615 193.626 281.897 194.005C282.185 194.384 282.388 194.807 282.506 195.273C282.625 195.732 282.641 196.221 282.554 196.741C282.468 197.254 282.293 197.714 282.029 198.123C281.765 198.525 281.436 198.859 281.04 199.124C280.652 199.383 280.213 199.563 279.723 199.664C279.239 199.765 278.728 199.771 278.189 199.681ZM278.407 198.318C278.716 198.37 279.007 198.364 279.281 198.302C279.562 198.241 279.818 198.128 280.048 197.964C280.278 197.8 280.468 197.591 280.619 197.34C280.776 197.089 280.881 196.799 280.937 196.47C280.992 196.141 280.986 195.833 280.919 195.544C280.859 195.257 280.747 194.999 280.583 194.768C280.425 194.539 280.223 194.35 279.978 194.201C279.733 194.051 279.455 193.951 279.146 193.899C278.837 193.848 278.542 193.852 278.262 193.914C277.988 193.976 277.736 194.089 277.505 194.253C277.275 194.418 277.081 194.625 276.925 194.876C276.774 195.128 276.672 195.418 276.617 195.747C276.563 196.069 276.565 196.377 276.624 196.671C276.691 196.959 276.803 197.218 276.961 197.447C277.125 197.678 277.33 197.867 277.575 198.016C277.821 198.166 278.098 198.266 278.407 198.318ZM286.511 201.073C285.965 200.982 285.474 200.808 285.036 200.553C284.606 200.298 284.247 199.981 283.959 199.602C283.677 199.223 283.477 198.801 283.359 198.336C283.248 197.871 283.235 197.382 283.321 196.869C283.407 196.356 283.578 195.898 283.835 195.495C284.098 195.093 284.428 194.759 284.823 194.494C285.219 194.23 285.662 194.047 286.152 193.946C286.642 193.846 287.157 193.841 287.696 193.931C288.242 194.022 288.726 194.195 289.15 194.448C289.581 194.703 289.937 195.019 290.218 195.397C290.506 195.777 290.709 196.199 290.827 196.665C290.947 197.125 290.963 197.614 290.876 198.133C290.79 198.646 290.615 199.107 290.35 199.516C290.087 199.918 289.758 200.251 289.362 200.516C288.974 200.776 288.535 200.956 288.045 201.056C287.561 201.158 287.05 201.163 286.511 201.073ZM286.729 199.71C287.038 199.762 287.329 199.757 287.603 199.695C287.884 199.633 288.139 199.521 288.37 199.356C288.6 199.192 288.79 198.984 288.94 198.732C289.097 198.481 289.203 198.191 289.258 197.863C289.313 197.534 289.307 197.225 289.241 196.937C289.181 196.65 289.069 196.391 288.904 196.161C288.747 195.932 288.545 195.743 288.3 195.593C288.054 195.444 287.777 195.344 287.468 195.292C287.159 195.24 286.864 195.245 286.584 195.306C286.31 195.368 286.057 195.482 285.827 195.646C285.597 195.81 285.403 196.018 285.246 196.269C285.096 196.521 284.993 196.811 284.938 197.14C284.884 197.462 284.887 197.77 284.946 198.064C285.013 198.352 285.125 198.611 285.282 198.84C285.447 199.07 285.652 199.26 285.897 199.409C286.142 199.558 286.42 199.659 286.729 199.71ZM293.193 200.448L293.413 198.588L297.3 195.66L299.075 195.957L295.56 198.664L294.514 199.462L293.193 200.448ZM291.499 201.786L292.654 194.882L294.242 195.148L293.087 202.052L291.499 201.786ZM296.223 202.577L294.271 199.158L295.506 198.198L298.087 202.889L296.223 202.577ZM304.64 204.107C303.661 203.943 302.94 203.542 302.479 202.904C302.018 202.266 301.873 201.44 302.042 200.428L302.689 196.562L304.287 196.829L303.65 200.636C303.54 201.293 303.595 201.789 303.817 202.124C304.038 202.458 304.392 202.666 304.878 202.748C305.365 202.829 305.767 202.748 306.085 202.503C306.403 202.259 306.617 201.808 306.727 201.151L307.364 197.344L308.942 197.608L308.295 201.474C308.126 202.487 307.719 203.22 307.076 203.673C306.432 204.126 305.62 204.271 304.64 204.107ZM309.366 204.776L310.521 197.872L313.51 198.372C314.128 198.476 314.643 198.667 315.056 198.945C315.47 199.217 315.768 199.561 315.948 199.977C316.129 200.392 316.176 200.86 316.089 201.379C316.003 201.892 315.807 202.315 315.501 202.65C315.195 202.984 314.801 203.215 314.32 203.344C313.84 203.467 313.291 203.476 312.673 203.373L310.572 203.021L311.403 202.42L310.964 205.044L309.366 204.776ZM311.373 202.598L310.79 201.719L312.802 202.056C313.295 202.138 313.681 202.095 313.959 201.925C314.238 201.755 314.408 201.483 314.471 201.108C314.535 200.727 314.463 200.411 314.255 200.16C314.047 199.909 313.696 199.742 313.203 199.659L311.191 199.323L312.028 198.682L311.373 202.598Z" fill="#F9FAFB"/>
<path d="M303.396 149.326C302.733 147.574 300.486 147.198 299.289 148.639L280.794 170.892C279.561 172.375 280.361 174.658 282.223 174.97L310.959 179.778C312.821 180.09 314.321 178.192 313.638 176.388L303.396 149.326ZM300.125 156.239C301.246 156.427 301.96 157.55 301.66 158.658L299.684 165.947C299.525 166.534 298.951 166.906 298.356 166.806C297.761 166.707 297.339 166.169 297.38 165.562L297.886 158.026C297.962 156.881 299.003 156.051 300.125 156.239ZM298.006 168.92C299.163 169.114 299.943 170.217 299.748 171.384C299.552 172.552 298.456 173.341 297.298 173.147C296.141 172.953 295.361 171.85 295.557 170.683C295.752 169.516 296.848 168.726 298.006 168.92Z" fill="white"/>
<rect x="263.36" y="212.369" width="54" height="14" rx="7" transform="rotate(9.5 263.36 212.369)" fill="white"/>
<path d="M270.12 222.626L270.698 219.174L271.191 219.256L270.613 222.708L270.12 222.626ZM274.722 223.396L274.814 222.843L274.807 222.736L274.964 221.794C274.998 221.593 274.965 221.429 274.865 221.3C274.768 221.169 274.603 221.084 274.37 221.045C274.215 221.019 274.06 221.02 273.903 221.048C273.747 221.073 273.611 221.119 273.494 221.188L273.356 220.8C273.509 220.714 273.684 220.659 273.881 220.634C274.082 220.607 274.285 220.61 274.493 220.645C274.851 220.705 275.113 220.838 275.277 221.045C275.442 221.252 275.495 221.534 275.435 221.893L275.171 223.471L274.722 223.396ZM273.859 223.282C273.665 223.249 273.499 223.188 273.362 223.097C273.229 223.007 273.132 222.898 273.072 222.77C273.013 222.638 272.996 222.499 273.021 222.351C273.045 222.209 273.099 222.087 273.184 221.982C273.272 221.879 273.398 221.805 273.561 221.762C273.727 221.718 273.94 221.719 274.199 221.762L275.028 221.901L274.971 222.241L274.162 222.106C273.925 222.066 273.759 222.079 273.664 222.144C273.568 222.209 273.511 222.298 273.493 222.409C273.471 222.538 273.505 222.65 273.594 222.746C273.683 222.838 273.818 222.9 273.999 222.93C274.176 222.96 274.337 222.946 274.482 222.889C274.63 222.833 274.746 222.734 274.831 222.593L274.87 222.934C274.782 223.078 274.651 223.183 274.478 223.248C274.305 223.311 274.099 223.322 273.859 223.282ZM277.279 223.854C277.013 223.81 276.784 223.712 276.593 223.562C276.405 223.412 276.269 223.227 276.184 223.007C276.1 222.786 276.079 222.546 276.122 222.287C276.166 222.027 276.263 221.807 276.415 221.626C276.567 221.445 276.756 221.316 276.982 221.239C277.212 221.159 277.46 221.142 277.726 221.186C277.963 221.226 278.165 221.309 278.333 221.435C278.505 221.558 278.627 221.721 278.698 221.922L278.299 222.093C278.235 221.951 278.146 221.839 278.03 221.759C277.919 221.677 277.793 221.623 277.652 221.6C277.481 221.571 277.322 221.583 277.174 221.636C277.027 221.689 276.902 221.778 276.8 221.903C276.698 222.025 276.632 222.179 276.601 222.367C276.569 222.554 276.582 222.723 276.637 222.875C276.693 223.026 276.782 223.151 276.904 223.249C277.026 223.347 277.173 223.41 277.344 223.439C277.485 223.463 277.622 223.455 277.753 223.416C277.889 223.375 278.01 223.297 278.117 223.183L278.439 223.47C278.307 223.634 278.139 223.749 277.935 223.817C277.735 223.881 277.516 223.894 277.279 223.854ZM279.518 223.549L279.629 222.944L281.363 221.82L281.935 221.916L280.592 222.857L280.299 223.031L279.518 223.549ZM279.027 224.116L279.64 220.457L280.113 220.536L279.501 224.195L279.027 224.116ZM281.025 224.45L280.212 223.006L280.581 222.678L281.607 224.548L281.025 224.45ZM283.968 222.231C284.182 222.267 284.362 222.339 284.51 222.448C284.66 222.558 284.768 222.704 284.832 222.887C284.896 223.07 284.906 223.29 284.863 223.547L284.612 225.051L284.138 224.971L284.381 223.522C284.423 223.268 284.393 223.067 284.289 222.918C284.189 222.77 284.027 222.677 283.804 222.639C283.636 222.611 283.484 222.62 283.348 222.664C283.212 222.709 283.099 222.79 283.009 222.907C282.921 223.024 282.862 223.178 282.83 223.369L282.605 224.715L282.131 224.636L282.569 222.022L283.022 222.098L282.904 222.803L282.862 222.603C282.976 222.447 283.129 222.335 283.323 222.27C283.516 222.204 283.732 222.191 283.968 222.231ZM286.701 225.431C286.438 225.387 286.214 225.29 286.03 225.141C285.845 224.992 285.71 224.807 285.625 224.587C285.541 224.363 285.521 224.123 285.563 223.867C285.607 223.607 285.705 223.387 285.857 223.206C286.008 223.025 286.196 222.896 286.418 222.818C286.641 222.737 286.884 222.719 287.147 222.763C287.407 222.806 287.629 222.903 287.814 223.052C288.002 223.198 288.137 223.381 288.219 223.601C288.304 223.818 288.325 224.058 288.281 224.321C288.237 224.581 288.14 224.801 287.988 224.982C287.839 225.163 287.652 225.294 287.425 225.374C287.202 225.455 286.961 225.474 286.701 225.431ZM286.77 225.016C286.938 225.045 287.094 225.032 287.238 224.978C287.385 224.925 287.509 224.836 287.607 224.71C287.707 224.582 287.772 224.425 287.802 224.241C287.834 224.054 287.823 223.886 287.77 223.739C287.717 223.588 287.63 223.464 287.508 223.366C287.389 223.268 287.246 223.205 287.078 223.177C286.91 223.149 286.754 223.162 286.61 223.215C286.466 223.269 286.343 223.358 286.241 223.483C286.14 223.605 286.073 223.759 286.042 223.947C286.011 224.131 286.023 224.3 286.078 224.455C286.134 224.606 286.222 224.73 286.34 224.828C286.459 224.926 286.603 224.988 286.77 225.016ZM289.295 225.834L288.761 223.058L289.21 223.133L289.677 225.645L289.465 225.609L290.759 223.392L291.158 223.459L291.64 225.973L291.433 225.939L292.711 223.719L293.136 223.79L291.722 226.24L291.268 226.165L290.806 223.867L290.944 223.89L289.749 225.91L289.295 225.834ZM293.277 226.501L293.889 222.842L294.363 222.921L293.751 226.58L293.277 226.501ZM295.912 226.972C295.633 226.925 295.396 226.827 295.201 226.676C295.01 226.525 294.872 226.34 294.787 226.12C294.706 225.9 294.687 225.66 294.73 225.401C294.774 225.141 294.868 224.92 295.013 224.738C295.162 224.557 295.344 224.427 295.56 224.348C295.78 224.267 296.015 224.247 296.265 224.289C296.518 224.331 296.732 224.424 296.907 224.568C297.083 224.713 297.207 224.896 297.282 225.118C297.36 225.337 297.377 225.581 297.331 225.851C297.328 225.871 297.323 225.893 297.315 225.919C297.311 225.946 297.305 225.97 297.298 225.992L295.074 225.62L295.131 225.28L297.108 225.611L296.896 225.697C296.927 225.53 296.918 225.375 296.867 225.231C296.817 225.087 296.734 224.969 296.618 224.875C296.506 224.778 296.366 224.716 296.198 224.688C296.034 224.66 295.881 224.674 295.74 224.728C295.6 224.779 295.482 224.866 295.387 224.988C295.293 225.108 295.231 225.253 295.203 225.424L295.19 225.503C295.16 225.677 295.174 225.84 295.23 225.991C295.289 226.14 295.385 226.264 295.517 226.364C295.649 226.463 295.809 226.529 295.996 226.56C296.151 226.586 296.295 226.583 296.428 226.552C296.565 226.52 296.69 226.46 296.803 226.371L297.014 226.72C296.872 226.839 296.707 226.919 296.517 226.962C296.331 227.005 296.129 227.008 295.912 226.972ZM298.946 227.48C298.693 227.438 298.476 227.344 298.294 227.198C298.115 227.054 297.985 226.871 297.904 226.651C297.822 226.432 297.804 226.189 297.848 225.922C297.893 225.656 297.989 225.434 298.137 225.256C298.286 225.075 298.468 224.945 298.684 224.866C298.903 224.788 299.14 224.77 299.393 224.812C299.613 224.849 299.804 224.931 299.965 225.06C300.126 225.188 300.242 225.36 300.315 225.575C300.39 225.79 300.403 226.046 300.353 226.342C300.304 226.637 300.21 226.875 300.072 227.055C299.937 227.235 299.772 227.361 299.578 227.433C299.384 227.502 299.173 227.518 298.946 227.48ZM299.055 227.072C299.219 227.1 299.374 227.087 299.518 227.033C299.665 226.98 299.788 226.891 299.887 226.765C299.99 226.637 300.056 226.481 300.087 226.297C300.119 226.11 300.106 225.942 300.05 225.794C299.997 225.643 299.91 225.519 299.788 225.421C299.669 225.323 299.527 225.26 299.363 225.233C299.195 225.205 299.039 225.218 298.895 225.271C298.751 225.325 298.628 225.414 298.526 225.539C298.424 225.66 298.358 225.815 298.327 226.002C298.296 226.186 298.308 226.356 298.363 226.51C298.419 226.662 298.506 226.786 298.625 226.884C298.744 226.981 298.887 227.044 299.055 227.072ZM299.883 227.606L300.001 226.901L300.132 226.299L300.185 225.685L300.476 223.944L300.949 224.023L300.337 227.682L299.883 227.606ZM302.31 229.026C302.07 228.986 301.843 228.913 301.627 228.806C301.415 228.702 301.248 228.577 301.128 228.428L301.416 228.101C301.52 228.227 301.656 228.334 301.823 228.423C301.99 228.515 302.171 228.577 302.365 228.61C302.674 228.661 302.913 228.627 303.082 228.507C303.251 228.386 303.36 228.178 303.409 227.882L303.502 227.33L303.638 226.82L303.701 226.293L303.82 225.578L304.269 225.653L303.891 227.912C303.814 228.372 303.642 228.692 303.376 228.87C303.109 229.049 302.754 229.101 302.31 229.026ZM302.434 227.922C302.181 227.879 301.963 227.789 301.78 227.65C301.601 227.508 301.468 227.332 301.382 227.122C301.299 226.912 301.278 226.682 301.32 226.432C301.362 226.179 301.457 225.968 301.603 225.8C301.753 225.629 301.936 225.508 302.151 225.436C302.369 225.364 302.605 225.349 302.858 225.392C303.081 225.429 303.277 225.509 303.446 225.632C303.615 225.752 303.739 225.914 303.816 226.12C303.896 226.326 303.912 226.572 303.865 226.858C303.817 227.141 303.722 227.367 303.579 227.535C303.439 227.704 303.269 227.821 303.069 227.886C302.87 227.947 302.658 227.959 302.434 227.922ZM302.558 227.516C302.732 227.546 302.893 227.535 303.04 227.486C303.187 227.436 303.309 227.353 303.406 227.238C303.506 227.123 303.57 226.981 303.598 226.814C303.626 226.646 303.612 226.491 303.554 226.35C303.5 226.209 303.411 226.093 303.288 226.001C303.165 225.906 303.017 225.844 302.843 225.815C302.668 225.786 302.506 225.796 302.356 225.845C302.21 225.892 302.086 225.972 301.986 226.087C301.889 226.203 301.826 226.345 301.798 226.512C301.77 226.68 301.783 226.834 301.837 226.975C301.895 227.117 301.985 227.235 302.108 227.33C302.234 227.425 302.384 227.487 302.558 227.516ZM305.994 228.659C305.714 228.612 305.477 228.514 305.283 228.363C305.092 228.213 304.954 228.027 304.869 227.807C304.787 227.587 304.768 227.347 304.812 227.088C304.855 226.828 304.95 226.607 305.095 226.425C305.244 226.244 305.426 226.114 305.642 226.035C305.862 225.954 306.097 225.934 306.346 225.976C306.6 226.018 306.814 226.111 306.989 226.256C307.164 226.4 307.289 226.583 307.364 226.805C307.442 227.024 307.458 227.269 307.413 227.538C307.41 227.558 307.404 227.581 307.397 227.606C307.392 227.633 307.387 227.657 307.379 227.679L305.155 227.307L305.212 226.967L307.19 227.298L306.978 227.384C307.009 227.217 306.999 227.062 306.949 226.918C306.899 226.774 306.816 226.656 306.699 226.562C306.587 226.465 306.447 226.403 306.28 226.375C306.115 226.348 305.963 226.361 305.822 226.415C305.681 226.466 305.564 226.553 305.469 226.675C305.375 226.795 305.313 226.94 305.284 227.111L305.271 227.19C305.242 227.364 305.255 227.527 305.311 227.678C305.371 227.827 305.467 227.951 305.599 228.051C305.731 228.15 305.89 228.216 306.078 228.247C306.232 228.273 306.376 228.27 306.51 228.239C306.647 228.208 306.772 228.147 306.885 228.058L307.095 228.408C306.954 228.526 306.788 228.606 306.599 228.649C306.412 228.692 306.211 228.696 305.994 228.659Z" fill="#FE2D01"/>
</g>
<defs>
<filter id="filter0_dd_1121_5961" x="-3.85498" y="172.851" width="336.693" height="286.552" filterUnits="userSpaceOnUse" color-interpolation-filters="sRGB">
<feFlood flood-opacity="0" result="BackgroundImageFix"/>
<feColorMatrix in="SourceAlpha" type="matrix" values="0 0 0 0 0 0 0 0 0 0 0 0 0 0 0 0 0 0 127 0" result="hardAlpha"/>
<feOffset dy="1"/>
<feGaussianBlur stdDeviation="1"/>
<feComposite in2="hardAlpha" operator="out"/>
<feColorMatrix type="matrix" values="0 0 0 0 0 0 0 0 0 0 0 0 0 0 0 0 0 0 0.25 0"/>
<feBlend mode="normal" in2="BackgroundImageFix" result="effect1_dropShadow_1121_5961"/>
<feColorMatrix in="SourceAlpha" type="matrix" values="0 0 0 0 0 0 0 0 0 0 0 0 0 0 0 0 0 0 127 0" result="hardAlpha"/>
<feOffset dy="4"/>
<feGaussianBlur stdDeviation="2"/>
<feComposite in2="hardAlpha" operator="out"/>
<feColorMatrix type="matrix" values="0 0 0 0 0 0 0 0 0 0 0 0 0 0 0 0 0 0 0.25 0"/>
<feBlend mode="normal" in2="effect1_dropShadow_1121_5961" result="effect2_dropShadow_1121_5961"/>
<feBlend mode="normal" in="SourceGraphic" in2="effect2_dropShadow_1121_5961" result="shape"/>
</filter>
<filter id="filter1_d_1121_5961" x="222.949" y="46.1933" width="150.222" height="253.533" filterUnits="userSpaceOnUse" color-interpolation-filters="sRGB">
<feFlood flood-opacity="0" result="BackgroundImageFix"/>
<feColorMatrix in="SourceAlpha" type="matrix" values="0 0 0 0 0 0 0 0 0 0 0 0 0 0 0 0 0 0 127 0" result="hardAlpha"/>
<feOffset dy="4"/>
<feGaussianBlur stdDeviation="2"/>
<feComposite in2="hardAlpha" operator="out"/>
<feColorMatrix type="matrix" values="0 0 0 0 0 0 0 0 0 0 0 0 0 0 0 0 0 0 0.25 0"/>
<feBlend mode="normal" in2="BackgroundImageFix" result="effect1_dropShadow_1121_5961"/>
<feBlend mode="normal" in="SourceGraphic" in2="effect1_dropShadow_1121_5961" result="shape"/>
</filter>
<linearGradient id="paint0_linear_1121_5961" x1="149" y1="418" x2="536" y2="418" gradientUnits="userSpaceOnUse">
<stop stop-color="#5787F5"/>
<stop offset="1" stop-color="#B164E8"/>
</linearGradient>
<clipPath id="clip0_1121_5961">
<rect width="428" height="493" fill="white"/>
</clipPath>
<clipPath id="clip1_1121_5961">
<rect width="40" height="40" fill="white" transform="translate(277 347.906) rotate(-29.8447)"/>
</clipPath>
</defs>
</svg>
