<svg width="428" height="519" viewBox="0 0 428 519" fill="none" xmlns="http://www.w3.org/2000/svg">
<g clip-path="url(#clip0_1121_5961)">
<rect width="428" height="519" fill="#FCFCFC"/>
<path d="M185 362.5V362.5C263.494 267.653 394.597 234.961 508.435 281.848L663.096 345.549C774.392 391.39 900.414 384.675 1006.21 327.267L1161.5 243" stroke="url(#paint0_linear_1121_5961)" stroke-width="250" stroke-linecap="round"/>
<g clip-path="url(#clip1_1121_5961)">
<path d="M308.895 367.076C308.548 367.274 308.147 367.357 307.75 367.311C307.729 367.309 307.707 367.306 307.686 367.302L298.585 365.785L293.858 368.497C293.427 368.745 292.915 368.811 292.435 368.681C291.955 368.551 291.546 368.235 291.298 367.804L286.944 360.214C286.697 359.783 286.631 359.271 286.761 358.791C286.891 358.311 287.206 357.902 287.637 357.655L292.364 354.943L295.647 346.321C295.654 346.301 295.662 346.281 295.672 346.261C295.812 345.944 296.037 345.672 296.322 345.475C296.608 345.278 296.942 345.164 297.288 345.146C297.634 345.128 297.979 345.206 298.283 345.371C298.588 345.537 298.84 345.784 299.013 346.084L309.588 364.516C309.835 364.947 309.901 365.459 309.771 365.939C309.641 366.419 309.326 366.828 308.895 367.076Z" fill="#FCFCFC"/>
<path d="M311.748 358.233C311.563 358.339 311.353 358.396 311.14 358.399C310.927 358.401 310.716 358.349 310.529 358.247C310.342 358.145 310.183 357.997 310.069 357.817C309.955 357.637 309.889 357.43 309.878 357.217C309.787 355.57 309.369 354.086 308.638 352.812C307.884 351.498 306.847 350.422 305.467 349.521C305.196 349.337 305.008 349.054 304.943 348.733C304.879 348.412 304.943 348.078 305.122 347.804C305.301 347.53 305.58 347.337 305.9 347.266C306.22 347.196 306.555 347.254 306.833 347.428C308.55 348.549 309.851 349.904 310.806 351.568C311.733 353.185 312.258 355.041 312.374 357.08C312.387 357.312 312.335 357.542 312.224 357.745C312.114 357.949 311.949 358.118 311.748 358.233Z" fill="#FCFCFC"/>
<path d="M316.866 359.62C316.676 359.729 316.46 359.786 316.241 359.786C316.021 359.785 315.806 359.727 315.616 359.616C315.427 359.506 315.269 359.348 315.16 359.158C315.051 358.967 314.994 358.752 314.994 358.532C314.996 355.567 314.666 353.272 312.974 350.324C311.257 347.331 309.451 345.9 306.912 344.44C306.63 344.272 306.424 344 306.341 343.682C306.257 343.364 306.302 343.026 306.466 342.741C306.63 342.456 306.899 342.247 307.216 342.16C307.533 342.072 307.872 342.113 308.159 342.273C310.995 343.903 313.152 345.611 315.143 349.08C317.103 352.497 317.496 355.231 317.495 358.538C317.495 358.758 317.436 358.973 317.326 359.163C317.215 359.353 317.057 359.51 316.866 359.62Z" fill="#FCFCFC"/>
<path d="M321.985 361.006C321.79 361.118 321.568 361.175 321.343 361.171C321.118 361.167 320.898 361.103 320.707 360.985C320.515 360.866 320.359 360.698 320.255 360.499C320.151 360.299 320.103 360.075 320.116 359.85C320.337 355.959 319.945 352.427 317.311 347.836C314.726 343.329 311.856 341.182 308.343 339.345C308.197 339.269 308.068 339.165 307.963 339.039C307.857 338.913 307.778 338.767 307.729 338.611C307.68 338.454 307.662 338.289 307.677 338.125C307.691 337.962 307.738 337.803 307.814 337.657C307.89 337.511 307.995 337.382 308.121 337.277C308.247 337.172 308.392 337.092 308.549 337.043C308.706 336.994 308.871 336.976 309.034 336.991C309.198 337.006 309.357 337.053 309.503 337.129C313.403 339.169 316.592 341.559 319.479 346.591C321.997 350.979 322.904 354.861 322.611 359.993C322.599 360.201 322.536 360.402 322.426 360.579C322.317 360.756 322.166 360.903 321.985 361.006Z" fill="#FCFCFC"/>
</g>
<g filter="url(#filter0_d_1121_5961)">
<g filter="url(#filter1_d_1121_5961)">
<rect x="14.145" y="236.664" width="168.462" height="219" rx="10" transform="rotate(-11.32 14.145 236.664)" fill="#FCFCFC"/>
<path d="M116.887 312.344C115.466 310.758 112.904 311.271 112.204 313.282L101.38 344.344C100.658 346.415 102.441 348.508 104.564 348.083L137.335 341.523C139.457 341.098 140.297 338.48 138.834 336.847L116.887 312.344ZM116.179 320.99C117.458 320.734 118.678 321.635 118.805 322.929L119.639 331.449C119.706 332.135 119.24 332.761 118.562 332.897C117.884 333.033 117.213 332.634 117.011 331.975L114.501 323.791C114.12 322.548 114.899 321.247 116.179 320.99ZM119.042 335.278C120.362 335.013 121.645 335.865 121.909 337.181C122.172 338.496 121.316 339.776 119.996 340.04C118.676 340.305 117.393 339.453 117.13 338.137C116.866 336.822 117.723 335.542 119.042 335.278Z" fill="#FE2D01"/>
<path d="M63.3457 280.609L65.3681 271.637L67.2507 271.26L72.5825 278.76L70.5822 279.16L66.1143 272.491L66.8673 272.341L65.299 280.218L63.3457 280.609ZM64.828 278.476L65.0442 276.928L69.2802 276.08L70.0876 277.423L64.828 278.476ZM77.4604 277.881C76.927 277.988 76.4367 277.964 75.9895 277.808C75.5424 277.653 75.1571 277.359 74.8339 276.926C74.5169 276.484 74.2846 275.894 74.1369 275.156C73.9878 274.411 73.9712 273.778 74.0872 273.257C74.2032 272.736 74.4377 272.318 74.7906 272.003C75.1436 271.687 75.5985 271.474 76.1555 271.362C76.7517 271.243 77.3126 271.274 77.8382 271.454C78.3701 271.625 78.822 271.926 79.1939 272.357C79.5737 272.787 79.8295 273.332 79.9614 273.99C80.0949 274.657 80.0691 275.262 79.8841 275.805C79.7069 276.346 79.4057 276.798 78.9806 277.161C78.5633 277.522 78.0566 277.762 77.4604 277.881ZM74.1568 280.819L72.4326 272.206L74.1858 271.855L74.4449 273.149L74.7865 275.039L75.2786 276.886L75.9924 280.451L74.1568 280.819ZM76.8412 276.439C77.1472 276.377 77.4037 276.253 77.6107 276.064C77.8256 275.874 77.9778 275.636 78.0672 275.349C78.1628 275.052 78.1745 274.723 78.1023 274.363C78.0285 273.994 77.8911 273.695 77.6903 273.466C77.4973 273.235 77.265 273.074 76.9936 272.981C76.73 272.887 76.4452 272.871 76.1393 272.932C75.8334 272.993 75.5729 273.119 75.358 273.309C75.1431 273.499 74.991 273.737 74.9016 274.024C74.8122 274.311 74.8044 274.639 74.8782 275.008C74.9505 275.369 75.0839 275.668 75.2785 275.907C75.4715 276.138 75.7037 276.299 75.9752 276.392C76.2466 276.484 76.5353 276.5 76.8412 276.439ZM85.9766 276.176C85.4432 276.283 84.9529 276.259 84.5057 276.104C84.0586 275.948 83.6733 275.654 83.3501 275.221C83.0331 274.779 82.8008 274.189 82.6531 273.452C82.504 272.706 82.4874 272.073 82.6034 271.552C82.7194 271.032 82.9539 270.613 83.3068 270.298C83.6598 269.983 84.1147 269.769 84.6717 269.658C85.2679 269.538 85.8288 269.569 86.3544 269.749C86.8863 269.92 87.3382 270.221 87.7101 270.653C88.0899 271.082 88.3457 271.627 88.4776 272.286C88.6111 272.952 88.5853 273.557 88.4002 274.1C88.2231 274.641 87.9219 275.093 87.4968 275.456C87.0795 275.817 86.5728 276.057 85.9766 276.176ZM82.673 279.114L80.9488 270.501L82.702 270.15L82.9611 271.444L83.3027 273.334L83.7948 275.181L84.5086 278.746L82.673 279.114ZM85.3574 274.734C85.6634 274.672 85.9198 274.548 86.1269 274.359C86.3418 274.17 86.494 273.931 86.5833 273.644C86.679 273.347 86.6907 273.019 86.6185 272.658C86.5447 272.289 86.4073 271.99 86.2065 271.761C86.0135 271.531 85.7812 271.369 85.5098 271.277C85.2462 271.182 84.9614 271.166 84.6555 271.227C84.3496 271.289 84.0891 271.414 83.8742 271.604C83.6593 271.794 83.5072 272.032 83.4178 272.319C83.3284 272.607 83.3206 272.935 83.3944 273.303C83.4667 273.664 83.6001 273.964 83.7947 274.202C83.9877 274.433 84.2199 274.594 84.4914 274.687C84.7628 274.779 85.0515 274.795 85.3574 274.734ZM90.7322 275.126L89.465 268.796L91.2182 268.445L91.5762 270.233L91.2255 269.765C91.3242 269.28 91.5587 268.883 91.9289 268.572C92.2976 268.253 92.78 268.034 93.3762 267.915L93.7153 269.609C93.6353 269.617 93.5639 269.628 93.5012 269.64C93.4369 269.645 93.3694 269.654 93.2988 269.668C92.7968 269.769 92.4179 269.996 92.1622 270.349C91.9128 270.692 91.8486 271.166 91.9695 271.77L92.5678 274.759L90.7322 275.126ZM99.131 273.543C98.4564 273.678 97.828 273.657 97.2459 273.48C96.6717 273.301 96.1829 272.999 95.7796 272.574C95.3826 272.139 95.1213 271.608 94.9956 270.981C94.8685 270.345 94.9052 269.755 95.1059 269.209C95.3129 268.653 95.6478 268.186 96.1106 267.808C96.5796 267.421 97.1515 267.159 97.8261 267.024C98.4929 266.891 99.1173 266.913 99.6994 267.09C100.28 267.259 100.768 267.557 101.163 267.984C101.559 268.411 101.821 268.946 101.95 269.589C102.075 270.216 102.039 270.807 101.839 271.361C101.639 271.907 101.304 272.374 100.835 272.761C100.366 273.149 99.7978 273.409 99.131 273.543ZM98.8295 272.037C99.1354 271.976 99.3959 271.85 99.6108 271.66C99.8257 271.47 99.9778 271.232 100.067 270.945C100.155 270.65 100.163 270.322 100.091 269.961C100.017 269.592 99.8834 269.293 99.6903 269.062C99.4973 268.831 99.2651 268.67 98.9936 268.577C98.7222 268.485 98.4335 268.469 98.1276 268.53C97.8217 268.592 97.5612 268.717 97.3463 268.907C97.1314 269.097 96.9753 269.336 96.8781 269.625C96.7887 269.912 96.781 270.24 96.8548 270.609C96.927 270.97 97.0604 271.269 97.255 271.508C97.4559 271.737 97.692 271.897 97.9635 271.99C98.2349 272.082 98.5236 272.098 98.8295 272.037ZM107.982 271.673L107.735 270.438L107.563 270.191L107.12 267.979C107.041 267.586 106.859 267.305 106.572 267.134C106.292 266.961 105.905 266.924 105.411 267.023C105.074 267.091 104.752 267.213 104.444 267.388C104.143 267.555 103.897 267.751 103.705 267.977L102.79 266.826C103.086 266.514 103.464 266.242 103.924 266.012C104.383 265.781 104.864 265.615 105.366 265.515C106.331 265.322 107.126 265.399 107.75 265.747C108.375 266.096 108.784 266.752 108.977 267.717L109.7 271.329L107.982 271.673ZM106.071 272.154C105.577 272.253 105.137 272.255 104.751 272.161C104.363 272.059 104.046 271.882 103.8 271.629C103.554 271.377 103.394 271.07 103.322 270.709C103.247 270.333 103.271 269.985 103.395 269.667C103.527 269.347 103.777 269.068 104.145 268.831C104.513 268.586 105.018 268.399 105.661 268.271L107.344 267.934L107.558 269.005L106.075 269.301C105.644 269.388 105.36 269.518 105.223 269.692C105.095 269.865 105.052 270.057 105.094 270.269C105.141 270.504 105.269 270.674 105.478 270.779C105.693 270.875 105.961 270.891 106.283 270.826C106.589 270.765 106.849 270.64 107.064 270.45C107.277 270.252 107.411 270.001 107.464 269.696L107.916 270.487C107.864 270.922 107.683 271.28 107.372 271.563C107.062 271.845 106.628 272.042 106.071 272.154ZM114.878 270.391C114.195 270.527 113.56 270.512 112.971 270.344C112.381 270.168 111.884 269.864 111.479 269.431C111.082 268.997 110.821 268.466 110.695 267.838C110.568 267.203 110.605 266.612 110.805 266.066C111.012 265.511 111.355 265.042 111.834 264.661C112.31 264.272 112.89 264.009 113.573 263.872C114.239 263.739 114.848 263.764 115.399 263.947C115.948 264.123 116.392 264.446 116.731 264.916L115.46 265.966C115.236 265.701 114.984 265.523 114.705 265.432C114.433 265.34 114.153 265.322 113.862 265.381C113.549 265.443 113.28 265.571 113.058 265.762C112.835 265.953 112.675 266.193 112.578 266.482C112.488 266.769 112.48 267.097 112.554 267.466C112.628 267.835 112.761 268.134 112.954 268.365C113.155 268.594 113.395 268.754 113.675 268.845C113.954 268.936 114.251 268.95 114.564 268.887C114.855 268.829 115.108 268.709 115.324 268.527C115.547 268.335 115.71 268.07 115.814 267.731L117.393 268.223C117.26 268.78 116.974 269.249 116.537 269.63C116.097 270.004 115.544 270.257 114.878 270.391ZM121.671 262.251C122.173 262.151 122.64 262.163 123.073 262.288C123.513 262.404 123.888 262.648 124.198 263.018C124.507 263.38 124.726 263.883 124.855 264.526L125.581 268.15L123.745 268.518L123.076 265.176C122.974 264.666 122.785 264.312 122.509 264.115C122.24 263.916 121.902 263.857 121.494 263.938C121.204 263.997 120.954 264.112 120.744 264.285C120.54 264.448 120.396 264.668 120.313 264.946C120.238 265.222 120.24 265.556 120.318 265.948L120.945 269.078L119.109 269.446L117.361 260.715L119.197 260.348L120.028 264.501L119.511 264.054C119.653 263.585 119.914 263.194 120.292 262.882C120.67 262.57 121.129 262.359 121.671 262.251ZM127.637 267.739L126.37 261.408L128.205 261.041L129.472 267.371L127.637 267.739ZM127.111 260.342C126.773 260.41 126.479 260.367 126.228 260.213C125.977 260.059 125.822 259.837 125.764 259.547C125.706 259.257 125.763 258.992 125.936 258.754C126.109 258.515 126.363 258.362 126.701 258.295C127.038 258.227 127.331 258.266 127.581 258.412C127.829 258.55 127.982 258.764 128.04 259.055C128.101 259.361 128.046 259.637 127.875 259.883C127.711 260.12 127.456 260.273 127.111 260.342ZM134.13 259.757C134.632 259.656 135.099 259.669 135.532 259.794C135.972 259.91 136.347 260.153 136.657 260.524C136.967 260.886 137.185 261.389 137.314 262.032L138.04 265.656L136.204 266.024L135.535 262.682C135.433 262.172 135.244 261.818 134.968 261.621C134.7 261.421 134.361 261.363 133.953 261.444C133.663 261.502 133.413 261.618 133.203 261.79C132.999 261.954 132.855 262.174 132.772 262.452C132.697 262.728 132.699 263.062 132.777 263.454L133.404 266.584L131.568 266.952L130.301 260.621L132.054 260.27L132.405 262.024L131.97 261.56C132.112 261.091 132.373 260.7 132.751 260.388C133.129 260.076 133.588 259.865 134.13 259.757ZM143.595 267.016C142.998 267.136 142.407 267.177 141.82 267.139C141.243 267.108 140.741 266.984 140.314 266.767L140.78 265.304C141.09 265.47 141.462 265.575 141.895 265.619C142.338 265.669 142.759 265.654 143.159 265.574C143.81 265.443 144.252 265.204 144.484 264.856C144.724 264.506 144.786 264.045 144.672 263.472L144.481 262.519L144.281 260.907L143.937 259.311L143.664 257.946L145.405 257.598L146.46 262.869C146.696 264.046 146.563 264.974 146.063 265.653C145.563 266.333 144.74 266.787 143.595 267.016ZM142.775 264.39C142.187 264.508 141.628 264.489 141.099 264.334C140.577 264.169 140.125 263.888 139.744 263.492C139.369 263.085 139.12 262.576 138.997 261.964C138.873 261.345 138.907 260.779 139.098 260.268C139.296 259.747 139.605 259.314 140.025 258.968C140.454 258.622 140.962 258.389 141.55 258.271C142.084 258.165 142.576 258.18 143.028 258.318C143.478 258.448 143.863 258.718 144.181 259.128C144.498 259.529 144.728 260.083 144.869 260.789C145.009 261.487 145.01 262.086 144.874 262.587C144.736 263.08 144.485 263.477 144.121 263.778C143.757 264.079 143.308 264.283 142.775 264.39ZM142.838 262.811C143.16 262.747 143.434 262.626 143.66 262.451C143.884 262.267 144.043 262.044 144.137 261.78C144.231 261.516 144.248 261.232 144.187 260.926C144.124 260.612 143.999 260.355 143.812 260.156C143.624 259.949 143.392 259.808 143.116 259.733C142.838 259.65 142.538 259.64 142.217 259.705C141.895 259.769 141.622 259.893 141.398 260.077C141.172 260.252 141.008 260.473 140.906 260.738C140.81 260.994 140.794 261.278 140.857 261.592C140.918 261.898 141.043 262.155 141.231 262.362C141.427 262.567 141.664 262.712 141.942 262.795C142.218 262.87 142.517 262.875 142.838 262.811ZM72.0043 295.193L70.3555 286.956L72.2617 286.575L73.9105 294.811L72.0043 295.193ZM78.6896 287.173C79.1916 287.072 79.6592 287.084 80.0922 287.21C80.5315 287.326 80.9065 287.569 81.2173 287.939C81.5264 288.302 81.7454 288.804 81.8741 289.448L82.5996 293.072L80.764 293.439L80.0951 290.098C79.993 289.588 79.8039 289.234 79.5277 289.036C79.2594 288.837 78.9213 288.778 78.5134 288.86C78.2231 288.918 77.9729 289.033 77.7627 289.206C77.5588 289.369 77.4153 289.59 77.3321 289.867C77.2569 290.144 77.2585 290.478 77.337 290.87L77.9636 294L76.128 294.367L74.8608 288.037L76.614 287.686L76.9649 289.439L76.5295 288.976C76.6722 288.506 76.9325 288.116 77.3106 287.803C77.6887 287.491 78.1483 287.281 78.6896 287.173ZM87.2632 292.236C86.518 292.385 85.8998 292.313 85.4087 292.02C84.916 291.719 84.5942 291.192 84.4435 290.439L83.3317 284.885L85.1673 284.517L86.2744 290.048C86.3278 290.314 86.44 290.508 86.611 290.629C86.7805 290.742 86.9868 290.774 87.23 290.725C87.5202 290.667 87.7516 290.539 87.9241 290.342L88.6774 291.537C88.5159 291.708 88.3088 291.855 88.0562 291.979C87.8099 292.094 87.5456 292.18 87.2632 292.236ZM82.9463 288.034L82.6637 286.622L87.0526 285.743L87.3352 287.155L82.9463 288.034ZM93.1265 291.062C92.4048 291.207 91.7411 291.193 91.1355 291.02C90.5377 290.846 90.0411 290.546 89.6456 290.119C89.2486 289.685 88.9873 289.154 88.8617 288.526C88.7345 287.891 88.7673 287.301 88.9602 286.756C89.1594 286.203 89.4864 285.737 89.9413 285.361C90.3947 284.976 90.943 284.72 91.5862 284.591C92.2059 284.467 92.7896 284.489 93.3372 284.656C93.891 284.815 94.3625 285.112 94.7517 285.548C95.1393 285.976 95.4014 286.532 95.538 287.214C95.5522 287.285 95.5647 287.368 95.5757 287.464C95.5852 287.551 95.5938 287.635 95.6017 287.715L90.4597 288.745L90.2453 287.674L94.4224 286.838L93.7801 287.297C93.7141 286.967 93.5901 286.694 93.4081 286.478C93.226 286.261 93.004 286.11 92.742 286.024C92.4784 285.93 92.1897 285.914 91.8759 285.977C91.5622 286.04 91.2978 286.166 91.0829 286.356C90.8743 286.536 90.7284 286.766 90.6453 287.043C90.5606 287.313 90.552 287.617 90.6196 287.954L90.6761 288.236C90.7452 288.582 90.8809 288.873 91.0834 289.109C91.2921 289.337 91.5479 289.494 91.8507 289.58C92.1598 289.657 92.5026 289.658 92.8791 289.582C93.2164 289.515 93.5004 289.405 93.731 289.253C93.9694 289.099 94.1741 288.899 94.3451 288.652L95.5337 289.516C95.3094 289.903 94.9957 290.231 94.5925 290.5C94.1878 290.76 93.6991 290.948 93.1265 291.062ZM97.7812 290.033L96.514 283.702L98.2672 283.351L98.6252 285.14L98.2745 284.672C98.3732 284.187 98.6077 283.789 98.9779 283.478C99.3466 283.16 99.829 282.941 100.425 282.821L100.764 284.516C100.684 284.524 100.613 284.534 100.55 284.546C100.486 284.551 100.418 284.561 100.348 284.575C99.8458 284.675 99.4669 284.902 99.2112 285.255C98.9618 285.599 98.8976 286.073 99.0185 286.677L99.6168 289.665L97.7812 290.033ZM105.389 288.608C104.848 288.716 104.314 288.758 103.787 288.733C103.266 288.698 102.841 288.612 102.511 288.474L102.859 287.034C103.186 287.156 103.557 287.237 103.972 287.276C104.395 287.306 104.798 287.282 105.182 287.205C105.606 287.12 105.894 287.01 106.046 286.873C106.206 286.735 106.268 286.576 106.232 286.395C106.202 286.246 106.109 286.15 105.954 286.108C105.805 286.056 105.613 286.034 105.377 286.04C105.142 286.046 104.883 286.057 104.601 286.073C104.326 286.087 104.045 286.09 103.758 286.083C103.469 286.067 103.198 286.015 102.944 285.927C102.69 285.84 102.469 285.696 102.282 285.497C102.104 285.296 101.978 285.015 101.906 284.654C101.826 284.254 101.869 283.879 102.035 283.527C102.209 283.174 102.498 282.867 102.903 282.607C103.306 282.338 103.814 282.143 104.426 282.021C104.857 281.934 105.306 281.893 105.772 281.898C106.238 281.903 106.638 281.965 106.972 282.086L106.622 283.515C106.28 283.395 105.946 283.336 105.619 283.336C105.299 283.327 104.994 283.351 104.704 283.409C104.296 283.491 104.009 283.605 103.842 283.753C103.676 283.9 103.61 284.06 103.645 284.233C103.676 284.39 103.766 284.494 103.916 284.546C104.072 284.596 104.269 284.622 104.506 284.623C104.743 284.625 104.999 284.619 105.273 284.604C105.554 284.581 105.839 284.577 106.128 284.593C106.416 284.608 106.684 284.661 106.93 284.75C107.183 284.83 107.403 284.97 107.589 285.169C107.774 285.36 107.903 285.636 107.975 285.997C108.054 286.389 108.006 286.762 107.832 287.115C107.656 287.46 107.362 287.764 106.95 288.026C106.545 288.287 106.025 288.48 105.389 288.608ZM113.045 287.075C112.323 287.22 111.659 287.206 111.054 287.033C110.456 286.859 109.959 286.559 109.564 286.132C109.167 285.698 108.905 285.166 108.78 284.539C108.653 283.904 108.685 283.314 108.878 282.769C109.077 282.215 109.405 281.75 109.859 281.373C110.313 280.989 110.861 280.732 111.504 280.604C112.124 280.48 112.708 280.501 113.255 280.669C113.809 280.828 114.281 281.125 114.67 281.561C115.057 281.989 115.32 282.544 115.456 283.227C115.47 283.298 115.483 283.381 115.494 283.476C115.503 283.564 115.512 283.648 115.52 283.728L110.378 284.758L110.163 283.687L114.341 282.851L113.698 283.31C113.632 282.98 113.508 282.707 113.326 282.491C113.144 282.274 112.922 282.123 112.66 282.037C112.396 281.943 112.108 281.927 111.794 281.99C111.48 282.052 111.216 282.179 111.001 282.369C110.792 282.549 110.647 282.778 110.563 283.056C110.479 283.326 110.47 283.629 110.538 283.967L110.594 284.249C110.663 284.594 110.799 284.885 111.001 285.122C111.21 285.35 111.466 285.506 111.769 285.593C112.078 285.67 112.421 285.67 112.797 285.595C113.135 285.527 113.418 285.418 113.649 285.265C113.888 285.111 114.092 284.911 114.263 284.665L115.452 285.529C115.228 285.916 114.914 286.244 114.511 286.512C114.106 286.773 113.617 286.961 113.045 287.075ZM120.777 285.527C120.095 285.664 119.46 285.648 118.871 285.48C118.281 285.305 117.784 285.001 117.379 284.568C116.982 284.133 116.721 283.602 116.595 282.974C116.468 282.339 116.505 281.748 116.705 281.202C116.912 280.647 117.255 280.179 117.734 279.797C118.21 279.408 118.79 279.145 119.473 279.008C120.139 278.875 120.748 278.9 121.299 279.083C121.848 279.259 122.292 279.582 122.631 280.053L121.36 281.103C121.136 280.838 120.884 280.66 120.605 280.569C120.333 280.476 120.053 280.459 119.762 280.517C119.449 280.58 119.18 280.707 118.957 280.898C118.735 281.09 118.575 281.33 118.478 281.619C118.388 281.906 118.38 282.234 118.454 282.602C118.528 282.971 118.661 283.271 118.854 283.501C119.055 283.73 119.295 283.89 119.575 283.981C119.854 284.072 120.15 284.086 120.464 284.023C120.754 283.965 121.008 283.845 121.224 283.663C121.447 283.472 121.61 283.207 121.714 282.868L123.293 283.359C123.16 283.916 122.874 284.385 122.436 284.767C121.997 285.14 121.444 285.394 120.777 285.527ZM127.743 284.133C126.998 284.282 126.379 284.21 125.888 283.917C125.396 283.615 125.074 283.088 124.923 282.335L123.811 276.781L125.647 276.414L126.754 281.944C126.807 282.211 126.92 282.405 127.091 282.526C127.26 282.638 127.466 282.671 127.71 282.622C128 282.564 128.231 282.436 128.404 282.238L129.157 283.434C128.996 283.605 128.789 283.752 128.536 283.876C128.29 283.991 128.025 284.076 127.743 284.133ZM123.426 279.93L123.143 278.518L127.532 277.64L127.815 279.052L123.426 279.93ZM130.641 283.455L129.374 277.124L131.209 276.757L132.477 283.087L130.641 283.455ZM130.115 276.058C129.778 276.126 129.483 276.083 129.232 275.929C128.981 275.775 128.827 275.553 128.769 275.263C128.711 274.973 128.768 274.708 128.94 274.47C129.113 274.231 129.368 274.078 129.705 274.011C130.042 273.943 130.336 273.982 130.585 274.128C130.833 274.266 130.986 274.48 131.044 274.771C131.105 275.077 131.051 275.353 130.88 275.599C130.715 275.836 130.46 275.989 130.115 276.058ZM137.603 282.159C136.929 282.294 136.3 282.273 135.718 282.096C135.144 281.917 134.655 281.615 134.252 281.19C133.855 280.755 133.594 280.224 133.468 279.597C133.341 278.961 133.378 278.371 133.578 277.825C133.785 277.269 134.12 276.802 134.583 276.424C135.052 276.037 135.624 275.775 136.299 275.64C136.965 275.507 137.59 275.529 138.172 275.706C138.752 275.875 139.24 276.173 139.636 276.6C140.031 277.026 140.293 277.561 140.422 278.205C140.548 278.832 140.511 279.423 140.312 279.977C140.111 280.523 139.776 280.99 139.307 281.377C138.838 281.765 138.27 282.025 137.603 282.159ZM137.302 280.653C137.608 280.592 137.868 280.466 138.083 280.276C138.298 280.086 138.45 279.848 138.54 279.561C138.627 279.266 138.635 278.938 138.563 278.577C138.489 278.208 138.356 277.909 138.163 277.678C137.97 277.447 137.738 277.286 137.466 277.193C137.195 277.101 136.906 277.085 136.6 277.146C136.294 277.208 136.034 277.333 135.819 277.523C135.604 277.713 135.448 277.952 135.351 278.241C135.261 278.528 135.253 278.856 135.327 279.225C135.399 279.585 135.533 279.885 135.727 280.124C135.928 280.353 136.164 280.513 136.436 280.606C136.707 280.698 136.996 280.714 137.302 280.653ZM145.236 273.851C145.739 273.75 146.206 273.763 146.639 273.888C147.078 274.004 147.453 274.248 147.764 274.618C148.073 274.98 148.292 275.483 148.421 276.126L149.147 279.75L147.311 280.118L146.642 276.776C146.54 276.266 146.351 275.912 146.075 275.715C145.806 275.516 145.468 275.457 145.06 275.538C144.77 275.596 144.52 275.712 144.31 275.884C144.106 276.048 143.962 276.268 143.879 276.546C143.804 276.822 143.805 277.156 143.884 277.548L144.51 280.678L142.675 281.046L141.408 274.715L143.161 274.364L143.512 276.118L143.076 275.654C143.219 275.185 143.479 274.794 143.858 274.482C144.236 274.17 144.695 273.959 145.236 273.851Z" fill="black"/>
<path d="M98.8146 372.509L97.1658 364.272L99.072 363.891L100.41 370.574L104.54 369.747L104.851 371.3L98.8146 372.509ZM109.187 370.53C108.512 370.665 107.884 370.644 107.302 370.467C106.727 370.288 106.239 369.987 105.835 369.561C105.438 369.127 105.177 368.596 105.051 367.968C104.924 367.333 104.961 366.742 105.162 366.196C105.369 365.641 105.704 365.174 106.166 364.796C106.635 364.408 107.207 364.147 107.882 364.012C108.549 363.878 109.173 363.9 109.755 364.077C110.336 364.247 110.824 364.545 111.219 364.971C111.615 365.398 111.877 365.933 112.005 366.576C112.131 367.204 112.094 367.794 111.895 368.348C111.694 368.894 111.36 369.361 110.891 369.749C110.421 370.136 109.854 370.397 109.187 370.53ZM108.885 369.024C109.191 368.963 109.452 368.837 109.667 368.648C109.881 368.458 110.034 368.219 110.123 367.932C110.211 367.637 110.219 367.309 110.146 366.948C110.073 366.58 109.939 366.28 109.746 366.049C109.553 365.819 109.321 365.657 109.049 365.565C108.778 365.472 108.489 365.457 108.183 365.518C107.877 365.579 107.617 365.705 107.402 365.895C107.187 366.084 107.031 366.324 106.934 366.612C106.845 366.9 106.837 367.227 106.911 367.596C106.983 367.957 107.116 368.257 107.311 368.495C107.512 368.724 107.748 368.885 108.019 368.977C108.291 369.07 108.579 369.086 108.885 369.024ZM117.289 368.908C116.615 369.043 115.986 369.022 115.404 368.845C114.83 368.666 114.341 368.365 113.938 367.939C113.541 367.505 113.28 366.974 113.154 366.346C113.027 365.711 113.064 365.12 113.264 364.574C113.471 364.019 113.806 363.552 114.269 363.174C114.738 362.786 115.31 362.525 115.984 362.39C116.651 362.256 117.276 362.278 117.858 362.455C118.438 362.625 118.926 362.923 119.322 363.349C119.717 363.776 119.979 364.311 120.108 364.954C120.234 365.582 120.197 366.172 119.998 366.726C119.797 367.272 119.462 367.739 118.993 368.127C118.524 368.514 117.956 368.775 117.289 368.908ZM116.988 367.402C117.294 367.341 117.554 367.216 117.769 367.026C117.984 366.836 118.136 366.597 118.226 366.31C118.313 366.015 118.321 365.687 118.249 365.326C118.175 364.958 118.042 364.658 117.849 364.427C117.656 364.197 117.423 364.035 117.152 363.943C116.881 363.85 116.592 363.835 116.286 363.896C115.98 363.957 115.72 364.083 115.505 364.273C115.29 364.462 115.134 364.702 115.036 364.99C114.947 365.278 114.939 365.605 115.013 365.974C115.085 366.335 115.219 366.635 115.413 366.873C115.614 367.102 115.85 367.263 116.122 367.355C116.393 367.448 116.682 367.464 116.988 367.402ZM123.62 366.197L123.219 363.952L125.612 360.56L127.8 360.122L125.542 363.573L124.744 364.54L123.62 366.197ZM122.361 367.795L120.613 359.065L122.449 358.697L124.196 367.428L122.361 367.795ZM127.079 366.851L124.405 364.62L125.273 362.966L129.303 366.406L127.079 366.851ZM138.062 364.799C136.894 365.033 135.915 364.89 135.125 364.371C134.336 363.852 133.82 362.988 133.579 361.78L132.655 357.168L134.561 356.786L135.471 361.328C135.628 362.113 135.902 362.645 136.292 362.926C136.683 363.207 137.169 363.289 137.749 363.173C138.33 363.057 138.746 362.794 138.999 362.384C139.251 361.975 139.299 361.378 139.142 360.593L138.233 356.051L140.115 355.675L141.039 360.287C141.28 361.495 141.137 362.491 140.608 363.274C140.08 364.057 139.231 364.565 138.062 364.799ZM147.671 362.827C147.138 362.933 146.647 362.909 146.2 362.754C145.753 362.599 145.368 362.304 145.045 361.871C144.728 361.429 144.495 360.839 144.348 360.102C144.199 359.357 144.182 358.724 144.298 358.203C144.414 357.682 144.648 357.264 145.001 356.948C145.354 356.633 145.809 356.419 146.366 356.308C146.962 356.188 147.523 356.219 148.049 356.399C148.581 356.57 149.033 356.871 149.405 357.303C149.784 357.733 150.04 358.277 150.172 358.936C150.306 359.603 150.28 360.208 150.095 360.75C149.918 361.292 149.616 361.744 149.191 362.106C148.774 362.467 148.267 362.707 147.671 362.827ZM144.368 365.764L142.643 357.151L144.397 356.8L144.656 358.094L144.997 359.984L145.489 361.831L146.203 365.397L144.368 365.764ZM147.052 361.384C147.358 361.323 147.614 361.198 147.821 361.01C148.036 360.82 148.189 360.581 148.278 360.294C148.374 359.998 148.385 359.669 148.313 359.308C148.239 358.939 148.102 358.641 147.901 358.411C147.708 358.181 147.476 358.019 147.204 357.927C146.941 357.833 146.656 357.816 146.35 357.878C146.044 357.939 145.784 358.064 145.569 358.254C145.354 358.444 145.202 358.683 145.112 358.97C145.023 359.257 145.015 359.585 145.089 359.953C145.161 360.314 145.295 360.614 145.489 360.852C145.682 361.083 145.914 361.245 146.186 361.337C146.457 361.43 146.746 361.445 147.052 361.384ZM151.984 358.891L150.543 353.587L152.731 353.149L153.443 358.599L151.984 358.891ZM153.305 361.699C152.975 361.765 152.683 361.713 152.429 361.544C152.175 361.374 152.019 361.144 151.961 360.854C151.901 360.556 151.957 360.288 152.13 360.049C152.301 359.803 152.551 359.647 152.881 359.581C153.218 359.513 153.509 359.561 153.754 359.724C154.005 359.878 154.16 360.104 154.22 360.402C154.278 360.692 154.222 360.964 154.053 361.219C153.891 361.471 153.642 361.631 153.305 361.699Z" fill="black"/>
<path d="M15.695 244.407C14.839 240.13 17.6117 235.97 21.888 235.114L171.586 205.147C175.863 204.291 180.023 207.063 180.879 211.34V211.34L15.695 244.407V244.407Z" fill="#FE2D01"/>
<rect x="85.3076" y="393.685" width="90.0216" height="23.1635" rx="11.5817" transform="rotate(-11.32 85.3076 393.685)" fill="#FE2D01"/>
<path d="M103.415 404.931L102.316 399.44L103.1 399.283L104.2 404.774L103.415 404.931ZM110.617 403.49L110.441 402.611L110.369 402.454L110.069 400.956C110.005 400.637 109.862 400.41 109.639 400.275C109.421 400.134 109.126 400.1 108.754 400.175C108.509 400.224 108.276 400.314 108.058 400.445C107.838 400.57 107.661 400.717 107.526 400.886L107.099 400.384C107.279 400.168 107.509 399.986 107.789 399.838C108.074 399.683 108.381 399.572 108.71 399.506C109.28 399.392 109.747 399.443 110.111 399.658C110.475 399.874 110.714 400.266 110.829 400.836L111.331 403.347L110.617 403.49ZM109.262 403.81C108.953 403.872 108.671 403.874 108.415 403.816C108.163 403.758 107.957 403.65 107.795 403.492C107.632 403.328 107.526 403.129 107.479 402.894C107.434 402.669 107.446 402.455 107.514 402.251C107.587 402.046 107.733 401.864 107.951 401.706C108.175 401.547 108.494 401.426 108.907 401.344L110.225 401.08L110.333 401.621L109.046 401.879C108.67 401.954 108.429 402.067 108.323 402.219C108.218 402.371 108.183 402.536 108.218 402.713C108.259 402.917 108.373 403.066 108.56 403.159C108.747 403.247 108.983 403.262 109.271 403.204C109.553 403.148 109.787 403.036 109.971 402.868C110.16 402.7 110.278 402.486 110.324 402.227L110.576 402.715C110.526 402.98 110.39 403.211 110.169 403.408C109.946 403.6 109.644 403.733 109.262 403.81ZM114.644 402.732C114.221 402.817 113.823 402.802 113.452 402.686C113.086 402.568 112.777 402.369 112.524 402.088C112.272 401.807 112.105 401.459 112.022 401.046C111.94 400.633 111.96 400.248 112.085 399.892C112.209 399.535 112.418 399.235 112.712 398.991C113.01 398.741 113.371 398.573 113.795 398.489C114.171 398.413 114.521 398.422 114.844 398.515C115.172 398.602 115.446 398.775 115.667 399.036L115.168 399.519C114.991 399.342 114.794 399.227 114.576 399.173C114.363 399.112 114.144 399.104 113.919 399.149C113.647 399.204 113.416 399.312 113.225 399.476C113.035 399.639 112.899 399.843 112.818 400.088C112.735 400.327 112.723 400.596 112.783 400.894C112.843 401.192 112.957 401.438 113.127 401.633C113.296 401.827 113.5 401.963 113.739 402.041C113.977 402.118 114.233 402.129 114.504 402.075C114.729 402.03 114.929 401.941 115.104 401.808C115.283 401.669 115.42 401.484 115.515 401.253L116.16 401.499C116.055 401.819 115.869 402.087 115.603 402.304C115.34 402.514 115.021 402.657 114.644 402.732ZM117.759 401.016L117.582 400.048L119.536 397.38L120.446 397.198L118.972 399.369L118.633 399.796L117.759 401.016ZM117.349 402.142L116.183 396.322L116.936 396.171L118.102 401.991L117.349 402.142ZM120.526 401.506L118.489 399.809L118.854 399.108L121.451 401.321L120.526 401.506ZM123.607 396.524C123.947 396.456 124.258 396.462 124.54 396.542C124.828 396.62 125.072 396.778 125.271 397.015C125.471 397.253 125.612 397.575 125.694 397.983L126.173 400.376L125.419 400.526L124.958 398.22C124.877 397.818 124.717 397.534 124.478 397.37C124.243 397.205 123.948 397.158 123.593 397.229C123.326 397.282 123.104 397.381 122.926 397.526C122.748 397.67 122.625 397.855 122.556 398.081C122.492 398.306 122.49 398.57 122.551 398.873L122.98 401.015L122.227 401.166L121.395 397.008L122.116 396.864L122.341 397.985L122.163 397.711C122.245 397.412 122.412 397.158 122.664 396.95C122.916 396.742 123.23 396.6 123.607 396.524ZM129.454 399.768C129.036 399.851 128.646 399.834 128.285 399.716C127.925 399.598 127.618 399.398 127.366 399.117C127.113 398.83 126.945 398.483 126.864 398.075C126.781 397.662 126.802 397.277 126.926 396.921C127.051 396.564 127.257 396.264 127.546 396.021C127.833 395.773 128.186 395.608 128.605 395.524C129.018 395.441 129.405 395.459 129.766 395.577C130.131 395.689 130.437 395.886 130.684 396.168C130.935 396.444 131.102 396.792 131.186 397.21C131.269 397.623 131.248 398.008 131.123 398.365C131.004 398.72 130.798 399.023 130.505 399.272C130.218 399.52 129.867 399.685 129.454 399.768ZM129.322 399.109C129.589 399.055 129.815 398.948 130 398.785C130.19 398.622 130.324 398.419 130.4 398.175C130.475 397.926 130.484 397.655 130.425 397.362C130.365 397.064 130.254 396.82 130.091 396.63C129.927 396.434 129.725 396.298 129.487 396.22C129.253 396.142 129.003 396.129 128.737 396.183C128.47 396.236 128.244 396.344 128.059 396.506C127.874 396.668 127.741 396.872 127.659 397.116C127.576 397.356 127.565 397.625 127.625 397.923C127.683 398.216 127.798 398.462 127.968 398.662C128.138 398.856 128.339 398.993 128.572 399.071C128.806 399.15 129.056 399.162 129.322 399.109ZM133.505 398.908L131.128 395.06L131.842 394.917L133.968 398.407L133.631 398.475L134.305 394.424L134.94 394.296L137.09 397.782L136.761 397.848L137.411 393.802L138.086 393.667L137.365 398.135L136.643 398.28L134.645 395.106L134.865 395.062L134.227 398.763L133.505 398.908ZM139.78 397.652L138.615 391.831L139.368 391.68L140.533 397.501L139.78 397.652ZM143.93 396.87C143.485 396.959 143.075 396.946 142.698 396.831C142.327 396.715 142.015 396.516 141.763 396.235C141.516 395.953 141.351 395.605 141.269 395.192C141.186 394.779 141.201 394.395 141.315 394.04C141.435 393.684 141.633 393.386 141.911 393.146C142.194 392.899 142.534 392.736 142.931 392.656C143.334 392.575 143.707 392.593 144.051 392.709C144.396 392.825 144.686 393.028 144.924 393.318C145.165 393.601 145.329 393.957 145.415 394.386C145.421 394.417 145.426 394.455 145.429 394.497C145.438 394.539 145.443 394.579 145.445 394.617L141.907 395.325L141.799 394.784L144.944 394.154L144.676 394.403C144.628 394.136 144.525 393.909 144.369 393.723C144.212 393.536 144.02 393.406 143.793 393.332C143.57 393.252 143.325 393.238 143.058 393.291C142.797 393.344 142.576 393.45 142.396 393.612C142.215 393.767 142.089 393.964 142.017 394.202C141.944 394.434 141.934 394.686 141.989 394.958L142.014 395.083C142.069 395.36 142.182 395.596 142.351 395.791C142.525 395.979 142.739 396.11 142.993 396.184C143.247 396.259 143.523 396.266 143.821 396.206C144.067 396.157 144.281 396.071 144.463 395.947C144.65 395.823 144.803 395.662 144.921 395.464L145.434 395.867C145.29 396.124 145.088 396.339 144.829 396.51C144.575 396.681 144.275 396.801 143.93 396.87ZM148.698 395.915C148.295 395.996 147.916 395.979 147.562 395.865C147.212 395.75 146.914 395.552 146.667 395.269C146.42 394.987 146.255 394.634 146.17 394.211C146.085 393.787 146.103 393.4 146.223 393.049C146.342 392.694 146.541 392.396 146.819 392.155C147.102 391.913 147.445 391.752 147.848 391.672C148.198 391.602 148.531 391.617 148.844 391.717C149.158 391.817 149.43 392.008 149.66 392.288C149.896 392.567 150.06 392.942 150.155 393.413C150.249 393.883 150.244 394.292 150.139 394.64C150.04 394.986 149.865 395.268 149.615 395.487C149.364 395.7 149.058 395.843 148.698 395.915ZM148.628 395.244C148.89 395.192 149.113 395.084 149.298 394.922C149.489 394.759 149.622 394.556 149.698 394.312C149.779 394.062 149.79 393.79 149.731 393.498C149.671 393.2 149.557 392.956 149.389 392.767C149.225 392.571 149.023 392.435 148.785 392.357C148.552 392.279 148.304 392.266 148.043 392.318C147.776 392.371 147.55 392.479 147.365 392.641C147.18 392.804 147.047 393.007 146.965 393.252C146.882 393.491 146.871 393.76 146.931 394.058C146.989 394.351 147.104 394.597 147.274 394.797C147.444 394.992 147.645 395.128 147.878 395.206C148.112 395.285 148.362 395.297 148.628 395.244ZM150.171 395.572L149.946 394.45L149.8 393.476L149.529 392.526L148.974 389.757L149.727 389.607L150.892 395.427L150.171 395.572ZM154.549 396.327C154.168 396.403 153.785 396.423 153.402 396.385C153.026 396.352 152.705 396.258 152.441 396.104L152.685 395.452C152.912 395.58 153.176 395.663 153.478 395.701C153.78 395.744 154.085 395.734 154.394 395.673C154.885 395.574 155.223 395.387 155.407 395.111C155.591 394.835 155.636 394.461 155.542 393.991L155.366 393.112L155.28 392.273L155.074 391.449L154.846 390.312L155.56 390.169L156.279 393.761C156.426 394.494 156.351 395.069 156.054 395.487C155.757 395.906 155.255 396.186 154.549 396.327ZM154.107 394.604C153.704 394.685 153.326 394.673 152.974 394.57C152.625 394.46 152.327 394.272 152.078 394.007C151.834 393.74 151.672 393.408 151.593 393.011C151.512 392.608 151.534 392.239 151.657 391.905C151.785 391.564 151.988 391.278 152.269 391.048C152.554 390.817 152.898 390.661 153.301 390.58C153.657 390.509 153.996 390.517 154.318 390.605C154.639 390.688 154.915 390.861 155.148 391.124C155.385 391.387 155.549 391.745 155.641 392.2C155.731 392.65 155.717 393.042 155.598 393.376C155.486 393.708 155.298 393.98 155.035 394.19C154.772 394.395 154.462 394.533 154.107 394.604ZM154.061 393.928C154.338 393.873 154.572 393.766 154.764 393.608C154.955 393.45 155.091 393.257 155.17 393.029C155.255 392.8 155.27 392.552 155.217 392.285C155.164 392.018 155.054 391.796 154.887 391.617C154.726 391.437 154.528 391.314 154.291 391.247C154.054 391.175 153.796 391.166 153.519 391.222C153.242 391.277 153.005 391.384 152.809 391.544C152.616 391.696 152.478 391.887 152.393 392.116C152.313 392.344 152.3 392.592 152.354 392.858C152.407 393.125 152.514 393.348 152.676 393.528C152.842 393.707 153.044 393.833 153.281 393.905C153.524 393.976 153.784 393.984 154.061 393.928ZM159.79 393.695C159.346 393.784 158.935 393.771 158.558 393.656C158.187 393.54 157.875 393.341 157.623 393.06C157.376 392.778 157.212 392.43 157.129 392.017C157.046 391.604 157.062 391.22 157.176 390.865C157.295 390.509 157.494 390.211 157.772 389.971C158.054 389.724 158.394 389.561 158.792 389.481C159.194 389.4 159.568 389.418 159.912 389.534C160.256 389.65 160.547 389.853 160.784 390.143C161.026 390.426 161.19 390.782 161.275 391.211C161.282 391.242 161.286 391.28 161.29 391.322C161.298 391.364 161.303 391.404 161.305 391.442L157.767 392.15L157.659 391.609L160.805 390.979L160.536 391.228C160.488 390.961 160.386 390.734 160.229 390.548C160.072 390.361 159.88 390.231 159.653 390.157C159.43 390.077 159.185 390.063 158.919 390.116C158.657 390.169 158.437 390.275 158.257 390.437C158.076 390.592 157.949 390.789 157.877 391.027C157.804 391.259 157.795 391.511 157.849 391.783L157.874 391.908C157.93 392.185 158.042 392.421 158.212 392.616C158.385 392.804 158.599 392.935 158.853 393.01C159.107 393.084 159.384 393.091 159.682 393.031C159.928 392.982 160.141 392.896 160.323 392.772C160.511 392.648 160.663 392.487 160.781 392.289L161.295 392.692C161.15 392.949 160.948 393.164 160.689 393.336C160.435 393.506 160.135 393.626 159.79 393.695Z" fill="#FCFCFC"/>
</g>
</g>
<g filter="url(#filter2_d_1121_5961)">
<g filter="url(#filter3_d_1121_5961)">
<rect x="264.045" y="44.6815" width="108.12" height="233.92" rx="10" transform="rotate(9.5 264.045 44.6815)" fill="#FE5734" fill-opacity="0.99"/>
</g>
<path d="M267.816 110.835L271.987 104.463L273.563 104.74L275.547 112.197L273.872 111.902L272.321 105.354L272.952 105.465L269.45 111.123L267.816 110.835ZM269.587 109.624L270.204 108.484L273.749 109.108L273.99 110.399L269.587 109.624ZM276.262 112.323L277.361 105.409L280.345 105.935C280.962 106.044 281.477 106.239 281.891 106.522C282.307 106.798 282.606 107.146 282.789 107.564C282.972 107.982 283.023 108.451 282.94 108.971C282.858 109.484 282.666 109.908 282.364 110.24C282.061 110.573 281.67 110.801 281.191 110.927C280.713 111.046 280.166 111.051 279.549 110.942L277.451 110.573L278.275 109.977L277.857 112.604L276.262 112.323ZM278.247 110.154L277.658 109.269L279.667 109.623C280.16 109.71 280.544 109.669 280.821 109.501C281.097 109.333 281.265 109.062 281.325 108.686C281.385 108.305 281.311 107.987 281.102 107.733C280.892 107.48 280.541 107.31 280.049 107.223L278.04 106.869L278.87 106.234L278.247 110.154ZM283.379 113.576L284.478 106.663L287.462 107.189C288.079 107.298 288.594 107.493 289.008 107.776C289.424 108.052 289.723 108.399 289.906 108.817C290.089 109.235 290.14 109.705 290.057 110.225C289.975 110.738 289.783 111.161 289.48 111.494C289.178 111.826 288.787 112.055 288.308 112.181C287.83 112.3 287.283 112.305 286.666 112.196L284.568 111.826L285.392 111.23L284.974 113.857L283.379 113.576ZM285.363 111.408L284.775 110.523L286.784 110.877C287.277 110.963 287.661 110.923 287.938 110.755C288.214 110.587 288.382 110.315 288.442 109.94C288.502 109.558 288.428 109.241 288.219 108.987C288.009 108.734 287.658 108.564 287.166 108.477L285.157 108.123L285.987 107.487L285.363 111.408ZM290.496 114.83L291.595 107.917L294.579 108.443C295.196 108.551 295.711 108.747 296.125 109.03C296.54 109.306 296.84 109.653 297.023 110.071C297.206 110.489 297.256 110.958 297.174 111.479C297.092 111.992 296.9 112.415 296.597 112.748C296.296 113.073 295.906 113.296 295.428 113.415C294.951 113.534 294.403 113.539 293.786 113.43L291.688 113.06L292.509 112.484L292.091 115.111L290.496 114.83ZM294.878 115.602L293.553 112.79L295.257 113.09L296.602 115.906L294.878 115.602ZM292.48 112.662L291.891 111.786L293.9 112.14C294.392 112.227 294.777 112.187 295.053 112.019C295.33 111.844 295.499 111.569 295.559 111.194C295.619 110.812 295.545 110.494 295.336 110.241C295.126 109.987 294.775 109.817 294.283 109.731L292.274 109.377L293.104 108.741L292.48 112.662ZM301.067 116.814C300.522 116.718 300.031 116.54 299.593 116.28C299.162 116.022 298.801 115.701 298.511 115.318C298.227 114.937 298.025 114.512 297.903 114.044C297.789 113.577 297.772 113.087 297.854 112.573C297.935 112.059 298.103 111.602 298.356 111.199C298.615 110.798 298.941 110.467 299.334 110.204C299.727 109.942 300.167 109.762 300.655 109.665C301.143 109.568 301.656 109.567 302.194 109.662C302.739 109.758 303.224 109.935 303.649 110.193C304.08 110.451 304.437 110.772 304.721 111.153C305.011 111.536 305.217 111.961 305.338 112.429C305.46 112.891 305.48 113.382 305.398 113.902C305.316 114.415 305.145 114.876 304.884 115.284C304.625 115.685 304.299 116.016 303.906 116.279C303.521 116.536 303.085 116.713 302.597 116.81C302.115 116.908 301.606 116.909 301.067 116.814ZM301.274 115.45C301.583 115.504 301.873 115.501 302.146 115.441C302.426 115.382 302.679 115.271 302.908 115.108C303.136 114.945 303.324 114.738 303.472 114.487C303.627 114.236 303.73 113.947 303.783 113.617C303.835 113.288 303.827 112.979 303.758 112.689C303.696 112.401 303.582 112.14 303.416 111.908C303.257 111.677 303.055 111.486 302.809 111.334C302.563 111.183 302.286 111.08 301.977 111.025C301.669 110.971 301.375 110.973 301.095 111.032C300.823 111.093 300.572 111.204 300.344 111.367C300.115 111.53 299.924 111.736 299.769 111.987C299.621 112.238 299.521 112.528 299.469 112.857C299.418 113.18 299.423 113.489 299.484 113.784C299.552 114.074 299.666 114.334 299.825 114.565C299.991 114.797 300.197 114.989 300.442 115.141C300.688 115.292 300.965 115.395 301.274 115.45ZM305.045 117.393L309.217 111.021L310.792 111.299L312.776 118.755L311.102 118.46L309.551 111.913L310.181 112.024L306.68 117.681L305.045 117.393ZM306.817 116.182L307.433 115.042L310.979 115.667L311.219 116.958L306.817 116.182ZM316.675 119.564C316.144 119.47 315.661 119.297 315.229 119.045C314.804 118.788 314.45 118.468 314.167 118.086C313.883 117.705 313.681 117.28 313.559 116.812C313.444 116.345 313.428 115.851 313.511 115.331C313.594 114.811 313.762 114.35 314.015 113.948C314.274 113.547 314.597 113.215 314.983 112.951C315.376 112.688 315.812 112.511 316.292 112.42C316.774 112.322 317.283 112.321 317.822 112.415C318.419 112.521 318.941 112.721 319.387 113.016C319.84 113.306 320.199 113.68 320.463 114.14L319.289 114.907C319.095 114.596 318.864 114.349 318.596 114.166C318.33 113.977 318.025 113.852 317.684 113.792C317.362 113.736 317.058 113.736 316.772 113.794C316.487 113.852 316.229 113.962 316.001 114.125C315.773 114.288 315.581 114.495 315.427 114.745C315.279 114.996 315.179 115.287 315.126 115.616C315.074 115.945 315.079 116.254 315.141 116.542C315.21 116.832 315.327 117.093 315.492 117.325C315.658 117.557 315.867 117.75 316.119 117.902C316.372 118.055 316.659 118.16 316.981 118.217C317.322 118.277 317.648 118.266 317.957 118.186C318.268 118.098 318.564 117.937 318.844 117.702L319.718 118.831C319.326 119.175 318.87 119.409 318.351 119.534C317.838 119.66 317.279 119.67 316.675 119.564ZM326.444 114.056L328.039 114.337L326.94 121.25L325.345 120.969L326.444 114.056ZM322.213 120.418L320.618 120.137L321.717 113.223L323.312 113.504L322.213 120.418ZM325.914 118.156L322.546 117.562L322.761 116.209L326.129 116.803L325.914 118.156ZM328.571 121.538L329.67 114.625L331.266 114.906L330.167 121.819L328.571 121.538ZM331.803 122.107L332.902 115.194L334.222 115.426L337.498 121.12L336.858 121.008L337.649 116.03L339.225 116.308L338.126 123.221L336.816 122.99L333.53 117.294L334.17 117.407L333.379 122.385L331.803 122.107ZM343.067 124.213C342.522 124.117 342.033 123.943 341.601 123.691C341.176 123.433 340.818 123.113 340.528 122.73C340.245 122.349 340.042 121.924 339.921 121.456C339.806 120.989 339.79 120.495 339.873 119.975C339.955 119.455 340.123 118.994 340.376 118.592C340.636 118.191 340.962 117.859 341.354 117.597C341.747 117.334 342.187 117.158 342.674 117.068C343.161 116.971 343.681 116.971 344.233 117.068C344.843 117.176 345.375 117.374 345.829 117.664C346.289 117.955 346.655 118.324 346.928 118.772L345.753 119.539C345.546 119.232 345.304 118.99 345.029 118.813C344.754 118.629 344.443 118.506 344.095 118.445C343.76 118.386 343.446 118.385 343.154 118.442C342.861 118.498 342.598 118.608 342.363 118.769C342.134 118.932 341.943 119.139 341.788 119.389C341.64 119.64 341.54 119.931 341.488 120.26C341.437 120.582 341.442 120.888 341.504 121.176C341.573 121.466 341.69 121.73 341.854 121.969C342.026 122.202 342.238 122.396 342.491 122.548C342.75 122.702 343.044 122.808 343.372 122.866C343.687 122.921 344 122.926 344.311 122.879C344.63 122.827 344.95 122.704 345.271 122.51L345.993 123.825C345.574 124.042 345.103 124.183 344.58 124.246C344.063 124.311 343.559 124.3 343.067 124.213ZM344.569 123.361L344.982 120.764L346.439 121.02L345.993 123.825L344.569 123.361Z" fill="#F9FAFB"/>
<path d="M267.012 127.845L268.111 120.932L269.706 121.213L268.607 128.126L267.012 127.845ZM270.243 128.414L271.342 121.501L272.662 121.733L275.938 127.427L275.298 127.315L276.089 122.337L277.665 122.615L276.566 129.528L275.256 129.297L271.97 123.601L272.61 123.714L271.819 128.692L270.243 128.414ZM279.625 130.067L280.517 124.457L278.311 124.069L278.518 122.765L284.525 123.823L284.318 125.127L282.112 124.738L281.22 130.348L279.625 130.067ZM286.409 127.018L289.727 127.603L289.53 128.847L286.211 128.262L286.409 127.018ZM286.075 129.883L289.827 130.544L289.623 131.828L284.285 130.888L285.384 123.975L290.594 124.892L290.39 126.176L286.765 125.538L286.075 129.883ZM290.892 132.052L291.991 125.139L294.975 125.664C295.592 125.773 296.108 125.969 296.522 126.251C296.937 126.528 297.236 126.875 297.419 127.293C297.603 127.711 297.653 128.18 297.57 128.7C297.489 129.214 297.297 129.637 296.994 129.969C296.692 130.295 296.303 130.518 295.825 130.636C295.347 130.755 294.799 130.76 294.182 130.652L292.085 130.282L292.905 129.706L292.488 132.333L290.892 132.052ZM295.275 132.824L293.95 130.012L295.654 130.312L296.998 133.127L295.275 132.824ZM292.877 129.884L292.287 129.008L294.296 129.362C294.789 129.449 295.173 129.408 295.449 129.24C295.727 129.066 295.895 128.791 295.955 128.416C296.016 128.034 295.941 127.716 295.732 127.463C295.523 127.209 295.172 127.039 294.679 126.952L292.67 126.598L293.5 125.963L292.877 129.884ZM300.38 133.845C299.829 133.748 299.312 133.582 298.829 133.348C298.348 133.108 297.972 132.842 297.701 132.551L298.434 131.441C298.696 131.704 299.016 131.94 299.395 132.149C299.781 132.352 300.181 132.49 300.594 132.563C300.909 132.618 301.167 132.633 301.367 132.608C301.574 132.577 301.733 132.513 301.843 132.417C301.952 132.322 302.019 132.201 302.042 132.056C302.071 131.872 302.022 131.715 301.894 131.584C301.767 131.446 301.591 131.324 301.365 131.216C301.14 131.102 300.888 130.99 300.609 130.88C300.337 130.765 300.064 130.635 299.79 130.492C299.522 130.35 299.281 130.186 299.068 130C298.855 129.813 298.691 129.588 298.578 129.324C298.471 129.062 298.447 128.746 298.506 128.378C298.569 127.983 298.731 127.642 298.992 127.357C299.261 127.066 299.624 126.862 300.081 126.747C300.546 126.625 301.103 126.622 301.753 126.737C302.187 126.813 302.605 126.941 303.009 127.12C303.413 127.293 303.76 127.51 304.049 127.77L303.364 128.898C303.071 128.657 302.771 128.466 302.463 128.323C302.156 128.175 301.848 128.073 301.539 128.019C301.231 127.964 300.972 127.956 300.764 127.994C300.555 128.031 300.399 128.102 300.295 128.205C300.192 128.302 300.128 128.427 300.104 128.578C300.076 128.756 300.125 128.913 300.252 129.051C300.379 129.181 300.556 129.301 300.782 129.408C301.008 129.516 301.257 129.627 301.529 129.743C301.807 129.859 302.081 129.985 302.349 130.121C302.625 130.257 302.869 130.419 303.082 130.605C303.296 130.792 303.456 131.016 303.562 131.279C303.676 131.542 303.704 131.855 303.646 132.217C303.584 132.606 303.419 132.942 303.151 133.227C302.884 133.511 302.517 133.714 302.052 133.835C301.594 133.957 301.037 133.961 300.38 133.845ZM306.538 130.564L309.857 131.149L309.659 132.393L306.34 131.809L306.538 130.564ZM306.204 133.429L309.956 134.09L309.752 135.374L304.414 134.434L305.513 127.521L310.723 128.439L310.519 129.722L306.895 129.084L306.204 133.429ZM314.302 136.298C313.77 136.204 313.288 136.031 312.856 135.779C312.431 135.521 312.077 135.202 311.793 134.82C311.51 134.438 311.307 134.014 311.186 133.546C311.071 133.079 311.055 132.585 311.138 132.065C311.22 131.545 311.388 131.084 311.641 130.682C311.901 130.281 312.223 129.948 312.61 129.685C313.002 129.422 313.439 129.245 313.919 129.154C314.4 129.056 314.91 129.054 315.448 129.149C316.046 129.254 316.568 129.455 317.013 129.75C317.467 130.039 317.826 130.414 318.09 130.873L316.915 131.641C316.722 131.33 316.491 131.082 316.223 130.9C315.956 130.711 315.652 130.586 315.311 130.526C314.989 130.469 314.685 130.47 314.399 130.528C314.113 130.586 313.856 130.696 313.628 130.859C313.399 131.022 313.208 131.228 313.053 131.479C312.905 131.73 312.805 132.02 312.753 132.349C312.701 132.679 312.705 132.988 312.768 133.276C312.836 133.566 312.953 133.826 313.119 134.059C313.285 134.291 313.494 134.483 313.746 134.636C313.998 134.789 314.286 134.894 314.607 134.95C314.949 135.01 315.274 135 315.584 134.919C315.895 134.832 316.191 134.671 316.471 134.436L317.344 135.565C316.952 135.908 316.497 136.143 315.977 136.268C315.464 136.394 314.906 136.404 314.302 136.298ZM319.605 137.11L320.497 131.5L318.291 131.112L318.498 129.808L324.505 130.867L324.298 132.17L322.092 131.782L321.2 137.391L319.605 137.11ZM324.265 137.931L325.364 131.018L326.959 131.299L325.86 138.212L324.265 137.931ZM330.826 139.209C330.281 139.113 329.79 138.935 329.352 138.675C328.92 138.416 328.56 138.095 328.27 137.713C327.986 137.331 327.784 136.906 327.662 136.438C327.547 135.971 327.531 135.481 327.613 134.967C327.694 134.454 327.861 133.996 328.114 133.594C328.374 133.193 328.7 132.861 329.093 132.599C329.485 132.336 329.926 132.156 330.413 132.06C330.901 131.963 331.414 131.962 331.953 132.057C332.498 132.153 332.983 132.329 333.407 132.587C333.839 132.846 334.196 133.166 334.48 133.548C334.77 133.93 334.976 134.356 335.097 134.824C335.219 135.285 335.239 135.776 335.156 136.296C335.075 136.81 334.904 137.27 334.643 137.678C334.384 138.079 334.058 138.411 333.665 138.673C333.28 138.93 332.843 139.107 332.356 139.204C331.874 139.302 331.364 139.303 330.826 139.209ZM331.033 137.844C331.341 137.898 331.632 137.895 331.905 137.835C332.184 137.776 332.438 137.665 332.667 137.502C332.895 137.34 333.083 137.132 333.231 136.881C333.386 136.631 333.489 136.341 333.541 136.012C333.594 135.683 333.585 135.373 333.517 135.084C333.455 134.795 333.341 134.535 333.175 134.303C333.016 134.071 332.814 133.88 332.568 133.729C332.322 133.577 332.045 133.474 331.736 133.42C331.428 133.365 331.134 133.368 330.854 133.427C330.581 133.487 330.331 133.598 330.102 133.761C329.874 133.924 329.683 134.131 329.528 134.381C329.38 134.632 329.28 134.923 329.228 135.252C329.176 135.574 329.181 135.883 329.242 136.178C329.311 136.468 329.425 136.728 329.584 136.959C329.75 137.192 329.955 137.383 330.201 137.535C330.447 137.687 330.724 137.79 331.033 137.844ZM335.806 139.964L336.905 133.051L338.225 133.283L341.501 138.977L340.861 138.865L341.652 133.887L343.228 134.165L342.129 141.078L340.819 140.847L337.533 135.151L338.173 135.264L337.382 140.242L335.806 139.964Z" fill="#F9FAFB"/>
<path d="M269.165 207.764L270.264 200.851L271.86 201.132L270.968 206.741L274.425 207.35L274.217 208.654L269.165 207.764ZM278.323 209.499C277.778 209.403 277.287 209.225 276.849 208.965C276.417 208.707 276.057 208.386 275.767 208.003C275.483 207.621 275.281 207.197 275.159 206.728C275.044 206.262 275.028 205.771 275.11 205.258C275.191 204.744 275.358 204.286 275.611 203.884C275.871 203.483 276.197 203.151 276.59 202.889C276.982 202.627 277.423 202.447 277.91 202.35C278.398 202.253 278.911 202.252 279.45 202.347C279.995 202.443 280.48 202.62 280.904 202.878C281.336 203.136 281.693 203.456 281.977 203.838C282.267 204.221 282.472 204.646 282.594 205.114C282.716 205.576 282.736 206.067 282.653 206.587C282.572 207.1 282.401 207.561 282.14 207.968C281.881 208.369 281.555 208.701 281.162 208.964C280.777 209.221 280.34 209.398 279.852 209.494C279.371 209.592 278.861 209.594 278.323 209.499ZM278.53 208.134C278.838 208.189 279.129 208.186 279.402 208.126C279.681 208.067 279.935 207.956 280.163 207.793C280.392 207.63 280.58 207.423 280.728 207.171C280.882 206.921 280.986 206.631 281.038 206.302C281.091 205.973 281.082 205.664 281.014 205.374C280.952 205.086 280.838 204.825 280.672 204.593C280.513 204.362 280.311 204.171 280.065 204.019C279.819 203.867 279.542 203.764 279.233 203.71C278.925 203.656 278.631 203.658 278.351 203.717C278.078 203.777 277.828 203.889 277.599 204.052C277.371 204.215 277.18 204.421 277.025 204.671C276.877 204.923 276.777 205.213 276.725 205.542C276.673 205.865 276.678 206.174 276.739 206.469C276.808 206.758 276.922 207.019 277.081 207.25C277.247 207.482 277.452 207.674 277.698 207.826C277.944 207.977 278.221 208.08 278.53 208.134ZM286.633 210.963C286.088 210.867 285.596 210.689 285.158 210.429C284.727 210.17 284.366 209.85 284.076 209.467C283.793 209.085 283.59 208.66 283.469 208.192C283.354 207.725 283.337 207.235 283.419 206.722C283.501 206.208 283.668 205.75 283.921 205.348C284.18 204.947 284.506 204.615 284.899 204.353C285.292 204.09 285.732 203.911 286.22 203.814C286.708 203.717 287.221 203.716 287.759 203.811C288.304 203.907 288.789 204.084 289.214 204.341C289.645 204.6 290.003 204.92 290.286 205.302C290.576 205.685 290.782 206.11 290.903 206.578C291.026 207.04 291.046 207.53 290.963 208.051C290.881 208.564 290.71 209.025 290.45 209.432C290.19 209.833 289.864 210.165 289.471 210.428C289.086 210.685 288.65 210.862 288.162 210.958C287.681 211.056 287.171 211.058 286.633 210.963ZM286.839 209.598C287.148 209.653 287.439 209.65 287.711 209.59C287.991 209.53 288.245 209.42 288.473 209.257C288.701 209.094 288.89 208.887 289.037 208.635C289.192 208.385 289.295 208.095 289.348 207.766C289.4 207.437 289.392 207.127 289.323 206.838C289.261 206.549 289.147 206.289 288.982 206.057C288.823 205.826 288.62 205.634 288.374 205.483C288.128 205.331 287.851 205.228 287.543 205.174C287.234 205.12 286.94 205.122 286.661 205.181C286.388 205.241 286.137 205.353 285.909 205.516C285.681 205.678 285.489 205.885 285.335 206.135C285.187 206.387 285.087 206.677 285.034 207.006C284.983 207.329 284.988 207.638 285.049 207.933C285.118 208.222 285.231 208.483 285.39 208.714C285.556 208.946 285.762 209.138 286.008 209.289C286.254 209.441 286.531 209.544 286.839 209.598ZM293.292 210.39L293.497 208.527L297.35 205.622L299.123 205.935L295.638 208.62L294.601 209.412L293.292 210.39ZM291.612 211.718L292.711 204.805L294.297 205.085L293.198 211.998L291.612 211.718ZM296.33 212.55L294.356 209.105L295.581 208.153L298.191 212.877L296.33 212.55ZM304.736 214.152C303.757 213.98 303.036 213.572 302.571 212.928C302.107 212.285 301.955 211.456 302.116 210.442L302.731 206.57L304.327 206.852L303.721 210.664C303.616 211.322 303.676 211.82 303.899 212.157C304.122 212.494 304.476 212.705 304.962 212.791C305.448 212.877 305.849 212.798 306.164 212.556C306.479 212.314 306.689 211.863 306.794 211.205L307.4 207.393L308.975 207.67L308.36 211.542C308.199 212.556 307.799 213.287 307.161 213.737C306.522 214.186 305.714 214.325 304.736 214.152ZM309.453 214.861L310.552 207.948L313.536 208.474C314.153 208.583 314.669 208.778 315.083 209.061C315.498 209.337 315.797 209.684 315.98 210.102C316.163 210.521 316.214 210.99 316.131 211.51C316.049 212.023 315.857 212.446 315.555 212.779C315.252 213.111 314.861 213.34 314.383 213.466C313.905 213.585 313.357 213.59 312.74 213.481L310.642 213.111L311.466 212.515L311.048 215.142L309.453 214.861ZM311.438 212.693L310.85 211.808L312.859 212.162C313.351 212.249 313.735 212.208 314.012 212.04C314.288 211.872 314.456 211.601 314.516 211.225C314.577 210.843 314.502 210.526 314.293 210.272C314.083 210.019 313.733 209.849 313.24 209.762L311.231 209.408L312.061 208.772L311.438 212.693Z" fill="#F9FAFB"/>
<path d="M303.396 149.326C302.733 147.574 300.486 147.198 299.289 148.639L280.794 170.892C279.561 172.375 280.361 174.658 282.223 174.97L310.959 179.778C312.821 180.09 314.321 178.192 313.638 176.388L303.396 149.326ZM300.125 156.239C301.246 156.427 301.96 157.55 301.66 158.658L299.684 165.947C299.525 166.534 298.951 166.906 298.356 166.806C297.761 166.707 297.339 166.169 297.38 165.562L297.886 158.026C297.962 156.881 299.003 156.051 300.125 156.239ZM298.006 168.92C299.163 169.114 299.943 170.217 299.748 171.384C299.552 172.552 298.456 173.341 297.298 173.147C296.141 172.953 295.361 171.85 295.557 170.683C295.752 169.516 296.848 168.726 298.006 168.92Z" fill="white"/>
<rect x="263.36" y="212.369" width="54" height="14" rx="7" transform="rotate(9.5 263.36 212.369)" fill="white"/>
<path d="M270.12 222.626L270.698 219.174L271.191 219.256L270.613 222.708L270.12 222.626ZM274.722 223.396L274.814 222.843L274.807 222.736L274.964 221.794C274.998 221.593 274.965 221.429 274.865 221.3C274.768 221.169 274.603 221.084 274.37 221.045C274.215 221.019 274.06 221.02 273.903 221.048C273.747 221.073 273.611 221.119 273.494 221.188L273.356 220.8C273.509 220.714 273.684 220.659 273.881 220.634C274.082 220.607 274.285 220.61 274.493 220.645C274.851 220.705 275.113 220.838 275.277 221.045C275.442 221.252 275.495 221.534 275.435 221.893L275.171 223.471L274.722 223.396ZM273.859 223.282C273.665 223.249 273.499 223.188 273.362 223.097C273.229 223.007 273.132 222.898 273.072 222.77C273.013 222.638 272.996 222.499 273.021 222.351C273.045 222.209 273.099 222.087 273.184 221.982C273.272 221.879 273.398 221.805 273.561 221.762C273.727 221.718 273.94 221.719 274.199 221.762L275.028 221.901L274.971 222.241L274.162 222.106C273.925 222.066 273.759 222.079 273.664 222.144C273.568 222.209 273.511 222.298 273.493 222.409C273.471 222.538 273.505 222.65 273.594 222.746C273.683 222.838 273.818 222.9 273.999 222.93C274.176 222.96 274.337 222.946 274.482 222.889C274.63 222.833 274.746 222.734 274.831 222.593L274.87 222.934C274.782 223.078 274.651 223.183 274.478 223.248C274.305 223.311 274.099 223.322 273.859 223.282ZM277.279 223.854C277.013 223.81 276.784 223.712 276.593 223.562C276.405 223.412 276.269 223.227 276.184 223.007C276.1 222.786 276.079 222.546 276.122 222.287C276.166 222.027 276.263 221.807 276.415 221.626C276.567 221.445 276.756 221.316 276.982 221.239C277.212 221.159 277.46 221.142 277.726 221.186C277.963 221.226 278.165 221.309 278.333 221.435C278.505 221.558 278.627 221.721 278.698 221.922L278.299 222.093C278.235 221.951 278.146 221.839 278.03 221.759C277.919 221.677 277.793 221.623 277.652 221.6C277.481 221.571 277.322 221.583 277.174 221.636C277.027 221.689 276.902 221.778 276.8 221.903C276.698 222.025 276.632 222.179 276.601 222.367C276.569 222.554 276.582 222.723 276.637 222.875C276.693 223.026 276.782 223.151 276.904 223.249C277.026 223.347 277.173 223.41 277.344 223.439C277.485 223.463 277.622 223.455 277.753 223.416C277.889 223.375 278.01 223.297 278.117 223.183L278.439 223.47C278.307 223.634 278.139 223.749 277.935 223.817C277.735 223.881 277.516 223.894 277.279 223.854ZM279.518 223.549L279.629 222.944L281.363 221.82L281.935 221.916L280.592 222.857L280.299 223.031L279.518 223.549ZM279.027 224.116L279.64 220.457L280.113 220.536L279.501 224.195L279.027 224.116ZM281.025 224.45L280.212 223.006L280.581 222.678L281.607 224.548L281.025 224.45ZM283.968 222.231C284.182 222.267 284.362 222.339 284.51 222.448C284.66 222.558 284.768 222.704 284.832 222.887C284.896 223.07 284.906 223.29 284.863 223.547L284.612 225.051L284.138 224.971L284.381 223.522C284.423 223.268 284.393 223.067 284.289 222.918C284.189 222.77 284.027 222.677 283.804 222.639C283.636 222.611 283.484 222.62 283.348 222.664C283.212 222.709 283.099 222.79 283.009 222.907C282.921 223.024 282.862 223.178 282.83 223.369L282.605 224.715L282.131 224.636L282.569 222.022L283.022 222.098L282.904 222.803L282.862 222.603C282.976 222.447 283.129 222.335 283.323 222.27C283.516 222.204 283.732 222.191 283.968 222.231ZM286.701 225.431C286.438 225.387 286.214 225.29 286.03 225.141C285.845 224.992 285.71 224.807 285.625 224.587C285.541 224.363 285.521 224.123 285.563 223.867C285.607 223.607 285.705 223.387 285.857 223.206C286.008 223.025 286.196 222.896 286.418 222.818C286.641 222.737 286.884 222.719 287.147 222.763C287.407 222.806 287.629 222.903 287.814 223.052C288.002 223.198 288.137 223.381 288.219 223.601C288.304 223.818 288.325 224.058 288.281 224.321C288.237 224.581 288.14 224.801 287.988 224.982C287.839 225.163 287.652 225.294 287.425 225.374C287.202 225.455 286.961 225.474 286.701 225.431ZM286.77 225.016C286.938 225.045 287.094 225.032 287.238 224.978C287.385 224.925 287.509 224.836 287.607 224.71C287.707 224.582 287.772 224.425 287.802 224.241C287.834 224.054 287.823 223.886 287.77 223.739C287.717 223.588 287.63 223.464 287.508 223.366C287.389 223.268 287.246 223.205 287.078 223.177C286.91 223.149 286.754 223.162 286.61 223.215C286.466 223.269 286.343 223.358 286.241 223.483C286.14 223.605 286.073 223.759 286.042 223.947C286.011 224.131 286.023 224.3 286.078 224.455C286.134 224.606 286.222 224.73 286.34 224.828C286.459 224.926 286.603 224.988 286.77 225.016ZM289.295 225.834L288.761 223.058L289.21 223.133L289.677 225.645L289.465 225.609L290.759 223.392L291.158 223.459L291.64 225.973L291.433 225.939L292.711 223.719L293.136 223.79L291.722 226.24L291.268 226.165L290.806 223.867L290.944 223.89L289.749 225.91L289.295 225.834ZM293.277 226.501L293.889 222.842L294.363 222.921L293.751 226.58L293.277 226.501ZM295.912 226.972C295.633 226.925 295.396 226.827 295.201 226.676C295.01 226.525 294.872 226.34 294.787 226.12C294.706 225.9 294.687 225.66 294.73 225.401C294.774 225.141 294.868 224.92 295.013 224.738C295.162 224.557 295.344 224.427 295.56 224.348C295.78 224.267 296.015 224.247 296.265 224.289C296.518 224.331 296.732 224.424 296.907 224.568C297.083 224.713 297.207 224.896 297.282 225.118C297.36 225.337 297.377 225.581 297.331 225.851C297.328 225.871 297.323 225.893 297.315 225.919C297.311 225.946 297.305 225.97 297.298 225.992L295.074 225.62L295.131 225.28L297.108 225.611L296.896 225.697C296.927 225.53 296.918 225.375 296.867 225.231C296.817 225.087 296.734 224.969 296.618 224.875C296.506 224.778 296.366 224.716 296.198 224.688C296.034 224.66 295.881 224.674 295.74 224.728C295.6 224.779 295.482 224.866 295.387 224.988C295.293 225.108 295.231 225.253 295.203 225.424L295.19 225.503C295.16 225.677 295.174 225.84 295.23 225.991C295.289 226.14 295.385 226.264 295.517 226.364C295.649 226.463 295.809 226.529 295.996 226.56C296.151 226.586 296.295 226.583 296.428 226.552C296.565 226.52 296.69 226.46 296.803 226.371L297.014 226.72C296.872 226.839 296.707 226.919 296.517 226.962C296.331 227.005 296.129 227.008 295.912 226.972ZM298.946 227.48C298.693 227.438 298.476 227.344 298.294 227.198C298.115 227.054 297.985 226.871 297.904 226.651C297.822 226.432 297.804 226.189 297.848 225.922C297.893 225.656 297.989 225.434 298.137 225.256C298.286 225.075 298.468 224.945 298.684 224.866C298.903 224.788 299.14 224.77 299.393 224.812C299.613 224.849 299.804 224.931 299.965 225.06C300.126 225.188 300.242 225.36 300.315 225.575C300.39 225.79 300.403 226.046 300.353 226.342C300.304 226.637 300.21 226.875 300.072 227.055C299.937 227.235 299.772 227.361 299.578 227.433C299.384 227.502 299.173 227.518 298.946 227.48ZM299.055 227.072C299.219 227.1 299.374 227.087 299.518 227.033C299.665 226.98 299.788 226.891 299.887 226.765C299.99 226.637 300.056 226.481 300.087 226.297C300.119 226.11 300.106 225.942 300.05 225.794C299.997 225.643 299.91 225.519 299.788 225.421C299.669 225.323 299.527 225.26 299.363 225.233C299.195 225.205 299.039 225.218 298.895 225.271C298.751 225.325 298.628 225.414 298.526 225.539C298.424 225.66 298.358 225.815 298.327 226.002C298.296 226.186 298.308 226.356 298.363 226.51C298.419 226.662 298.506 226.786 298.625 226.884C298.744 226.981 298.887 227.044 299.055 227.072ZM299.883 227.606L300.001 226.901L300.132 226.299L300.185 225.685L300.476 223.944L300.949 224.023L300.337 227.682L299.883 227.606ZM302.31 229.026C302.07 228.986 301.843 228.913 301.627 228.806C301.415 228.702 301.248 228.577 301.128 228.428L301.416 228.101C301.52 228.227 301.656 228.334 301.823 228.423C301.99 228.515 302.171 228.577 302.365 228.61C302.674 228.661 302.913 228.627 303.082 228.507C303.251 228.386 303.36 228.178 303.409 227.882L303.502 227.33L303.638 226.82L303.701 226.293L303.82 225.578L304.269 225.653L303.891 227.912C303.814 228.372 303.642 228.692 303.376 228.87C303.109 229.049 302.754 229.101 302.31 229.026ZM302.434 227.922C302.181 227.879 301.963 227.789 301.78 227.65C301.601 227.508 301.468 227.332 301.382 227.122C301.299 226.912 301.278 226.682 301.32 226.432C301.362 226.179 301.457 225.968 301.603 225.8C301.753 225.629 301.936 225.508 302.151 225.436C302.369 225.364 302.605 225.349 302.858 225.392C303.081 225.429 303.277 225.509 303.446 225.632C303.615 225.752 303.739 225.914 303.816 226.12C303.896 226.326 303.912 226.572 303.865 226.858C303.817 227.141 303.722 227.367 303.579 227.535C303.439 227.704 303.269 227.821 303.069 227.886C302.87 227.947 302.658 227.959 302.434 227.922ZM302.558 227.516C302.732 227.546 302.893 227.535 303.04 227.486C303.187 227.436 303.309 227.353 303.406 227.238C303.506 227.123 303.57 226.981 303.598 226.814C303.626 226.646 303.612 226.491 303.554 226.35C303.5 226.209 303.411 226.093 303.288 226.001C303.165 225.906 303.017 225.844 302.843 225.815C302.668 225.786 302.506 225.796 302.356 225.845C302.21 225.892 302.086 225.972 301.986 226.087C301.889 226.203 301.826 226.345 301.798 226.512C301.77 226.68 301.783 226.834 301.837 226.975C301.895 227.117 301.985 227.235 302.108 227.33C302.234 227.425 302.384 227.487 302.558 227.516ZM305.994 228.659C305.714 228.612 305.477 228.514 305.283 228.363C305.092 228.213 304.954 228.027 304.869 227.807C304.787 227.587 304.768 227.347 304.812 227.088C304.855 226.828 304.95 226.607 305.095 226.425C305.244 226.244 305.426 226.114 305.642 226.035C305.862 225.954 306.097 225.934 306.346 225.976C306.6 226.018 306.814 226.111 306.989 226.256C307.164 226.4 307.289 226.583 307.364 226.805C307.442 227.024 307.458 227.269 307.413 227.538C307.41 227.558 307.404 227.581 307.397 227.606C307.392 227.633 307.387 227.657 307.379 227.679L305.155 227.307L305.212 226.967L307.19 227.298L306.978 227.384C307.009 227.217 306.999 227.062 306.949 226.918C306.899 226.774 306.816 226.656 306.699 226.562C306.587 226.465 306.447 226.403 306.28 226.375C306.115 226.348 305.963 226.361 305.822 226.415C305.681 226.466 305.564 226.553 305.469 226.675C305.375 226.795 305.313 226.94 305.284 227.111L305.271 227.19C305.242 227.364 305.255 227.527 305.311 227.678C305.371 227.827 305.467 227.951 305.599 228.051C305.731 228.15 305.89 228.216 306.078 228.247C306.232 228.273 306.376 228.27 306.51 228.239C306.647 228.208 306.772 228.147 306.885 228.058L307.095 228.408C306.954 228.526 306.788 228.606 306.599 228.649C306.412 228.692 306.211 228.696 305.994 228.659Z" fill="#FE2D01"/>
</g>
</g>
<defs>
<filter id="filter0_d_1121_5961" x="10.145" y="173.851" width="336.693" height="285.552" filterUnits="userSpaceOnUse" color-interpolation-filters="sRGB">
<feFlood flood-opacity="0" result="BackgroundImageFix"/>
<feColorMatrix in="SourceAlpha" type="matrix" values="0 0 0 0 0 0 0 0 0 0 0 0 0 0 0 0 0 0 127 0" result="hardAlpha"/>
<feOffset dy="4"/>
<feGaussianBlur stdDeviation="2"/>
<feComposite in2="hardAlpha" operator="out"/>
<feColorMatrix type="matrix" values="0 0 0 0 0 0 0 0 0 0 0 0 0 0 0 0 0 0 0.25 0"/>
<feBlend mode="normal" in2="BackgroundImageFix" result="effect1_dropShadow_1121_5961"/>
<feBlend mode="normal" in="SourceGraphic" in2="effect1_dropShadow_1121_5961" result="shape"/>
</filter>
<filter id="filter1_d_1121_5961" x="12.145" y="172.851" width="332.693" height="281.552" filterUnits="userSpaceOnUse" color-interpolation-filters="sRGB">
<feFlood flood-opacity="0" result="BackgroundImageFix"/>
<feColorMatrix in="SourceAlpha" type="matrix" values="0 0 0 0 0 0 0 0 0 0 0 0 0 0 0 0 0 0 127 0" result="hardAlpha"/>
<feOffset dy="1"/>
<feGaussianBlur stdDeviation="1"/>
<feColorMatrix type="matrix" values="0 0 0 0 0 0 0 0 0 0 0 0 0 0 0 0 0 0 0.25 0"/>
<feBlend mode="normal" in2="BackgroundImageFix" result="effect1_dropShadow_1121_5961"/>
<feBlend mode="normal" in="SourceGraphic" in2="effect1_dropShadow_1121_5961" result="shape"/>
</filter>
<filter id="filter2_d_1121_5961" x="222.949" y="46.1933" width="150.222" height="253.533" filterUnits="userSpaceOnUse" color-interpolation-filters="sRGB">
<feFlood flood-opacity="0" result="BackgroundImageFix"/>
<feColorMatrix in="SourceAlpha" type="matrix" values="0 0 0 0 0 0 0 0 0 0 0 0 0 0 0 0 0 0 127 0" result="hardAlpha"/>
<feOffset dy="4"/>
<feGaussianBlur stdDeviation="2"/>
<feComposite in2="hardAlpha" operator="out"/>
<feColorMatrix type="matrix" values="0 0 0 0 0 0 0 0 0 0 0 0 0 0 0 0 0 0 0.25 0"/>
<feBlend mode="normal" in2="BackgroundImageFix" result="effect1_dropShadow_1121_5961"/>
<feBlend mode="normal" in="SourceGraphic" in2="effect1_dropShadow_1121_5961" result="shape"/>
</filter>
<filter id="filter3_d_1121_5961" x="222.949" y="46.1933" width="150.222" height="253.533" filterUnits="userSpaceOnUse" color-interpolation-filters="sRGB">
<feFlood flood-opacity="0" result="BackgroundImageFix"/>
<feColorMatrix in="SourceAlpha" type="matrix" values="0 0 0 0 0 0 0 0 0 0 0 0 0 0 0 0 0 0 127 0" result="hardAlpha"/>
<feOffset dy="4"/>
<feGaussianBlur stdDeviation="2"/>
<feColorMatrix type="matrix" values="0 0 0 0 0 0 0 0 0 0 0 0 0 0 0 0 0 0 0.25 0"/>
<feBlend mode="normal" in2="BackgroundImageFix" result="effect1_dropShadow_1121_5961"/>
<feBlend mode="normal" in="SourceGraphic" in2="effect1_dropShadow_1121_5961" result="shape"/>
</filter>
<linearGradient id="paint0_linear_1121_5961" x1="149" y1="418" x2="536" y2="418" gradientUnits="userSpaceOnUse">
<stop stop-color="#5787F5"/>
<stop offset="1" stop-color="#B164E8"/>
</linearGradient>
<clipPath id="clip0_1121_5961">
<rect width="428" height="519" fill="white"/>
</clipPath>
<clipPath id="clip1_1121_5961">
<rect width="40" height="40" fill="white" transform="translate(277 347.906) rotate(-29.8447)"/>
</clipPath>
</defs>
</svg>
