<svg width="682" height="710" viewBox="0 0 682 710" fill="none" xmlns="http://www.w3.org/2000/svg">
<path d="M152.361 431.158L136.053 484.417C135.409 486.521 134.284 488.446 132.767 490.039L129.916 493.034L67.7623 547.477L27.4844 581.564C26.0049 582.816 24.6484 584.207 23.4333 585.717L22.0968 587.377C16.9735 593.744 15.1211 602.139 17.0897 610.07C18.1236 614.236 20.167 618.083 23.0396 621.272L25.6233 624.14C29.6129 628.569 34.7312 631.83 40.4309 633.575C47.2353 635.659 54.5319 635.479 61.2254 633.063L61.7184 632.885C64.9856 631.706 68.0557 630.04 70.8247 627.943L125.863 586.26L177.791 548.385C179.201 547.356 180.437 546.107 181.449 544.685C184.357 540.602 185.217 535.406 183.779 530.604L182.598 526.659L165.041 458.305L157.802 431.255C157.332 429.496 155.347 428.632 153.74 429.486C153.076 429.839 152.58 430.44 152.361 431.158Z" stroke="url(#paint0_linear_1084_14617)" stroke-opacity="0.7"/>
<path d="M325.36 284.756L296.748 346.709C295.098 350.282 294.564 354.269 295.217 358.149C295.376 359.095 295.604 360.028 295.9 360.94L304.469 387.362C306.821 394.616 310.946 401.168 316.469 406.426L320.743 410.495C323.087 412.726 325.919 414.382 329.014 415.329C336.017 417.474 343.632 415.786 349.073 410.884L351.856 408.378C353.805 406.622 355.484 404.587 356.837 402.34C360.112 396.902 361.334 390.473 360.282 384.213L358.193 371.782L333.977 290.894L331.706 284.6C330.614 281.576 326.301 281.682 325.36 284.756Z" stroke="url(#paint1_linear_1084_14617)" stroke-opacity="0.7"/>
<path d="M233.553 688.048L235.773 690.409C240.53 695.469 246.839 698.8 253.702 699.874C261.887 701.155 270.245 699.132 276.938 694.25L277.583 693.78C279.191 692.607 280.689 691.293 282.061 689.851L282.31 689.59C287.522 684.114 290.941 677.179 292.11 669.71L293.079 663.516C293.673 659.721 293.883 655.876 293.707 652.04L291.69 608.128L287.908 540.494L288.101 530.248C288.277 520.891 287.139 511.555 284.72 502.515L280.208 485.654L264.609 410.903L261.614 396.848C258.87 383.973 259.453 370.611 263.307 358.023L265.781 349.942C267.394 344.676 269.439 339.551 271.895 334.621L304.507 269.174L327.729 233.373C329.915 230.002 331.815 226.454 333.409 222.765L337.98 212.183C341.255 204.603 341.951 196.157 339.962 188.143C338.882 183.792 337.035 179.669 334.508 175.967L331.738 171.908C328.133 166.628 323.316 162.288 317.689 159.254C313.424 156.954 308.776 155.449 303.972 154.811L302.906 154.67C295.141 153.639 287.243 154.614 279.962 157.502L271.153 160.996L237.726 178.751L203.32 199.705L179.995 213.714C169.902 219.776 160.958 227.573 153.576 236.746L153.441 236.914L143.342 253.682C140.59 258.251 137.477 262.592 134.033 266.664L106.302 299.454L100.726 307.283C96.401 313.356 94.3685 320.765 94.9894 328.194C95.3449 332.448 96.5608 336.585 98.5632 340.355L100.891 344.738C103.183 349.052 106.7 352.592 111 354.91C116.419 357.832 122.731 358.629 128.705 357.146L130.219 356.77C135.532 355.452 140.358 352.646 144.132 348.681L153.827 338.496L171.259 315.844L184.314 295.718C184.446 295.514 184.597 295.322 184.765 295.146C187.796 291.962 192.975 295.386 191.231 299.422L187.972 306.966L182.588 317.772C180.131 322.702 178.086 327.827 176.474 333.094L172.04 347.572C166.931 364.259 166.875 382.084 171.88 398.802L188.42 454.051L204.699 508.43C207.666 518.34 209.077 528.649 208.883 538.992L208.718 547.735L211.719 583.642L222.884 665.67C224.026 674.058 227.755 681.88 233.553 688.048Z" stroke="url(#paint2_linear_1084_14617)" stroke-opacity="0.7"/>
<circle cx="339.444" cy="97.9352" r="49.6818" transform="rotate(17.024 339.444 97.9352)" stroke="url(#paint3_linear_1084_14617)" stroke-opacity="0.7"/>
<path d="M181.361 431.158L165.053 484.417C164.409 486.521 163.284 488.446 161.767 490.039L158.916 493.034L96.7623 547.477L56.4844 581.564C55.0049 582.816 53.6484 584.207 52.4333 585.717L51.0968 587.377C45.9735 593.744 44.1211 602.139 46.0897 610.07C47.1236 614.236 49.167 618.083 52.0396 621.272L54.6233 624.14C58.6129 628.569 63.7312 631.83 69.4309 633.575C76.2353 635.659 83.5319 635.479 90.2254 633.063L90.7184 632.885C93.9856 631.706 97.0557 630.04 99.8247 627.943L154.863 586.26L206.791 548.385C208.201 547.356 209.437 546.107 210.449 544.685C213.357 540.602 214.217 535.406 212.779 530.604L211.598 526.659L194.041 458.305L186.802 431.255C186.332 429.496 184.347 428.632 182.74 429.486C182.076 429.839 181.58 430.44 181.361 431.158Z" stroke="url(#paint4_linear_1084_14617)" stroke-opacity="0.7"/>
<path d="M354.36 284.756L325.748 346.709C324.098 350.282 323.564 354.269 324.217 358.149C324.376 359.095 324.604 360.028 324.9 360.94L333.469 387.362C335.821 394.616 339.946 401.168 345.469 406.426L349.743 410.495C352.087 412.726 354.919 414.382 358.014 415.329C365.017 417.474 372.632 415.786 378.073 410.884L380.856 408.378C382.805 406.622 384.484 404.587 385.837 402.34C389.112 396.902 390.334 390.473 389.282 384.213L387.193 371.782L362.977 290.894L360.706 284.6C359.614 281.576 355.301 281.682 354.36 284.756Z" stroke="url(#paint5_linear_1084_14617)" stroke-opacity="0.7"/>
<path d="M262.553 688.048L264.773 690.409C269.53 695.469 275.839 698.8 282.702 699.874C290.887 701.155 299.245 699.132 305.938 694.25L306.583 693.78C308.191 692.607 309.689 691.293 311.061 689.851L311.31 689.59C316.522 684.114 319.941 677.179 321.11 669.71L322.079 663.516C322.673 659.721 322.883 655.876 322.707 652.04L320.69 608.128L316.908 540.494L317.101 530.248C317.277 520.891 316.139 511.555 313.72 502.515L309.208 485.654L293.609 410.903L290.614 396.848C287.87 383.973 288.453 370.611 292.307 358.023L294.781 349.942C296.394 344.676 298.439 339.551 300.895 334.621L333.507 269.174L356.729 233.373C358.915 230.002 360.815 226.454 362.409 222.765L366.98 212.183C370.255 204.603 370.951 196.157 368.962 188.143C367.882 183.792 366.035 179.669 363.508 175.967L360.738 171.908C357.133 166.628 352.316 162.288 346.689 159.254C342.424 156.954 337.776 155.449 332.972 154.811L331.906 154.67C324.141 153.639 316.243 154.614 308.962 157.502L300.153 160.996L266.726 178.751L232.32 199.705L208.995 213.714C198.902 219.776 189.958 227.573 182.576 236.746L182.441 236.914L172.342 253.682C169.59 258.251 166.477 262.592 163.033 266.664L135.302 299.454L129.726 307.283C125.401 313.356 123.368 320.765 123.989 328.194C124.345 332.448 125.561 336.585 127.563 340.355L129.891 344.738C132.183 349.052 135.7 352.592 140 354.91C145.419 357.832 151.731 358.629 157.705 357.146L159.219 356.77C164.532 355.452 169.358 352.646 173.132 348.681L182.827 338.496L200.259 315.844L213.314 295.718C213.446 295.514 213.597 295.322 213.765 295.146C216.796 291.962 221.975 295.386 220.231 299.422L216.972 306.966L211.588 317.772C209.131 322.702 207.086 327.827 205.474 333.094L201.04 347.572C195.931 364.259 195.875 382.084 200.88 398.802L217.42 454.051L233.699 508.43C236.666 518.34 238.077 528.649 237.883 538.992L237.718 547.735L240.719 583.642L251.884 665.67C253.026 674.058 256.755 681.88 262.553 688.048Z" stroke="url(#paint6_linear_1084_14617)" stroke-opacity="0.7"/>
<circle cx="368.444" cy="97.9352" r="49.6818" transform="rotate(17.024 368.444 97.9352)" stroke="url(#paint7_linear_1084_14617)" stroke-opacity="0.7"/>
<path d="M235.404 351.761L233.862 356.797C233.801 356.995 233.695 357.177 233.552 357.328L233.282 357.611L227.406 362.758L223.598 365.981C223.458 366.099 223.33 366.231 223.215 366.373L223.089 366.53C222.604 367.132 222.429 367.926 222.615 368.676C222.713 369.07 222.906 369.433 223.178 369.735L223.422 370.006C223.799 370.425 224.283 370.733 224.822 370.898C225.465 371.095 226.155 371.078 226.788 370.85L226.835 370.833C227.144 370.721 227.434 370.564 227.696 370.365L232.899 366.425L237.808 362.844C237.941 362.747 238.058 362.629 238.154 362.494C238.429 362.108 238.51 361.617 238.374 361.163L238.263 360.79L236.603 354.328L235.918 351.771C235.874 351.604 235.686 351.523 235.534 351.603C235.472 351.637 235.425 351.694 235.404 351.761Z" fill="#B164E8"/>
<path d="M251.759 337.921L249.054 343.778C248.898 344.115 248.848 344.492 248.91 344.859C248.925 344.949 248.946 345.037 248.974 345.123L249.784 347.621C250.007 348.307 250.397 348.926 250.919 349.423L251.323 349.808C251.544 350.019 251.812 350.175 252.105 350.265C252.767 350.468 253.487 350.308 254.001 349.845L254.264 349.608C254.449 349.442 254.607 349.249 254.735 349.037C255.045 348.523 255.16 347.915 255.061 347.323L254.863 346.148L252.574 338.501L252.359 337.906C252.256 337.62 251.848 337.63 251.759 337.921Z" fill="#B164E8"/>
<path d="M243.08 376.048L243.29 376.271C243.739 376.749 244.336 377.064 244.985 377.166C245.758 377.287 246.549 377.096 247.181 376.634L247.242 376.59C247.394 376.479 247.536 376.355 247.666 376.218L247.689 376.194C248.182 375.676 248.505 375.02 248.616 374.314L248.707 373.729C248.764 373.37 248.783 373.006 248.767 372.644L248.576 368.492L248.219 362.098C248.247 360.571 248.061 359.047 247.667 357.572L247.491 356.914L246.016 349.847L245.733 348.518C245.473 347.301 245.528 346.037 245.893 344.847C246.201 343.841 246.592 342.862 247.061 341.92L249.788 336.448L251.983 333.063C252.19 332.744 252.37 332.409 252.52 332.06L252.952 331.06C253.262 330.343 253.328 329.545 253.14 328.787C253.038 328.376 252.863 327.986 252.624 327.636L252.362 327.252C252.021 326.753 251.566 326.343 251.034 326.056C250.631 325.838 250.191 325.696 249.737 325.636L249.636 325.622C248.902 325.525 248.156 325.617 247.467 325.89L246.634 326.22L243.474 327.899L240.222 329.88L238.034 331.194C237.068 331.774 236.212 332.52 235.506 333.398C234.61 334.885 233.597 336.298 232.476 337.623L231.05 339.31L230.522 340.05C230.113 340.624 229.921 341.325 229.98 342.027C230.014 342.429 230.129 342.821 230.318 343.177L230.538 343.591C230.755 343.999 231.087 344.334 231.494 344.553C232.006 344.829 232.603 344.905 233.168 344.764L233.311 344.729C233.813 344.604 234.269 344.339 234.626 343.964L235.542 343.001L237.191 340.86L238.425 338.957C238.437 338.938 238.452 338.92 238.467 338.903C238.754 338.602 239.244 338.926 239.079 339.307L238.771 340.02C238.2 341.166 237.724 342.358 237.349 343.582L237.264 343.859C236.781 345.437 236.776 347.122 237.249 348.703L238.813 353.926L240.115 358.275C240.552 359.736 240.761 361.257 240.732 362.783L241.016 366.177L242.071 373.932C242.179 374.725 242.532 375.465 243.08 376.048Z" fill="#B164E8"/>
<circle cx="253.091" cy="320.259" r="4.74417" transform="rotate(17.024 253.091 320.259)" fill="#B164E8"/>
<path d="M205.7 344.4C207.567 344.4 209.283 344.633 210.85 345.1C212.45 345.533 214.067 346.233 215.7 347.2L216.85 346.25C217.65 345.617 218.3 345.183 218.8 344.95C219.333 344.717 219.933 344.6 220.6 344.6C221.4 344.6 222.033 344.783 222.5 345.15C222.967 345.483 223.2 345.983 223.2 346.65C223.2 346.917 223.15 347.2 223.05 347.5L220.95 354.4C220.717 355.2 220.417 355.767 220.05 356.1C219.717 356.433 219.2 356.6 218.5 356.6C217.767 356.6 217.117 356.383 216.55 355.95C216.017 355.483 215.167 354.55 214 353.15C212.833 351.817 211.767 350.883 210.8 350.35C209.867 349.783 208.9 349.5 207.9 349.5C207.167 349.5 206.55 349.75 206.05 350.25C205.55 350.717 205.3 351.3 205.3 352C205.3 352.8 205.7 353.55 206.5 354.25C207.3 354.917 208.55 355.767 210.25 356.8C211.983 357.833 213.417 358.767 214.55 359.6C215.683 360.433 216.65 361.467 217.45 362.7C218.25 363.933 218.65 365.35 218.65 366.95C218.65 367.983 218.483 369.017 218.15 370.05C217.35 372.717 215.8 374.75 213.5 376.15C211.2 377.517 208.517 378.2 205.45 378.2C203.15 378.2 201.217 377.933 199.65 377.4C198.083 376.867 196.483 375.967 194.85 374.7L193.05 376.2C192.217 376.9 191.533 377.383 191 377.65C190.467 377.883 189.867 378 189.2 378C188.433 378 187.817 377.817 187.35 377.45C186.917 377.083 186.7 376.583 186.7 375.95C186.7 375.617 186.767 375.267 186.9 374.9L189.35 367.45C189.617 366.583 189.983 365.967 190.45 365.6C190.917 365.233 191.517 365.05 192.25 365.05C193.017 365.05 193.7 365.317 194.3 365.85C194.933 366.383 195.75 367.35 196.75 368.75C197.817 370.283 198.8 371.35 199.7 371.95C200.633 372.55 201.733 372.85 203 372.85C203.9 372.85 204.583 372.717 205.05 372.45C205.55 372.15 205.9 371.683 206.1 371.05C206.167 370.883 206.2 370.633 206.2 370.3C206.2 369.5 205.817 368.767 205.05 368.1C204.283 367.433 203.1 366.633 201.5 365.7C199.8 364.667 198.417 363.75 197.35 362.95C196.283 362.117 195.35 361.083 194.55 359.85C193.783 358.617 193.4 357.167 193.4 355.5C193.4 354.333 193.583 353.183 193.95 352.05C194.65 349.75 196.083 347.9 198.25 346.5C200.417 345.1 202.9 344.4 205.7 344.4ZM286.102 344.7C287.335 344.7 288.285 344.967 288.952 345.5C289.652 346.033 290.002 346.767 290.002 347.7C290.002 348.167 289.935 348.617 289.802 349.05L288.502 353.7C288.268 354.567 287.885 355.183 287.352 355.55C286.818 355.917 286.118 356.1 285.252 356.1C284.418 356.1 283.752 355.933 283.252 355.6C282.752 355.233 282.385 354.65 282.152 353.85L281.352 351C281.218 350.5 281.052 350.167 280.852 350C280.652 349.833 280.235 349.75 279.602 349.75H274.602L271.802 359.65H272.752C273.218 359.65 273.618 359.583 273.952 359.45C274.318 359.317 274.702 359.067 275.102 358.7L276.652 357.4C277.218 356.9 277.718 356.55 278.152 356.35C278.618 356.117 279.102 356 279.602 356C280.235 356 280.752 356.183 281.152 356.55C281.585 356.917 281.802 357.433 281.802 358.1C281.802 358.367 281.752 358.683 281.652 359.05L279.452 366.65C278.952 368.283 278.052 369.1 276.752 369.1C275.685 369.1 274.852 368.55 274.252 367.45L273.352 365.75C273.118 365.283 272.902 364.983 272.702 364.85C272.502 364.717 272.202 364.65 271.802 364.65H270.352L268.252 372.1C268.185 372.3 268.152 372.567 268.152 372.9C268.152 373.367 268.252 373.75 268.452 374.05C268.685 374.35 269.018 374.667 269.452 375C269.818 375.3 270.068 375.55 270.202 375.75C270.335 375.917 270.402 376.133 270.402 376.4C270.402 377 270.135 377.417 269.602 377.65C269.068 377.883 268.285 378 267.252 378H254.702C253.835 378 253.185 377.85 252.752 377.55C252.318 377.217 252.168 376.767 252.302 376.2C252.368 375.9 252.502 375.667 252.702 375.5C252.868 375.3 253.135 375.083 253.502 374.85C254.068 374.517 254.518 374.167 254.852 373.8C255.185 373.433 255.452 372.867 255.652 372.1L261.802 350.55C261.935 350.117 262.002 349.717 262.002 349.35C262.002 348.95 261.935 348.617 261.802 348.35C261.702 348.083 261.535 347.8 261.302 347.5C261.002 347.067 260.852 346.717 260.852 346.45C260.852 346.35 260.885 346.167 260.952 345.9C261.085 345.467 261.385 345.167 261.852 345C262.318 344.8 263.002 344.7 263.902 344.7H286.102ZM317.707 344.7C318.94 344.7 319.89 344.967 320.557 345.5C321.257 346.033 321.607 346.767 321.607 347.7C321.607 348.167 321.54 348.617 321.407 349.05L320.107 353.7C319.873 354.6 319.523 355.233 319.057 355.6C318.623 355.933 317.99 356.1 317.157 356.1C316.357 356.1 315.723 355.933 315.257 355.6C314.823 355.233 314.49 354.65 314.257 353.85L313.457 351C313.29 350.4 313.09 350 312.857 349.8C312.623 349.6 312.173 349.5 311.507 349.5H306.257L303.757 358.4H305.957C306.19 358.4 306.507 358.233 306.907 357.9L308.607 356.4C309.107 355.967 309.54 355.65 309.907 355.45C310.273 355.25 310.723 355.15 311.257 355.15C311.857 355.15 312.34 355.317 312.707 355.65C313.107 355.95 313.307 356.35 313.307 356.85C313.307 356.983 313.273 357.183 313.207 357.45L311.157 364.4C310.957 365.133 310.607 365.683 310.107 366.05C309.64 366.383 309.123 366.55 308.557 366.55C307.623 366.55 306.923 366.067 306.457 365.1L305.607 363.35C305.373 362.85 305.007 362.6 304.507 362.6H302.557L299.607 373.2H304.007C304.64 373.2 305.19 373.083 305.657 372.85C306.157 372.583 306.69 372.133 307.257 371.5L310.257 368.2C310.79 367.633 311.29 367.233 311.757 367C312.257 366.733 312.857 366.6 313.557 366.6C314.29 366.6 314.89 366.767 315.357 367.1C315.823 367.433 316.057 367.933 316.057 368.6C316.057 368.867 316.007 369.183 315.907 369.55L314.457 374.6C314.09 375.867 313.557 376.75 312.857 377.25C312.157 377.75 311.14 378 309.807 378H285.957C285.257 378 284.723 377.883 284.357 377.65C283.957 377.417 283.757 377.1 283.757 376.7C283.757 376.5 283.807 376.283 283.907 376.05C284.04 375.683 284.257 375.4 284.557 375.2C284.857 375 285.04 374.883 285.107 374.85C285.64 374.517 286.073 374.183 286.407 373.85C286.74 373.483 287.023 372.9 287.257 372.1L293.407 350.55C293.54 350.117 293.607 349.717 293.607 349.35C293.607 348.95 293.54 348.617 293.407 348.35C293.307 348.083 293.14 347.8 292.907 347.5C292.607 347.067 292.457 346.717 292.457 346.45C292.457 346.35 292.49 346.167 292.557 345.9C292.69 345.467 292.99 345.167 293.457 345C293.923 344.8 294.607 344.7 295.507 344.7H317.707ZM337.801 344.4C339.668 344.4 341.385 344.633 342.951 345.1C344.551 345.533 346.168 346.233 347.801 347.2L348.951 346.25C349.751 345.617 350.401 345.183 350.901 344.95C351.435 344.717 352.035 344.6 352.701 344.6C353.501 344.6 354.135 344.783 354.601 345.15C355.068 345.483 355.301 345.983 355.301 346.65C355.301 346.917 355.251 347.2 355.151 347.5L353.051 354.4C352.818 355.2 352.518 355.767 352.151 356.1C351.818 356.433 351.301 356.6 350.601 356.6C349.868 356.6 349.218 356.383 348.651 355.95C348.118 355.483 347.268 354.55 346.101 353.15C344.935 351.817 343.868 350.883 342.901 350.35C341.968 349.783 341.001 349.5 340.001 349.5C339.268 349.5 338.651 349.75 338.151 350.25C337.651 350.717 337.401 351.3 337.401 352C337.401 352.8 337.801 353.55 338.601 354.25C339.401 354.917 340.651 355.767 342.351 356.8C344.085 357.833 345.518 358.767 346.651 359.6C347.785 360.433 348.751 361.467 349.551 362.7C350.351 363.933 350.751 365.35 350.751 366.95C350.751 367.983 350.585 369.017 350.251 370.05C349.451 372.717 347.901 374.75 345.601 376.15C343.301 377.517 340.618 378.2 337.551 378.2C335.251 378.2 333.318 377.933 331.751 377.4C330.185 376.867 328.585 375.967 326.951 374.7L325.151 376.2C324.318 376.9 323.635 377.383 323.101 377.65C322.568 377.883 321.968 378 321.301 378C320.535 378 319.918 377.817 319.451 377.45C319.018 377.083 318.801 376.583 318.801 375.95C318.801 375.617 318.868 375.267 319.001 374.9L321.451 367.45C321.718 366.583 322.085 365.967 322.551 365.6C323.018 365.233 323.618 365.05 324.351 365.05C325.118 365.05 325.801 365.317 326.401 365.85C327.035 366.383 327.851 367.35 328.851 368.75C329.918 370.283 330.901 371.35 331.801 371.95C332.735 372.55 333.835 372.85 335.101 372.85C336.001 372.85 336.685 372.717 337.151 372.45C337.651 372.15 338.001 371.683 338.201 371.05C338.268 370.883 338.301 370.633 338.301 370.3C338.301 369.5 337.918 368.767 337.151 368.1C336.385 367.433 335.201 366.633 333.601 365.7C331.901 364.667 330.518 363.75 329.451 362.95C328.385 362.117 327.451 361.083 326.651 359.85C325.885 358.617 325.501 357.167 325.501 355.5C325.501 354.333 325.685 353.183 326.051 352.05C326.751 349.75 328.185 347.9 330.351 346.5C332.518 345.1 335.001 344.4 337.801 344.4ZM394.124 344.7C395.957 344.7 396.874 345.45 396.874 346.95C396.874 347.417 396.774 348 396.574 348.7L395.374 352.75C395.007 353.983 394.557 354.85 394.024 355.35C393.491 355.85 392.724 356.1 391.724 356.1C390.891 356.1 390.241 355.883 389.774 355.45C389.341 355.017 388.924 354.333 388.524 353.4L387.674 351.35C387.407 350.717 387.124 350.283 386.824 350.05C386.524 349.817 386.057 349.7 385.424 349.7H384.274L377.924 372.05C377.824 372.483 377.774 372.867 377.774 373.2C377.774 373.6 377.824 373.933 377.924 374.2C378.057 374.467 378.241 374.75 378.474 375.05C378.774 375.517 378.924 375.9 378.924 376.2C378.924 376.267 378.891 376.433 378.824 376.7C378.657 377.133 378.324 377.45 377.824 377.65C377.357 377.85 376.674 377.95 375.774 377.95H364.024C363.324 377.95 362.774 377.833 362.374 377.6C362.007 377.367 361.824 377.033 361.824 376.6C361.824 376.4 361.874 376.2 361.974 376C362.107 375.7 362.257 375.483 362.424 375.35C362.624 375.183 362.907 374.983 363.274 374.75C363.774 374.45 364.191 374.117 364.524 373.75C364.857 373.383 365.141 372.817 365.374 372.05L371.674 349.7H370.524C369.791 349.7 369.191 349.817 368.724 350.05C368.257 350.283 367.757 350.717 367.224 351.35L365.574 353.4C364.807 354.3 364.057 354.983 363.324 355.45C362.624 355.883 361.857 356.1 361.024 356.1C360.257 356.1 359.657 355.9 359.224 355.5C358.791 355.1 358.574 354.55 358.574 353.85C358.574 353.517 358.624 353.15 358.724 352.75L360.024 348.2C360.291 347.267 360.591 346.567 360.924 346.1C361.257 345.6 361.724 345.25 362.324 345.05C362.957 344.817 363.841 344.7 364.974 344.7H394.124ZM425.164 344.7C426.397 344.7 427.347 344.967 428.014 345.5C428.714 346.033 429.064 346.767 429.064 347.7C429.064 348.167 428.997 348.617 428.864 349.05L427.564 353.7C427.33 354.6 426.98 355.233 426.514 355.6C426.08 355.933 425.447 356.1 424.614 356.1C423.814 356.1 423.18 355.933 422.714 355.6C422.28 355.233 421.947 354.65 421.714 353.85L420.914 351C420.747 350.4 420.547 350 420.314 349.8C420.08 349.6 419.63 349.5 418.964 349.5H413.714L411.214 358.4H413.414C413.647 358.4 413.964 358.233 414.364 357.9L416.064 356.4C416.564 355.967 416.997 355.65 417.364 355.45C417.73 355.25 418.18 355.15 418.714 355.15C419.314 355.15 419.797 355.317 420.164 355.65C420.564 355.95 420.764 356.35 420.764 356.85C420.764 356.983 420.73 357.183 420.664 357.45L418.614 364.4C418.414 365.133 418.064 365.683 417.564 366.05C417.097 366.383 416.58 366.55 416.014 366.55C415.08 366.55 414.38 366.067 413.914 365.1L413.064 363.35C412.83 362.85 412.464 362.6 411.964 362.6H410.014L407.064 373.2H411.464C412.097 373.2 412.647 373.083 413.114 372.85C413.614 372.583 414.147 372.133 414.714 371.5L417.714 368.2C418.247 367.633 418.747 367.233 419.214 367C419.714 366.733 420.314 366.6 421.014 366.6C421.747 366.6 422.347 366.767 422.814 367.1C423.28 367.433 423.514 367.933 423.514 368.6C423.514 368.867 423.464 369.183 423.364 369.55L421.914 374.6C421.547 375.867 421.014 376.75 420.314 377.25C419.614 377.75 418.597 378 417.264 378H393.414C392.714 378 392.18 377.883 391.814 377.65C391.414 377.417 391.214 377.1 391.214 376.7C391.214 376.5 391.264 376.283 391.364 376.05C391.497 375.683 391.714 375.4 392.014 375.2C392.314 375 392.497 374.883 392.564 374.85C393.097 374.517 393.53 374.183 393.864 373.85C394.197 373.483 394.48 372.9 394.714 372.1L400.864 350.55C400.997 350.117 401.064 349.717 401.064 349.35C401.064 348.95 400.997 348.617 400.864 348.35C400.764 348.083 400.597 347.8 400.364 347.5C400.064 347.067 399.914 346.717 399.914 346.45C399.914 346.35 399.947 346.167 400.014 345.9C400.147 345.467 400.447 345.167 400.914 345C401.38 344.8 402.064 344.7 402.964 344.7H425.164ZM453.02 344.7C456.554 344.7 459.27 345.467 461.17 347C463.104 348.533 464.07 350.567 464.07 353.1C464.07 354.1 463.92 355.15 463.62 356.25C462.687 359.583 460.837 362.05 458.07 363.65C455.337 365.25 451.87 366.05 447.67 366.05H442.52L440.82 372.1C440.754 372.3 440.72 372.567 440.72 372.9C440.72 373.367 440.82 373.75 441.02 374.05C441.254 374.35 441.587 374.7 442.02 375.1C442.387 375.433 442.637 375.683 442.77 375.85C442.904 376.017 442.97 376.217 442.97 376.45C442.97 377.017 442.704 377.417 442.17 377.65C441.637 377.883 440.854 378 439.82 378H427.27C426.404 378 425.754 377.85 425.32 377.55C424.887 377.217 424.737 376.767 424.87 376.2C424.937 375.9 425.07 375.667 425.27 375.5C425.437 375.3 425.704 375.083 426.07 374.85C426.637 374.517 427.087 374.167 427.42 373.8C427.754 373.433 428.02 372.867 428.22 372.1L434.32 350.55C434.454 350.117 434.52 349.7 434.52 349.3C434.52 348.933 434.454 348.633 434.32 348.4C434.22 348.133 434.07 347.833 433.87 347.5C433.57 347.067 433.42 346.717 433.42 346.45C433.42 346.35 433.454 346.167 433.52 345.9C433.654 345.467 433.937 345.167 434.37 345C434.837 344.8 435.537 344.7 436.47 344.7H453.02ZM451.72 355.35C452.087 354.117 452.27 353.033 452.27 352.1C452.27 350.167 451.37 349.2 449.57 349.2H447.32L443.77 361.55H445.97C447.37 361.55 448.504 361.117 449.37 360.25C450.27 359.35 451.054 357.717 451.72 355.35ZM479.401 344.4C481.268 344.4 482.984 344.633 484.551 345.1C486.151 345.533 487.768 346.233 489.401 347.2L490.551 346.25C491.351 345.617 492.001 345.183 492.501 344.95C493.034 344.717 493.634 344.6 494.301 344.6C495.101 344.6 495.734 344.783 496.201 345.15C496.668 345.483 496.901 345.983 496.901 346.65C496.901 346.917 496.851 347.2 496.751 347.5L494.651 354.4C494.418 355.2 494.118 355.767 493.751 356.1C493.418 356.433 492.901 356.6 492.201 356.6C491.468 356.6 490.818 356.383 490.251 355.95C489.718 355.483 488.868 354.55 487.701 353.15C486.534 351.817 485.468 350.883 484.501 350.35C483.568 349.783 482.601 349.5 481.601 349.5C480.868 349.5 480.251 349.75 479.751 350.25C479.251 350.717 479.001 351.3 479.001 352C479.001 352.8 479.401 353.55 480.201 354.25C481.001 354.917 482.251 355.767 483.951 356.8C485.684 357.833 487.118 358.767 488.251 359.6C489.384 360.433 490.351 361.467 491.151 362.7C491.951 363.933 492.351 365.35 492.351 366.95C492.351 367.983 492.184 369.017 491.851 370.05C491.051 372.717 489.501 374.75 487.201 376.15C484.901 377.517 482.218 378.2 479.151 378.2C476.851 378.2 474.918 377.933 473.351 377.4C471.784 376.867 470.184 375.967 468.551 374.7L466.751 376.2C465.918 376.9 465.234 377.383 464.701 377.65C464.168 377.883 463.568 378 462.901 378C462.134 378 461.518 377.817 461.051 377.45C460.618 377.083 460.401 376.583 460.401 375.95C460.401 375.617 460.468 375.267 460.601 374.9L463.051 367.45C463.318 366.583 463.684 365.967 464.151 365.6C464.618 365.233 465.218 365.05 465.951 365.05C466.718 365.05 467.401 365.317 468.001 365.85C468.634 366.383 469.451 367.35 470.451 368.75C471.518 370.283 472.501 371.35 473.401 371.95C474.334 372.55 475.434 372.85 476.701 372.85C477.601 372.85 478.284 372.717 478.751 372.45C479.251 372.15 479.601 371.683 479.801 371.05C479.868 370.883 479.901 370.633 479.901 370.3C479.901 369.5 479.518 368.767 478.751 368.1C477.984 367.433 476.801 366.633 475.201 365.7C473.501 364.667 472.118 363.75 471.051 362.95C469.984 362.117 469.051 361.083 468.251 359.85C467.484 358.617 467.101 357.167 467.101 355.5C467.101 354.333 467.284 353.183 467.651 352.05C468.351 349.75 469.784 347.9 471.951 346.5C474.118 345.1 476.601 344.4 479.401 344.4Z" fill="#B164E8"/>
<defs>
<linearGradient id="paint0_linear_1084_14617" x1="144.087" y1="423.899" x2="76.5044" y2="644.621" gradientUnits="userSpaceOnUse">
<stop stop-color="#B164E8"/>
<stop offset="0.479167" stop-color="#FE2D01"/>
<stop offset="1" stop-color="#5787F5"/>
</linearGradient>
<linearGradient id="paint1_linear_1084_14617" x1="355.489" y1="283.485" x2="316.311" y2="411.44" gradientUnits="userSpaceOnUse">
<stop stop-color="#B164E8"/>
<stop offset="0.479167" stop-color="#FE2D01"/>
<stop offset="1" stop-color="#5787F5"/>
</linearGradient>
<linearGradient id="paint2_linear_1084_14617" x1="298.442" y1="151.858" x2="140.75" y2="666.875" gradientUnits="userSpaceOnUse">
<stop stop-color="#B164E8"/>
<stop offset="0.479167" stop-color="#FE2D01"/>
<stop offset="1" stop-color="#5787F5"/>
</linearGradient>
<linearGradient id="paint3_linear_1084_14617" x1="339.444" y1="47.7535" x2="339.444" y2="148.117" gradientUnits="userSpaceOnUse">
<stop stop-color="#B164E8"/>
<stop offset="0.479167" stop-color="#FE2D01"/>
<stop offset="1" stop-color="#5787F5"/>
</linearGradient>
<linearGradient id="paint4_linear_1084_14617" x1="173.087" y1="423.899" x2="105.504" y2="644.621" gradientUnits="userSpaceOnUse">
<stop stop-color="#B164E8"/>
<stop offset="0.479167" stop-color="#FE2D01"/>
<stop offset="1" stop-color="#5787F5"/>
</linearGradient>
<linearGradient id="paint5_linear_1084_14617" x1="384.489" y1="283.485" x2="345.311" y2="411.44" gradientUnits="userSpaceOnUse">
<stop stop-color="#B164E8"/>
<stop offset="0.479167" stop-color="#FE2D01"/>
<stop offset="1" stop-color="#5787F5"/>
</linearGradient>
<linearGradient id="paint6_linear_1084_14617" x1="327.442" y1="151.858" x2="169.75" y2="666.875" gradientUnits="userSpaceOnUse">
<stop stop-color="#B164E8"/>
<stop offset="0.479167" stop-color="#FE2D01"/>
<stop offset="1" stop-color="#5787F5"/>
</linearGradient>
<linearGradient id="paint7_linear_1084_14617" x1="368.444" y1="47.7535" x2="368.444" y2="148.117" gradientUnits="userSpaceOnUse">
<stop stop-color="#B164E8"/>
<stop offset="0.479167" stop-color="#FE2D01"/>
<stop offset="1" stop-color="#5787F5"/>
</linearGradient>
</defs>
</svg>
