<svg width="384" height="710" viewBox="0 0 384 710" fill="none" xmlns="http://www.w3.org/2000/svg">
<path d="M34.3607 431.158L18.0532 484.417C17.4091 486.521 16.284 488.446 14.7671 490.039L11.916 493.034L-50.2377 547.477L-90.5156 581.564C-91.9951 582.816 -93.3516 584.207 -94.5667 585.717L-95.9032 587.377C-101.027 593.744 -102.879 602.139 -100.91 610.07C-99.8764 614.236 -97.833 618.083 -94.9604 621.272L-92.3767 624.14C-88.3871 628.569 -83.2688 631.83 -77.5691 633.575C-70.7647 635.659 -63.4681 635.479 -56.7746 633.063L-56.2816 632.885C-53.0144 631.706 -49.9443 630.04 -47.1753 627.943L7.86273 586.26L59.7909 548.385C61.2013 547.356 62.4366 546.107 63.4493 544.685C66.3569 540.602 67.2168 535.406 65.7794 530.604L64.5982 526.659L47.0409 458.305L39.8022 431.255C39.3316 429.496 37.3473 428.632 35.7395 429.486C35.0765 429.839 34.5805 430.44 34.3607 431.158Z" stroke="url(#paint0_linear_1084_13645)" stroke-opacity="0.7"/>
<path d="M207.36 284.756L178.748 346.709C177.098 350.282 176.565 354.269 177.217 358.149C177.376 359.095 177.604 360.028 177.9 360.94L186.469 387.362C188.821 394.616 192.946 401.168 198.469 406.426L202.743 410.495C205.087 412.726 207.919 414.382 211.014 415.329C218.017 417.474 225.632 415.786 231.074 410.884L233.856 408.378C235.805 406.622 237.484 404.587 238.838 402.34C242.113 396.902 243.334 390.473 242.282 384.213L240.193 371.782L215.977 290.894L213.706 284.6C212.615 281.576 208.302 281.682 207.36 284.756Z" stroke="url(#paint1_linear_1084_13645)" stroke-opacity="0.7"/>
<path d="M115.553 688.048L117.773 690.409C122.53 695.469 128.839 698.8 135.702 699.874C143.887 701.155 152.245 699.132 158.938 694.25L159.583 693.78C161.191 692.607 162.689 691.293 164.061 689.851L164.31 689.59C169.522 684.114 172.941 677.179 174.11 669.71L175.079 663.516C175.673 659.721 175.883 655.876 175.707 652.04L173.69 608.128L169.908 540.494L170.101 530.248C170.277 520.891 169.139 511.555 166.72 502.515L162.208 485.654L146.609 410.903L143.614 396.848C140.87 383.973 141.453 370.611 145.307 358.023L147.781 349.942C149.394 344.676 151.439 339.551 153.895 334.621L186.507 269.174L209.729 233.373C211.915 230.002 213.815 226.454 215.409 222.765L219.98 212.183C223.255 204.603 223.951 196.157 221.962 188.143C220.882 183.792 219.035 179.669 216.508 175.967L213.738 171.908C210.133 166.628 205.316 162.288 199.689 159.254C195.424 156.954 190.776 155.449 185.972 154.811L184.906 154.67C177.141 153.639 169.243 154.614 161.962 157.502L153.153 160.996L119.726 178.751L85.3204 199.705L61.9954 213.714C51.9019 219.776 42.9582 227.573 35.5765 236.746L35.4411 236.914L25.3419 253.682C22.5902 258.251 19.4775 262.592 16.0335 266.664L-11.6978 299.454L-17.2741 307.283C-21.599 313.356 -23.6315 320.765 -23.0106 328.194C-22.6551 332.448 -21.4392 336.585 -19.4368 340.355L-17.1087 344.738C-14.817 349.052 -11.2996 352.592 -6.99966 354.91C-1.58149 357.832 4.73107 358.629 10.7054 357.146L12.2195 356.77C17.5317 355.452 22.3578 352.646 26.1317 348.681L35.8267 338.496L53.2589 315.844L66.3137 295.718C66.4461 295.514 66.5973 295.322 66.7651 295.146C69.7962 291.962 74.9748 295.386 73.2313 299.422L69.9722 306.966L64.5876 317.772C62.1311 322.702 60.0861 327.827 58.4735 333.094L54.0404 347.572C48.9311 364.259 48.8755 382.084 53.8804 398.802L70.4202 454.051L86.6995 508.43C89.6661 518.34 91.0772 528.649 90.8825 538.992L90.7179 547.735L93.7188 583.642L104.884 665.67C106.026 674.058 109.755 681.88 115.553 688.048Z" stroke="url(#paint2_linear_1084_13645)" stroke-opacity="0.7"/>
<circle cx="221.444" cy="97.9352" r="49.6818" transform="rotate(17.024 221.444 97.9352)" stroke="url(#paint3_linear_1084_13645)" stroke-opacity="0.7"/>
<path d="M63.3607 431.158L47.0532 484.417C46.4091 486.521 45.284 488.446 43.7671 490.039L40.916 493.034L-21.2377 547.477L-61.5156 581.564C-62.9951 582.816 -64.3516 584.207 -65.5667 585.717L-66.9032 587.377C-72.0265 593.744 -73.8789 602.139 -71.9103 610.07C-70.8764 614.236 -68.833 618.083 -65.9604 621.272L-63.3767 624.14C-59.3871 628.569 -54.2688 631.83 -48.5691 633.575C-41.7647 635.659 -34.4681 635.479 -27.7746 633.063L-27.2816 632.885C-24.0144 631.706 -20.9443 630.04 -18.1753 627.943L36.8627 586.26L88.7909 548.385C90.2013 547.356 91.4366 546.107 92.4493 544.685C95.3569 540.602 96.2168 535.406 94.7794 530.604L93.5982 526.659L76.0409 458.305L68.8022 431.255C68.3316 429.496 66.3473 428.632 64.7395 429.486C64.0765 429.839 63.5805 430.44 63.3607 431.158Z" stroke="url(#paint4_linear_1084_13645)" stroke-opacity="0.7"/>
<path d="M236.36 284.756L207.748 346.709C206.098 350.282 205.565 354.269 206.217 358.149C206.376 359.095 206.604 360.028 206.9 360.94L215.469 387.362C217.821 394.616 221.946 401.168 227.469 406.426L231.743 410.495C234.087 412.726 236.919 414.382 240.014 415.329C247.017 417.474 254.632 415.786 260.074 410.884L262.856 408.378C264.805 406.622 266.484 404.587 267.838 402.34C271.113 396.902 272.334 390.473 271.282 384.213L269.193 371.782L244.977 290.894L242.706 284.6C241.615 281.576 237.302 281.682 236.36 284.756Z" stroke="url(#paint5_linear_1084_13645)" stroke-opacity="0.7"/>
<path d="M144.553 688.048L146.773 690.409C151.53 695.469 157.839 698.8 164.702 699.874C172.887 701.155 181.245 699.132 187.938 694.25L188.583 693.78C190.191 692.607 191.689 691.293 193.061 689.851L193.31 689.59C198.522 684.114 201.941 677.179 203.11 669.71L204.079 663.516C204.673 659.721 204.883 655.876 204.707 652.04L202.69 608.128L198.908 540.494L199.101 530.248C199.277 520.891 198.139 511.555 195.72 502.515L191.208 485.654L175.609 410.903L172.614 396.848C169.87 383.973 170.453 370.611 174.307 358.023L176.781 349.942C178.394 344.676 180.439 339.551 182.895 334.621L215.507 269.174L238.729 233.373C240.915 230.002 242.815 226.454 244.409 222.765L248.98 212.183C252.255 204.603 252.951 196.157 250.962 188.143C249.882 183.792 248.035 179.669 245.508 175.967L242.738 171.908C239.133 166.628 234.316 162.288 228.689 159.254C224.424 156.954 219.776 155.449 214.972 154.811L213.906 154.67C206.141 153.639 198.243 154.614 190.962 157.502L182.153 160.996L148.726 178.751L114.32 199.705L90.9954 213.714C80.9019 219.776 71.9582 227.573 64.5765 236.746L64.4411 236.914L54.3419 253.682C51.5902 258.251 48.4775 262.592 45.0335 266.664L17.3022 299.454L11.7259 307.283C7.401 313.356 5.3685 320.765 5.9894 328.194C6.34491 332.448 7.56076 336.585 9.56319 340.355L11.8913 344.738C14.183 349.052 17.7004 352.592 22.0003 354.91C27.4185 357.832 33.7311 358.629 39.7054 357.146L41.2195 356.77C46.5317 355.452 51.3578 352.646 55.1317 348.681L64.8267 338.496L82.2589 315.844L95.3137 295.718C95.4461 295.514 95.5973 295.322 95.7651 295.146C98.7962 291.962 103.975 295.386 102.231 299.422L98.9722 306.966L93.5876 317.772C91.1311 322.702 89.0861 327.827 87.4735 333.094L83.0404 347.572C77.9311 364.259 77.8755 382.084 82.8804 398.802L99.4202 454.051L115.699 508.43C118.666 518.34 120.077 528.649 119.883 538.992L119.718 547.735L122.719 583.642L133.884 665.67C135.026 674.058 138.755 681.88 144.553 688.048Z" stroke="url(#paint6_linear_1084_13645)" stroke-opacity="0.7"/>
<circle cx="250.444" cy="97.9352" r="49.6818" transform="rotate(17.024 250.444 97.9352)" stroke="url(#paint7_linear_1084_13645)" stroke-opacity="0.7"/>
<defs>
<linearGradient id="paint0_linear_1084_13645" x1="26.0868" y1="423.899" x2="-41.4956" y2="644.621" gradientUnits="userSpaceOnUse">
<stop stop-color="#B164E8"/>
<stop offset="0.479167" stop-color="#FE2D01"/>
<stop offset="1" stop-color="#5787F5"/>
</linearGradient>
<linearGradient id="paint1_linear_1084_13645" x1="237.489" y1="283.485" x2="198.311" y2="411.44" gradientUnits="userSpaceOnUse">
<stop stop-color="#B164E8"/>
<stop offset="0.479167" stop-color="#FE2D01"/>
<stop offset="1" stop-color="#5787F5"/>
</linearGradient>
<linearGradient id="paint2_linear_1084_13645" x1="180.442" y1="151.858" x2="22.7499" y2="666.875" gradientUnits="userSpaceOnUse">
<stop stop-color="#B164E8"/>
<stop offset="0.479167" stop-color="#FE2D01"/>
<stop offset="1" stop-color="#5787F5"/>
</linearGradient>
<linearGradient id="paint3_linear_1084_13645" x1="221.444" y1="47.7535" x2="221.444" y2="148.117" gradientUnits="userSpaceOnUse">
<stop stop-color="#B164E8"/>
<stop offset="0.479167" stop-color="#FE2D01"/>
<stop offset="1" stop-color="#5787F5"/>
</linearGradient>
<linearGradient id="paint4_linear_1084_13645" x1="55.0868" y1="423.899" x2="-12.4956" y2="644.621" gradientUnits="userSpaceOnUse">
<stop stop-color="#B164E8"/>
<stop offset="0.479167" stop-color="#FE2D01"/>
<stop offset="1" stop-color="#5787F5"/>
</linearGradient>
<linearGradient id="paint5_linear_1084_13645" x1="266.489" y1="283.485" x2="227.311" y2="411.44" gradientUnits="userSpaceOnUse">
<stop stop-color="#B164E8"/>
<stop offset="0.479167" stop-color="#FE2D01"/>
<stop offset="1" stop-color="#5787F5"/>
</linearGradient>
<linearGradient id="paint6_linear_1084_13645" x1="209.442" y1="151.858" x2="51.7499" y2="666.875" gradientUnits="userSpaceOnUse">
<stop stop-color="#B164E8"/>
<stop offset="0.479167" stop-color="#FE2D01"/>
<stop offset="1" stop-color="#5787F5"/>
</linearGradient>
<linearGradient id="paint7_linear_1084_13645" x1="250.444" y1="47.7535" x2="250.444" y2="148.117" gradientUnits="userSpaceOnUse">
<stop stop-color="#B164E8"/>
<stop offset="0.479167" stop-color="#FE2D01"/>
<stop offset="1" stop-color="#5787F5"/>
</linearGradient>
</defs>
</svg>
