<svg width="34" height="34" viewBox="0 0 34 34" fill="none" xmlns="http://www.w3.org/2000/svg">
<circle cx="17" cy="17" r="17" fill="url(#paint0_radial_1161_2662)"/>
<path d="M11.7235 21.4141H21.2251C21.8371 21.4141 22.2115 21.075 22.2115 20.5665C22.2115 19.9247 21.641 19.3737 21.1062 18.853C20.7259 18.4655 20.6071 17.6844 20.5536 17.0063C20.5358 16.6127 20.5061 16.2373 20.4585 15.8801C20.1436 16.0133 19.799 16.092 19.4365 16.092C17.8559 16.092 16.5545 14.766 16.5545 13.1494C16.5545 12.4047 16.8338 11.7205 17.2854 11.2059C17.0537 11.0787 16.7744 11 16.4713 11C15.5978 11 14.9501 11.6176 14.7006 12.4168C13.1675 12.9799 12.5257 14.542 12.4366 16.758C12.3593 17.5633 12.2583 18.4352 11.8424 18.853C11.3076 19.3737 10.7371 19.9247 10.7371 20.5665C10.7371 21.075 11.1115 21.4141 11.7235 21.4141ZM19.4424 15.2383C20.5596 15.2383 21.4925 14.2938 21.4925 13.1494C21.4925 12.0051 20.5596 11.0605 19.4424 11.0605C18.3194 11.0605 17.3924 12.0051 17.3924 13.1494C17.3924 14.2938 18.3194 15.2383 19.4424 15.2383ZM16.4773 23.9087C17.529 23.9087 18.2956 23.1397 18.3728 22.2618H14.5758C14.653 23.1397 15.4196 23.9087 16.4773 23.9087Z" fill="white"/>
<defs>
<radialGradient id="paint0_radial_1161_2662" cx="0" cy="0" r="1" gradientUnits="userSpaceOnUse" gradientTransform="translate(17 17) rotate(90) scale(17)">
<stop stop-color="#FE2D01"/>
<stop offset="1" stop-color="#FE2D01" stop-opacity="0.3"/>
</radialGradient>
</defs>
</svg>
