<svg width="230" height="230" viewBox="0 0 230 230" fill="none" xmlns="http://www.w3.org/2000/svg">
<path d="M106.34 15C110.189 8.33332 119.811 8.33333 123.66 15L205.933 157.5C209.782 164.167 204.97 172.5 197.272 172.5H32.7276C25.0296 172.5 20.2183 164.167 24.0673 157.5L106.34 15Z" fill="#FE2D01"/>
<path d="M179.981 144.286L123.06 38.5804C119.025 31.0858 108.278 31.0858 104.24 38.5804L47.3222 144.286C46.4462 145.913 46.007 147.74 46.0475 149.587C46.088 151.435 46.6068 153.24 47.5532 154.827C48.4997 156.414 49.8415 157.729 51.4476 158.642C53.0537 159.556 54.8693 160.038 56.7172 160.041H170.569C172.418 160.041 174.236 159.561 175.844 158.649C177.453 157.736 178.797 156.422 179.745 154.834C180.694 153.247 181.214 151.44 181.255 149.591C181.297 147.743 180.857 145.915 179.981 144.286V144.286ZM113.651 143.675C112.33 143.675 111.039 143.284 109.94 142.55C108.842 141.816 107.986 140.772 107.48 139.552C106.975 138.331 106.842 136.988 107.1 135.692C107.358 134.397 107.994 133.207 108.928 132.272C109.862 131.338 111.053 130.702 112.348 130.444C113.644 130.187 114.987 130.319 116.208 130.824C117.428 131.33 118.471 132.186 119.205 133.285C119.939 134.383 120.331 135.674 120.331 136.996C120.331 137.873 120.158 138.741 119.823 139.552C119.487 140.362 118.995 141.099 118.375 141.719C117.754 142.339 117.018 142.831 116.208 143.167C115.397 143.503 114.529 143.675 113.651 143.675ZM120.906 76.4943L118.989 117.24C118.989 118.658 118.426 120.017 117.423 121.019C116.421 122.021 115.062 122.584 113.645 122.584C112.228 122.584 110.868 122.021 109.866 121.019C108.864 120.017 108.301 118.658 108.301 117.24L106.384 76.511C106.341 75.5378 106.494 74.5658 106.835 73.653C107.175 72.7403 107.696 71.9054 108.366 71.1983C109.036 70.4911 109.842 69.9261 110.735 69.5369C111.628 69.1477 112.59 68.9423 113.565 68.9329H113.635C114.616 68.9324 115.586 69.1306 116.488 69.5156C117.391 69.9006 118.205 70.4643 118.884 71.1729C119.562 71.8814 120.089 72.72 120.435 73.638C120.78 74.556 120.936 75.5345 120.892 76.5144L120.906 76.4943Z" fill="#FCFCFC"/>
</svg>
