<svg width="22" height="25" viewBox="0 0 22 25" fill="none" xmlns="http://www.w3.org/2000/svg">
<path d="M1.89125 19.5961H20.1088C21.2822 19.5961 22 18.9581 22 18.001C22 16.7934 20.9063 15.7566 19.8809 14.7768C19.072 13.9907 18.8897 12.3501 18.7416 10.8348C18.5593 6.66494 17.3402 3.72553 14.3894 2.66598C13.9223 1.16209 12.6805 0 10.9943 0C9.31952 0 8.07768 1.16209 7.59917 2.66598C4.65976 3.72553 3.42931 6.66494 3.25842 10.8348C3.11031 12.3501 2.91662 13.9907 2.11911 14.7768C1.09373 15.7566 0 16.7934 0 18.001C0 18.9581 0.717763 19.5961 1.89125 19.5961ZM10.9943 24.29C13.0223 24.29 14.492 22.8431 14.6401 21.1911H7.35992C7.50803 22.8431 8.97773 24.29 10.9943 24.29Z" fill="#7E678F"/>
</svg>
