<svg width="20" height="22" viewBox="0 0 20 22" fill="none" xmlns="http://www.w3.org/2000/svg">
<path d="M1.04329 22.0089C1.60932 22.0089 2.07547 21.5538 2.07547 20.9767V14.9057C2.38624 14.7947 3.31853 14.4617 4.72808 14.4617C8.76803 14.4617 11.4761 16.4817 15.3829 16.4817C17.0921 16.4817 17.8801 16.2708 18.7347 15.8713C19.5338 15.5161 20 14.8613 20 13.8402V2.78579C20 2.05327 19.434 1.59822 18.6792 1.59822C18.0466 1.59822 17.0477 2.01998 15.2719 2.01998C11.4095 2.01998 8.64595 0 4.61709 0C2.94118 0 2.17536 0.210877 1.27636 0.610433C0.488346 0.976692 0 1.55383 0 2.56382V20.9767C0 21.5427 0.477247 22.0089 1.04329 22.0089Z" fill="#7E678F"/>
</svg>
