<svg width="27" height="24" viewBox="0 0 27 24" fill="none" xmlns="http://www.w3.org/2000/svg">
<path d="M0 11.3315C0 11.9145 0.441537 12.419 1.148 12.419C1.49019 12.419 1.79926 12.2284 2.07522 12.0042L13.0253 2.66542C13.3344 2.39636 13.6877 2.39636 13.9967 2.66542L24.9358 12.0042C25.2007 12.2284 25.5098 12.419 25.852 12.419C26.5033 12.419 27 12.0042 27 11.354C27 10.9728 26.8565 10.6701 26.5695 10.4234L23.4677 7.77765V3.11386C23.4677 2.60937 23.1476 2.29546 22.6509 2.29546H21.1276C20.6419 2.29546 20.3107 2.60937 20.3107 3.11386V5.07579L15.0785 0.613804C14.1182 -0.204601 12.9039 -0.204601 11.9436 0.613804L0.441537 10.4234C0.1435 10.6701 0 11.0064 0 11.3315ZM3.58749 21.4103C3.58749 23.0246 4.58095 24 6.22567 24H20.7854C22.4191 24 23.4235 23.0246 23.4235 21.4103V12.8899L14.1844 5.03095C13.7539 4.64977 13.2351 4.66098 12.8156 5.03095L3.58749 12.8899V21.4103ZM16.4031 21.8923H10.6079V14.7173C10.6079 14.1904 10.9501 13.854 11.4689 13.854H15.5531C16.072 13.854 16.4031 14.1904 16.4031 14.7173V21.8923Z" fill="#7E678F"/>
</svg>
