<svg width="670" height="710" viewBox="0 0 670 710" fill="none" xmlns="http://www.w3.org/2000/svg">
<path d="M136.053 484.417L152.361 431.158C152.58 430.44 153.076 429.839 153.74 429.486C155.347 428.632 157.332 429.496 157.802 431.255L165.041 458.305L182.598 526.659L183.779 530.604C185.217 535.406 184.357 540.602 181.449 544.685C180.437 546.107 179.201 547.356 177.791 548.385L125.863 586.26L115.114 594.4L70.8247 627.943C68.0557 630.04 64.9856 631.706 61.7184 632.885L61.2254 633.063C54.5319 635.479 47.2353 635.659 40.4309 633.575C34.7312 631.83 29.6129 628.569 25.6233 624.14L23.0396 621.272C20.167 618.083 18.1236 614.236 17.0897 610.07C15.1211 602.139 16.9735 593.744 22.0968 587.377L23.4333 585.717C24.6484 584.207 26.0049 582.816 27.4844 581.564L67.7623 547.477L115.114 506L129.916 493.034L132.767 490.039C134.284 488.446 135.409 486.521 136.053 484.417Z" fill="#92A4C4" fill-opacity="0.3"/>
<path d="M325.36 284.756L296.748 346.709C295.098 350.282 294.564 354.269 295.217 358.149C295.376 359.095 295.604 360.028 295.9 360.94L304.469 387.362C306.821 394.616 310.946 401.168 316.469 406.426L320.743 410.495C323.087 412.726 325.919 414.382 329.014 415.329C336.017 417.474 343.632 415.786 349.073 410.884L351.856 408.378C353.805 406.622 355.484 404.587 356.837 402.34C360.112 396.902 361.334 390.473 360.282 384.213L358.193 371.782L333.977 290.894L331.706 284.6C330.614 281.576 326.301 281.682 325.36 284.756Z" fill="#92A4C4" fill-opacity="0.3"/>
<path d="M233.553 688.048L235.773 690.409C240.53 695.469 246.839 698.8 253.702 699.874C261.887 701.155 270.245 699.132 276.938 694.25L277.583 693.78C279.191 692.607 280.689 691.293 282.061 689.851L282.31 689.59C287.522 684.114 290.941 677.179 292.11 669.71L293.079 663.516C293.673 659.721 293.883 655.876 293.707 652.04L291.69 608.128L287.908 540.494L288.101 530.248C288.277 520.891 287.139 511.555 284.72 502.515L280.208 485.654L264.609 410.903L261.614 396.848C258.87 383.973 259.453 370.611 263.307 358.023L265.781 349.942C267.394 344.676 269.439 339.551 271.895 334.621L304.507 269.174L327.729 233.373C329.915 230.002 331.815 226.454 333.409 222.765L337.98 212.183C341.255 204.603 341.951 196.157 339.962 188.143C338.882 183.792 337.035 179.669 334.508 175.967L331.738 171.908C328.133 166.628 323.316 162.288 317.689 159.254C313.424 156.954 308.776 155.449 303.972 154.811L302.906 154.67C295.141 153.639 287.243 154.614 279.962 157.502L271.153 160.996L237.726 178.751L203.32 199.705L179.995 213.714C169.902 219.776 160.958 227.573 153.576 236.746L153.441 236.914L143.342 253.682C140.59 258.251 137.477 262.592 134.033 266.664L106.302 299.454L100.726 307.283C96.401 313.356 94.3685 320.765 94.9894 328.194C95.3449 332.448 96.5608 336.585 98.5632 340.355L100.891 344.738C103.183 349.052 106.7 352.592 111 354.91C116.419 357.832 122.731 358.629 128.705 357.146L130.219 356.77C135.532 355.452 140.358 352.646 144.132 348.681L153.827 338.496L171.259 315.844L184.314 295.718C184.446 295.514 184.597 295.322 184.765 295.146C187.796 291.962 192.975 295.386 191.231 299.422L187.972 306.966L182.588 317.772C180.131 322.702 178.086 327.827 176.474 333.094L172.04 347.572C166.931 364.259 166.875 382.084 171.88 398.802L188.42 454.051L204.699 508.43C207.666 518.34 209.077 528.649 208.883 538.992L208.718 547.735L211.719 583.642L222.884 665.67C224.026 674.058 227.755 681.88 233.553 688.048Z" fill="#92A4C4" fill-opacity="0.3"/>
<circle cx="339.444" cy="97.9352" r="50.1818" transform="rotate(17.024 339.444 97.9352)" fill="#92A4C4" fill-opacity="0.3"/>
<path d="M228.898 351.247L227.356 356.282C227.295 356.481 227.189 356.663 227.045 356.813L226.776 357.097L220.9 362.244L217.092 365.466C216.952 365.585 216.824 365.716 216.709 365.859L216.583 366.016C216.098 366.618 215.923 367.411 216.109 368.161C216.207 368.555 216.4 368.919 216.672 369.22L216.916 369.491C217.293 369.91 217.777 370.218 218.316 370.383C218.959 370.58 219.649 370.563 220.282 370.335L220.328 370.318C220.637 370.207 220.928 370.049 221.189 369.851L226.393 365.91L231.302 362.329C231.435 362.232 231.552 362.114 231.648 361.98C231.923 361.594 232.004 361.102 231.868 360.648L231.756 360.275L230.097 353.813L229.412 351.256C229.368 351.09 229.18 351.008 229.028 351.089C228.965 351.122 228.918 351.179 228.898 351.247Z" fill="#7E678F"/>
<path d="M245.253 337.406L242.548 343.263C242.392 343.601 242.342 343.978 242.403 344.345C242.418 344.434 242.44 344.522 242.468 344.608L243.278 347.106C243.5 347.792 243.89 348.412 244.413 348.909L244.817 349.293C245.038 349.504 245.306 349.661 245.599 349.75C246.261 349.953 246.981 349.794 247.495 349.33L247.758 349.093C247.942 348.927 248.101 348.735 248.229 348.522C248.539 348.008 248.654 347.4 248.555 346.809L248.357 345.633L246.068 337.986L245.853 337.391C245.75 337.105 245.342 337.115 245.253 337.406Z" fill="#7E678F"/>
<path d="M236.574 375.533L236.783 375.756C237.233 376.235 237.83 376.55 238.478 376.651C239.252 376.772 240.042 376.581 240.675 376.119L240.736 376.075C240.888 375.964 241.03 375.84 241.16 375.704L241.183 375.679C241.676 375.161 241.999 374.506 242.11 373.8L242.201 373.214C242.257 372.855 242.277 372.492 242.261 372.129L242.07 367.978L241.712 361.583C241.741 360.056 241.555 358.533 241.16 357.057L240.984 356.399L239.51 349.332L239.226 348.003C238.967 346.786 239.022 345.523 239.387 344.333C239.695 343.326 240.085 342.347 240.555 341.405L243.282 335.933L245.477 332.548C245.684 332.23 245.863 331.894 246.014 331.545L246.446 330.545C246.756 329.828 246.822 329.03 246.633 328.272C246.531 327.861 246.357 327.471 246.118 327.121L245.856 326.737C245.515 326.238 245.06 325.828 244.528 325.541C244.125 325.324 243.685 325.181 243.231 325.121L243.13 325.108C242.396 325.01 241.649 325.102 240.961 325.375L240.128 325.706L236.968 327.384L233.715 329.365L231.528 330.679C230.562 331.259 229.706 332.005 229 332.883C228.104 334.37 227.091 335.783 225.97 337.109L224.543 338.796L224.016 339.536C223.607 340.11 223.415 340.81 223.474 341.513C223.507 341.915 223.622 342.306 223.812 342.662L224.032 343.077C224.248 343.485 224.581 343.819 224.987 344.038C225.5 344.315 226.096 344.39 226.661 344.25L226.804 344.214C227.307 344.09 227.763 343.824 228.12 343.449L229.036 342.487L230.684 340.345L231.919 338.442C231.931 338.423 231.945 338.405 231.961 338.388C232.248 338.087 232.737 338.411 232.572 338.793L232.264 339.506C231.693 340.652 231.218 341.843 230.843 343.067L230.758 343.345C230.275 344.922 230.27 346.607 230.743 348.188L232.307 353.411L233.609 357.76C234.046 359.222 234.254 360.743 234.226 362.268L234.509 365.663L235.565 373.418C235.673 374.211 236.025 374.95 236.574 375.533Z" fill="#7E678F"/>
<circle cx="246.585" cy="319.744" r="4.74417" transform="rotate(17.024 246.585 319.744)" fill="#7E678F"/>
<path d="M199.194 343.885C201.06 343.885 202.777 344.119 204.344 344.585C205.944 345.019 207.56 345.719 209.194 346.685L210.344 345.735C211.144 345.102 211.794 344.669 212.294 344.435C212.827 344.202 213.427 344.085 214.094 344.085C214.894 344.085 215.527 344.269 215.994 344.635C216.46 344.969 216.694 345.469 216.694 346.135C216.694 346.402 216.644 346.685 216.544 346.985L214.444 353.885C214.21 354.685 213.91 355.252 213.544 355.585C213.21 355.919 212.694 356.085 211.994 356.085C211.26 356.085 210.61 355.869 210.044 355.435C209.51 354.969 208.66 354.035 207.494 352.635C206.327 351.302 205.26 350.369 204.294 349.835C203.36 349.269 202.394 348.985 201.394 348.985C200.66 348.985 200.044 349.235 199.544 349.735C199.044 350.202 198.794 350.785 198.794 351.485C198.794 352.285 199.194 353.035 199.994 353.735C200.794 354.402 202.044 355.252 203.744 356.285C205.477 357.319 206.91 358.252 208.044 359.085C209.177 359.919 210.144 360.952 210.944 362.185C211.744 363.419 212.144 364.835 212.144 366.435C212.144 367.469 211.977 368.502 211.644 369.535C210.844 372.202 209.294 374.235 206.994 375.635C204.694 377.002 202.01 377.685 198.944 377.685C196.644 377.685 194.71 377.419 193.144 376.885C191.577 376.352 189.977 375.452 188.344 374.185L186.544 375.685C185.71 376.385 185.027 376.869 184.494 377.135C183.96 377.369 183.36 377.485 182.694 377.485C181.927 377.485 181.31 377.302 180.844 376.935C180.41 376.569 180.194 376.069 180.194 375.435C180.194 375.102 180.26 374.752 180.394 374.385L182.844 366.935C183.11 366.069 183.477 365.452 183.944 365.085C184.41 364.719 185.01 364.535 185.744 364.535C186.51 364.535 187.194 364.802 187.794 365.335C188.427 365.869 189.244 366.835 190.244 368.235C191.31 369.769 192.294 370.835 193.194 371.435C194.127 372.035 195.227 372.335 196.494 372.335C197.394 372.335 198.077 372.202 198.544 371.935C199.044 371.635 199.394 371.169 199.594 370.535C199.66 370.369 199.694 370.119 199.694 369.785C199.694 368.985 199.31 368.252 198.544 367.585C197.777 366.919 196.594 366.119 194.994 365.185C193.294 364.152 191.91 363.235 190.844 362.435C189.777 361.602 188.844 360.569 188.044 359.335C187.277 358.102 186.894 356.652 186.894 354.985C186.894 353.819 187.077 352.669 187.444 351.535C188.144 349.235 189.577 347.385 191.744 345.985C193.91 344.585 196.394 343.885 199.194 343.885ZM279.596 344.185C280.829 344.185 281.779 344.452 282.446 344.985C283.146 345.519 283.496 346.252 283.496 347.185C283.496 347.652 283.429 348.102 283.296 348.535L281.996 353.185C281.762 354.052 281.379 354.669 280.846 355.035C280.312 355.402 279.612 355.585 278.746 355.585C277.912 355.585 277.246 355.419 276.746 355.085C276.246 354.719 275.879 354.135 275.646 353.335L274.846 350.485C274.712 349.985 274.546 349.652 274.346 349.485C274.146 349.319 273.729 349.235 273.096 349.235H268.096L265.296 359.135H266.246C266.712 359.135 267.112 359.069 267.446 358.935C267.812 358.802 268.196 358.552 268.596 358.185L270.146 356.885C270.712 356.385 271.212 356.035 271.646 355.835C272.112 355.602 272.596 355.485 273.096 355.485C273.729 355.485 274.246 355.669 274.646 356.035C275.079 356.402 275.296 356.919 275.296 357.585C275.296 357.852 275.246 358.169 275.146 358.535L272.946 366.135C272.446 367.769 271.546 368.585 270.246 368.585C269.179 368.585 268.346 368.035 267.746 366.935L266.846 365.235C266.612 364.769 266.396 364.469 266.196 364.335C265.996 364.202 265.696 364.135 265.296 364.135H263.846L261.746 371.585C261.679 371.785 261.646 372.052 261.646 372.385C261.646 372.852 261.746 373.235 261.946 373.535C262.179 373.835 262.512 374.152 262.946 374.485C263.312 374.785 263.562 375.035 263.696 375.235C263.829 375.402 263.896 375.619 263.896 375.885C263.896 376.485 263.629 376.902 263.096 377.135C262.562 377.369 261.779 377.485 260.746 377.485H248.196C247.329 377.485 246.679 377.335 246.246 377.035C245.812 376.702 245.662 376.252 245.796 375.685C245.862 375.385 245.996 375.152 246.196 374.985C246.362 374.785 246.629 374.569 246.996 374.335C247.562 374.002 248.012 373.652 248.346 373.285C248.679 372.919 248.946 372.352 249.146 371.585L255.296 350.035C255.429 349.602 255.496 349.202 255.496 348.835C255.496 348.435 255.429 348.102 255.296 347.835C255.196 347.569 255.029 347.285 254.796 346.985C254.496 346.552 254.346 346.202 254.346 345.935C254.346 345.835 254.379 345.652 254.446 345.385C254.579 344.952 254.879 344.652 255.346 344.485C255.812 344.285 256.496 344.185 257.396 344.185H279.596ZM311.2 344.185C312.434 344.185 313.384 344.452 314.05 344.985C314.75 345.519 315.1 346.252 315.1 347.185C315.1 347.652 315.034 348.102 314.9 348.535L313.6 353.185C313.367 354.085 313.017 354.719 312.55 355.085C312.117 355.419 311.484 355.585 310.65 355.585C309.85 355.585 309.217 355.419 308.75 355.085C308.317 354.719 307.984 354.135 307.75 353.335L306.95 350.485C306.784 349.885 306.584 349.485 306.35 349.285C306.117 349.085 305.667 348.985 305 348.985H299.75L297.25 357.885H299.45C299.684 357.885 300 357.719 300.4 357.385L302.1 355.885C302.6 355.452 303.034 355.135 303.4 354.935C303.767 354.735 304.217 354.635 304.75 354.635C305.35 354.635 305.834 354.802 306.2 355.135C306.6 355.435 306.8 355.835 306.8 356.335C306.8 356.469 306.767 356.669 306.7 356.935L304.65 363.885C304.45 364.619 304.1 365.169 303.6 365.535C303.134 365.869 302.617 366.035 302.05 366.035C301.117 366.035 300.417 365.552 299.95 364.585L299.1 362.835C298.867 362.335 298.5 362.085 298 362.085H296.05L293.1 372.685H297.5C298.134 372.685 298.684 372.569 299.15 372.335C299.65 372.069 300.184 371.619 300.75 370.985L303.75 367.685C304.284 367.119 304.784 366.719 305.25 366.485C305.75 366.219 306.35 366.085 307.05 366.085C307.784 366.085 308.384 366.252 308.85 366.585C309.317 366.919 309.55 367.419 309.55 368.085C309.55 368.352 309.5 368.669 309.4 369.035L307.95 374.085C307.584 375.352 307.05 376.235 306.35 376.735C305.65 377.235 304.634 377.485 303.3 377.485H279.45C278.75 377.485 278.217 377.369 277.85 377.135C277.45 376.902 277.25 376.585 277.25 376.185C277.25 375.985 277.3 375.769 277.4 375.535C277.534 375.169 277.75 374.885 278.05 374.685C278.35 374.485 278.534 374.369 278.6 374.335C279.134 374.002 279.567 373.669 279.9 373.335C280.234 372.969 280.517 372.385 280.75 371.585L286.9 350.035C287.034 349.602 287.1 349.202 287.1 348.835C287.1 348.435 287.034 348.102 286.9 347.835C286.8 347.569 286.634 347.285 286.4 346.985C286.1 346.552 285.95 346.202 285.95 345.935C285.95 345.835 285.984 345.652 286.05 345.385C286.184 344.952 286.484 344.652 286.95 344.485C287.417 344.285 288.1 344.185 289 344.185H311.2ZM331.295 343.885C333.162 343.885 334.879 344.119 336.445 344.585C338.045 345.019 339.662 345.719 341.295 346.685L342.445 345.735C343.245 345.102 343.895 344.669 344.395 344.435C344.929 344.202 345.529 344.085 346.195 344.085C346.995 344.085 347.629 344.269 348.095 344.635C348.562 344.969 348.795 345.469 348.795 346.135C348.795 346.402 348.745 346.685 348.645 346.985L346.545 353.885C346.312 354.685 346.012 355.252 345.645 355.585C345.312 355.919 344.795 356.085 344.095 356.085C343.362 356.085 342.712 355.869 342.145 355.435C341.612 354.969 340.762 354.035 339.595 352.635C338.429 351.302 337.362 350.369 336.395 349.835C335.462 349.269 334.495 348.985 333.495 348.985C332.762 348.985 332.145 349.235 331.645 349.735C331.145 350.202 330.895 350.785 330.895 351.485C330.895 352.285 331.295 353.035 332.095 353.735C332.895 354.402 334.145 355.252 335.845 356.285C337.579 357.319 339.012 358.252 340.145 359.085C341.279 359.919 342.245 360.952 343.045 362.185C343.845 363.419 344.245 364.835 344.245 366.435C344.245 367.469 344.079 368.502 343.745 369.535C342.945 372.202 341.395 374.235 339.095 375.635C336.795 377.002 334.112 377.685 331.045 377.685C328.745 377.685 326.812 377.419 325.245 376.885C323.679 376.352 322.079 375.452 320.445 374.185L318.645 375.685C317.812 376.385 317.129 376.869 316.595 377.135C316.062 377.369 315.462 377.485 314.795 377.485C314.029 377.485 313.412 377.302 312.945 376.935C312.512 376.569 312.295 376.069 312.295 375.435C312.295 375.102 312.362 374.752 312.495 374.385L314.945 366.935C315.212 366.069 315.579 365.452 316.045 365.085C316.512 364.719 317.112 364.535 317.845 364.535C318.612 364.535 319.295 364.802 319.895 365.335C320.529 365.869 321.345 366.835 322.345 368.235C323.412 369.769 324.395 370.835 325.295 371.435C326.229 372.035 327.329 372.335 328.595 372.335C329.495 372.335 330.179 372.202 330.645 371.935C331.145 371.635 331.495 371.169 331.695 370.535C331.762 370.369 331.795 370.119 331.795 369.785C331.795 368.985 331.412 368.252 330.645 367.585C329.879 366.919 328.695 366.119 327.095 365.185C325.395 364.152 324.012 363.235 322.945 362.435C321.879 361.602 320.945 360.569 320.145 359.335C319.379 358.102 318.995 356.652 318.995 354.985C318.995 353.819 319.179 352.669 319.545 351.535C320.245 349.235 321.679 347.385 323.845 345.985C326.012 344.585 328.495 343.885 331.295 343.885ZM387.618 344.185C389.451 344.185 390.368 344.935 390.368 346.435C390.368 346.902 390.268 347.485 390.068 348.185L388.868 352.235C388.501 353.469 388.051 354.335 387.518 354.835C386.985 355.335 386.218 355.585 385.218 355.585C384.385 355.585 383.735 355.369 383.268 354.935C382.835 354.502 382.418 353.819 382.018 352.885L381.168 350.835C380.901 350.202 380.618 349.769 380.318 349.535C380.018 349.302 379.551 349.185 378.918 349.185H377.768L371.418 371.535C371.318 371.969 371.268 372.352 371.268 372.685C371.268 373.085 371.318 373.419 371.418 373.685C371.551 373.952 371.735 374.235 371.968 374.535C372.268 375.002 372.418 375.385 372.418 375.685C372.418 375.752 372.385 375.919 372.318 376.185C372.151 376.619 371.818 376.935 371.318 377.135C370.851 377.335 370.168 377.435 369.268 377.435H357.518C356.818 377.435 356.268 377.319 355.868 377.085C355.501 376.852 355.318 376.519 355.318 376.085C355.318 375.885 355.368 375.685 355.468 375.485C355.601 375.185 355.751 374.969 355.918 374.835C356.118 374.669 356.401 374.469 356.768 374.235C357.268 373.935 357.685 373.602 358.018 373.235C358.351 372.869 358.635 372.302 358.868 371.535L365.168 349.185H364.018C363.285 349.185 362.685 349.302 362.218 349.535C361.751 349.769 361.251 350.202 360.718 350.835L359.068 352.885C358.301 353.785 357.551 354.469 356.818 354.935C356.118 355.369 355.351 355.585 354.518 355.585C353.751 355.585 353.151 355.385 352.718 354.985C352.285 354.585 352.068 354.035 352.068 353.335C352.068 353.002 352.118 352.635 352.218 352.235L353.518 347.685C353.785 346.752 354.085 346.052 354.418 345.585C354.751 345.085 355.218 344.735 355.818 344.535C356.451 344.302 357.335 344.185 358.468 344.185H387.618ZM418.657 344.185C419.891 344.185 420.841 344.452 421.507 344.985C422.207 345.519 422.557 346.252 422.557 347.185C422.557 347.652 422.491 348.102 422.357 348.535L421.057 353.185C420.824 354.085 420.474 354.719 420.007 355.085C419.574 355.419 418.941 355.585 418.107 355.585C417.307 355.585 416.674 355.419 416.207 355.085C415.774 354.719 415.441 354.135 415.207 353.335L414.407 350.485C414.241 349.885 414.041 349.485 413.807 349.285C413.574 349.085 413.124 348.985 412.457 348.985H407.207L404.707 357.885H406.907C407.141 357.885 407.457 357.719 407.857 357.385L409.557 355.885C410.057 355.452 410.491 355.135 410.857 354.935C411.224 354.735 411.674 354.635 412.207 354.635C412.807 354.635 413.291 354.802 413.657 355.135C414.057 355.435 414.257 355.835 414.257 356.335C414.257 356.469 414.224 356.669 414.157 356.935L412.107 363.885C411.907 364.619 411.557 365.169 411.057 365.535C410.591 365.869 410.074 366.035 409.507 366.035C408.574 366.035 407.874 365.552 407.407 364.585L406.557 362.835C406.324 362.335 405.957 362.085 405.457 362.085H403.507L400.557 372.685H404.957C405.591 372.685 406.141 372.569 406.607 372.335C407.107 372.069 407.641 371.619 408.207 370.985L411.207 367.685C411.741 367.119 412.241 366.719 412.707 366.485C413.207 366.219 413.807 366.085 414.507 366.085C415.241 366.085 415.841 366.252 416.307 366.585C416.774 366.919 417.007 367.419 417.007 368.085C417.007 368.352 416.957 368.669 416.857 369.035L415.407 374.085C415.041 375.352 414.507 376.235 413.807 376.735C413.107 377.235 412.091 377.485 410.757 377.485H386.907C386.207 377.485 385.674 377.369 385.307 377.135C384.907 376.902 384.707 376.585 384.707 376.185C384.707 375.985 384.757 375.769 384.857 375.535C384.991 375.169 385.207 374.885 385.507 374.685C385.807 374.485 385.991 374.369 386.057 374.335C386.591 374.002 387.024 373.669 387.357 373.335C387.691 372.969 387.974 372.385 388.207 371.585L394.357 350.035C394.491 349.602 394.557 349.202 394.557 348.835C394.557 348.435 394.491 348.102 394.357 347.835C394.257 347.569 394.091 347.285 393.857 346.985C393.557 346.552 393.407 346.202 393.407 345.935C393.407 345.835 393.441 345.652 393.507 345.385C393.641 344.952 393.941 344.652 394.407 344.485C394.874 344.285 395.557 344.185 396.457 344.185H418.657ZM446.514 344.185C450.047 344.185 452.764 344.952 454.664 346.485C456.597 348.019 457.564 350.052 457.564 352.585C457.564 353.585 457.414 354.635 457.114 355.735C456.181 359.069 454.331 361.535 451.564 363.135C448.831 364.735 445.364 365.535 441.164 365.535H436.014L434.314 371.585C434.247 371.785 434.214 372.052 434.214 372.385C434.214 372.852 434.314 373.235 434.514 373.535C434.747 373.835 435.081 374.185 435.514 374.585C435.881 374.919 436.131 375.169 436.264 375.335C436.397 375.502 436.464 375.702 436.464 375.935C436.464 376.502 436.197 376.902 435.664 377.135C435.131 377.369 434.347 377.485 433.314 377.485H420.764C419.897 377.485 419.247 377.335 418.814 377.035C418.381 376.702 418.231 376.252 418.364 375.685C418.431 375.385 418.564 375.152 418.764 374.985C418.931 374.785 419.197 374.569 419.564 374.335C420.131 374.002 420.581 373.652 420.914 373.285C421.247 372.919 421.514 372.352 421.714 371.585L427.814 350.035C427.947 349.602 428.014 349.185 428.014 348.785C428.014 348.419 427.947 348.119 427.814 347.885C427.714 347.619 427.564 347.319 427.364 346.985C427.064 346.552 426.914 346.202 426.914 345.935C426.914 345.835 426.947 345.652 427.014 345.385C427.147 344.952 427.431 344.652 427.864 344.485C428.331 344.285 429.031 344.185 429.964 344.185H446.514ZM445.214 354.835C445.581 353.602 445.764 352.519 445.764 351.585C445.764 349.652 444.864 348.685 443.064 348.685H440.814L437.264 361.035H439.464C440.864 361.035 441.997 360.602 442.864 359.735C443.764 358.835 444.547 357.202 445.214 354.835ZM472.895 343.885C474.761 343.885 476.478 344.119 478.045 344.585C479.645 345.019 481.261 345.719 482.895 346.685L484.045 345.735C484.845 345.102 485.495 344.669 485.995 344.435C486.528 344.202 487.128 344.085 487.795 344.085C488.595 344.085 489.228 344.269 489.695 344.635C490.161 344.969 490.395 345.469 490.395 346.135C490.395 346.402 490.345 346.685 490.245 346.985L488.145 353.885C487.911 354.685 487.611 355.252 487.245 355.585C486.911 355.919 486.395 356.085 485.695 356.085C484.961 356.085 484.311 355.869 483.745 355.435C483.211 354.969 482.361 354.035 481.195 352.635C480.028 351.302 478.961 350.369 477.995 349.835C477.061 349.269 476.095 348.985 475.095 348.985C474.361 348.985 473.745 349.235 473.245 349.735C472.745 350.202 472.495 350.785 472.495 351.485C472.495 352.285 472.895 353.035 473.695 353.735C474.495 354.402 475.745 355.252 477.445 356.285C479.178 357.319 480.611 358.252 481.745 359.085C482.878 359.919 483.845 360.952 484.645 362.185C485.445 363.419 485.845 364.835 485.845 366.435C485.845 367.469 485.678 368.502 485.345 369.535C484.545 372.202 482.995 374.235 480.695 375.635C478.395 377.002 475.711 377.685 472.645 377.685C470.345 377.685 468.411 377.419 466.845 376.885C465.278 376.352 463.678 375.452 462.045 374.185L460.245 375.685C459.411 376.385 458.728 376.869 458.195 377.135C457.661 377.369 457.061 377.485 456.395 377.485C455.628 377.485 455.011 377.302 454.545 376.935C454.111 376.569 453.895 376.069 453.895 375.435C453.895 375.102 453.961 374.752 454.095 374.385L456.545 366.935C456.811 366.069 457.178 365.452 457.645 365.085C458.111 364.719 458.711 364.535 459.445 364.535C460.211 364.535 460.895 364.802 461.495 365.335C462.128 365.869 462.945 366.835 463.945 368.235C465.011 369.769 465.995 370.835 466.895 371.435C467.828 372.035 468.928 372.335 470.195 372.335C471.095 372.335 471.778 372.202 472.245 371.935C472.745 371.635 473.095 371.169 473.295 370.535C473.361 370.369 473.395 370.119 473.395 369.785C473.395 368.985 473.011 368.252 472.245 367.585C471.478 366.919 470.295 366.119 468.695 365.185C466.995 364.152 465.611 363.235 464.545 362.435C463.478 361.602 462.545 360.569 461.745 359.335C460.978 358.102 460.595 356.652 460.595 354.985C460.595 353.819 460.778 352.669 461.145 351.535C461.845 349.235 463.278 347.385 465.445 345.985C467.611 344.585 470.095 343.885 472.895 343.885Z" fill="#7E678F"/>
</svg>
