<svg width="428" height="926" viewBox="0 0 428 926" fill="none" xmlns="http://www.w3.org/2000/svg">
<g clip-path="url(#clip0_192_765)">
<path d="M8.36067 529.158L-7.94677 582.417C-8.59089 584.521 -9.71595 586.446 -11.2329 588.039L-14.084 591.034L-76.2377 645.477L-116.516 679.564C-117.995 680.816 -119.352 682.207 -120.567 683.717L-121.903 685.377C-127.027 691.744 -128.879 700.139 -126.91 708.07C-125.876 712.236 -123.833 716.083 -120.96 719.272L-118.377 722.14C-114.387 726.569 -109.269 729.83 -103.569 731.575C-96.7647 733.659 -89.4681 733.479 -82.7746 731.063L-82.2816 730.885C-79.0144 729.706 -75.9443 728.04 -73.1753 725.943L-18.1373 684.26L33.7909 646.385C35.2013 645.356 36.4366 644.107 37.4493 642.685C40.3569 638.602 41.2168 633.406 39.7794 628.604L38.5982 624.659L21.0409 556.305L13.8022 529.255C13.3316 527.496 11.3473 526.632 9.73954 527.486C9.07647 527.839 8.58048 528.44 8.36067 529.158Z" fill="#5787F5" fill-opacity="0.15"/>
<path d="M181.36 382.756L152.748 444.709C151.098 448.282 150.565 452.269 151.217 456.149C151.376 457.095 151.604 458.028 151.9 458.94L160.469 485.362C162.821 492.616 166.946 499.168 172.469 504.426L176.743 508.495C179.087 510.726 181.919 512.382 185.014 513.329C192.017 515.474 199.632 513.786 205.074 508.884L207.856 506.378C209.805 504.622 211.484 502.587 212.838 500.34C216.113 494.902 217.334 488.473 216.282 482.213L214.193 469.782L189.977 388.894L187.706 382.6C186.615 379.576 182.302 379.682 181.36 382.756Z" fill="#5787F5" fill-opacity="0.15"/>
<path d="M89.5532 786.048L91.7726 788.409C96.5304 793.469 102.839 796.8 109.702 797.874C117.887 799.155 126.245 797.132 132.938 792.25L133.583 791.78C135.191 790.607 136.689 789.293 138.061 787.851L138.31 787.59C143.522 782.114 146.941 775.179 148.11 767.71L149.079 761.516C149.673 757.721 149.883 753.876 149.707 750.04L147.69 706.128L143.908 638.494L144.101 628.248C144.277 618.891 143.139 609.555 140.72 600.515L136.208 583.654L120.609 508.903L117.614 494.848C114.87 481.973 115.453 468.611 119.307 456.023L121.781 447.942C123.394 442.676 125.439 437.551 127.895 432.621L160.507 367.174L183.729 331.373C185.915 328.002 187.815 324.454 189.409 320.765L193.98 310.183C197.255 302.603 197.951 294.157 195.962 286.143C194.882 281.792 193.035 277.669 190.508 273.967L187.738 269.908C184.133 264.628 179.316 260.288 173.689 257.254C169.424 254.954 164.776 253.449 159.972 252.811L158.906 252.67C151.141 251.639 143.243 252.614 135.962 255.502L127.153 258.996L93.7264 276.751L59.3204 297.705L35.9954 311.714C25.9019 317.776 16.9582 325.573 9.57648 334.746L9.44114 334.914L-0.658144 351.682C-3.40979 356.251 -6.52251 360.592 -9.96652 364.664L-37.6978 397.454L-43.2741 405.283C-47.599 411.356 -49.6315 418.765 -49.0106 426.194C-48.6551 430.448 -47.4392 434.585 -45.4368 438.355L-43.1087 442.738C-40.817 447.052 -37.2996 450.592 -32.9997 452.91C-27.5815 455.832 -21.2689 456.629 -15.2946 455.146L-13.7805 454.77C-8.46826 453.452 -3.64215 450.646 0.131696 446.681L9.82667 436.496L27.2589 413.844L40.3137 393.718C40.4461 393.514 40.5973 393.322 40.7651 393.146C43.7962 389.962 48.9748 393.386 47.2313 397.422L43.9722 404.966L38.5876 415.772C36.1311 420.702 34.0861 425.827 32.4735 431.094L28.0404 445.572C22.9311 462.259 22.8755 480.084 27.8804 496.802L44.4202 552.051L60.6995 606.43C63.6661 616.34 65.0772 626.649 64.8825 636.992L64.7179 645.735L67.7188 681.642L78.884 763.67C80.0257 772.058 83.7553 779.88 89.5532 786.048Z" fill="#5787F5" fill-opacity="0.15"/>
<circle cx="195.444" cy="195.935" r="50.1818" transform="rotate(17.024 195.444 195.935)" fill="#5787F5" fill-opacity="0.15"/>
<path d="M17.3607 529.158L1.05323 582.417C0.40911 584.521 -0.715954 586.446 -2.23285 588.039L-5.084 591.034L-67.2377 645.477L-107.516 679.564C-108.995 680.816 -110.352 682.207 -111.567 683.717L-112.903 685.377C-118.027 691.744 -119.879 700.139 -117.91 708.07C-116.876 712.236 -114.833 716.083 -111.96 719.272L-109.377 722.14C-105.387 726.569 -100.269 729.83 -94.5691 731.575C-87.7647 733.659 -80.4681 733.479 -73.7746 731.063L-73.2816 730.885C-70.0144 729.706 -66.9443 728.04 -64.1753 725.943L-9.13727 684.26L42.7909 646.385C44.2013 645.356 45.4366 644.107 46.4493 642.685C49.3569 638.602 50.2168 633.406 48.7794 628.604L47.5982 624.659L30.0409 556.305L22.8022 529.255C22.3316 527.496 20.3473 526.632 18.7395 527.486C18.0765 527.839 17.5805 528.44 17.3607 529.158Z" fill="#5787F5" fill-opacity="0.15"/>
<path d="M190.36 382.756L161.748 444.709C160.098 448.282 159.565 452.269 160.217 456.149C160.376 457.095 160.604 458.028 160.9 458.94L169.469 485.362C171.821 492.616 175.946 499.168 181.469 504.426L185.743 508.495C188.087 510.726 190.919 512.382 194.014 513.329C201.017 515.474 208.632 513.786 214.074 508.884L216.856 506.378C218.805 504.622 220.484 502.587 221.838 500.34C225.113 494.902 226.334 488.473 225.282 482.213L223.193 469.782L198.977 388.894L196.706 382.6C195.615 379.576 191.302 379.682 190.36 382.756Z" fill="#5787F5" fill-opacity="0.15"/>
<path d="M98.5532 786.048L100.773 788.409C105.53 793.469 111.839 796.8 118.702 797.874C126.887 799.155 135.245 797.132 141.938 792.25L142.583 791.78C144.191 790.607 145.689 789.293 147.061 787.851L147.31 787.59C152.522 782.114 155.941 775.179 157.11 767.71L158.079 761.516C158.673 757.721 158.883 753.876 158.707 750.04L156.69 706.128L152.908 638.494L153.101 628.248C153.277 618.891 152.139 609.555 149.72 600.515L145.208 583.654L129.609 508.903L126.614 494.848C123.87 481.973 124.453 468.611 128.307 456.023L130.781 447.942C132.394 442.676 134.439 437.551 136.895 432.621L169.507 367.174L192.729 331.373C194.915 328.002 196.815 324.454 198.409 320.765L202.98 310.183C206.255 302.603 206.951 294.157 204.962 286.143C203.882 281.792 202.035 277.669 199.508 273.967L196.738 269.908C193.133 264.628 188.316 260.288 182.689 257.254C178.424 254.954 173.776 253.449 168.972 252.811L167.906 252.67C160.141 251.639 152.243 252.614 144.962 255.502L136.153 258.996L102.726 276.751L68.3204 297.705L44.9954 311.714C34.9019 317.776 25.9582 325.573 18.5765 334.746L18.4411 334.914L8.34186 351.682C5.59021 356.251 2.47749 360.592 -0.966518 364.664L-28.6978 397.454L-34.2741 405.283C-38.599 411.356 -40.6315 418.765 -40.0106 426.194C-39.6551 430.448 -38.4392 434.585 -36.4368 438.355L-34.1087 442.738C-31.817 447.052 -28.2996 450.592 -23.9997 452.91C-18.5815 455.832 -12.2689 456.629 -6.29459 455.146L-4.78052 454.77C0.531741 453.452 5.35785 450.646 9.1317 446.681L18.8267 436.496L36.2589 413.844L49.3137 393.718C49.4461 393.514 49.5973 393.322 49.7651 393.146C52.7962 389.962 57.9748 393.386 56.2313 397.422L52.9722 404.966L47.5876 415.772C45.1311 420.702 43.0861 425.827 41.4735 431.094L37.0404 445.572C31.9311 462.259 31.8755 480.084 36.8804 496.802L53.4202 552.051L69.6995 606.43C72.6661 616.34 74.0772 626.649 73.8825 636.992L73.7179 645.735L76.7188 681.642L87.884 763.67C89.0257 772.058 92.7553 779.88 98.5532 786.048Z" fill="#5787F5" fill-opacity="0.15"/>
<circle cx="204.444" cy="195.935" r="50.1818" transform="rotate(17.024 204.444 195.935)" fill="#5787F5" fill-opacity="0.15"/>
</g>
<defs>
<clipPath id="clip0_192_765">
<rect width="428" height="926" fill="white"/>
</clipPath>
</defs>
</svg>
